<svg width="297" height="221" viewBox="0 0 297 221" fill="none" xmlns="http://www.w3.org/2000/svg">
<path d="M166.268 3.44965C164.958 5.60193 163.18 8.50282 162.244 10.0001C160.56 12.7138 160.466 12.7138 150.36 13.0881C144.745 13.3688 138.476 13.7431 136.417 14.1175C132.674 14.6789 132.674 14.6789 128.089 8.5964C125.468 5.22762 123.129 2.4203 122.755 2.4203C121.351 2.4203 107.221 7.47347 101.513 10.0001L95.4302 12.7138L96.7402 28.4348L91.7807 31.8971C89.0669 33.8623 84.2945 37.6989 81.1128 40.5062C74.8432 45.9337 74.2817 46.1209 68.9478 44.2493C60.4323 41.2548 60.6194 41.2549 56.1277 47.0566C52.7589 51.5483 44.2434 65.3978 44.2434 66.5207C44.2434 66.7079 46.4893 69.4216 49.203 72.6032L54.1626 78.405L51.5424 85.9848C48.548 94.9682 48.2672 97.4012 50.4195 96.559C51.2617 96.2783 53.1333 95.9975 54.6305 95.9975C56.4085 95.9975 57.3442 95.5297 57.3442 94.5939C57.3442 89.8214 64.3625 74.194 71.2872 63.7134C80.3642 49.9575 98.2375 35.1723 113.865 28.7155C127.808 22.9137 134.826 21.6036 152.325 21.6036C165.613 21.6972 169.45 21.9779 175.907 23.6623C205.383 31.5228 229.714 51.8291 241.879 78.7793L244.967 85.704H248.99C253.763 85.704 253.763 85.7976 248.616 74.5684L245.434 67.6436L249.739 61.6547C252.078 58.3795 253.856 55.1043 253.576 54.5428C252.734 52.3905 241.879 38.5411 238.51 35.2659L235.235 32.0843L228.216 34.9852L221.104 37.9796L215.303 33.7687C212.121 31.3357 206.881 27.9669 203.605 26.1889L197.71 22.8201V7.94135L193.78 6.25697C189.756 4.57258 177.591 1.2038 171.696 0.174449C168.982 -0.293437 168.514 -0.0127056 166.268 3.44965Z" fill="#144FAB"/>
<path d="M164.116 77.3755C152.606 79.3407 136.043 86.1718 122.942 94.4066L116.859 98.2433L96.7402 98.8983C80.3642 99.4598 74.2817 100.021 64.8304 101.986C45.9278 105.917 35.8214 109.753 28.1481 115.836C26.183 117.333 24.2179 118.362 23.75 118.082C23.2821 117.801 22.6271 118.643 22.2527 120.047C21.8784 121.638 22.0656 122.761 22.9078 123.228C23.8436 123.883 23.8436 124.071 23.0014 124.071C21.317 124.071 21.5041 127.72 23.1885 128.375C24.2179 128.843 24.3114 129.311 23.3757 130.621C22.5335 132.118 22.9078 133.241 26.0894 137.826L29.7389 143.254L36.7572 144.377C47.7058 146.061 47.2379 146.248 45.6471 141.757C40.6875 127.814 49.1094 111.812 63.3331 107.695C70.6322 105.636 81.7679 104.607 107.876 103.484C133.142 102.361 179.556 102.548 177.778 103.671C177.123 104.045 178.433 104.419 180.585 104.419C185.077 104.419 186.855 102.829 183.018 102.267C180.866 101.986 181.053 101.893 183.954 101.706C186.387 101.612 187.417 101.986 187.417 102.922C187.417 103.671 187.884 104.419 188.446 104.607C188.914 104.794 171.602 106.478 149.986 108.443C128.276 110.408 110.309 111.812 110.028 111.531C109.747 111.251 110.964 110.595 112.648 110.128C115.362 109.285 114.894 109.192 109.747 109.66C106.379 109.94 102.168 110.315 100.203 110.595L96.8338 111.063L101.045 114.994C103.291 117.052 106.098 120.14 107.127 121.638C108.344 123.509 107.034 122.573 103.571 119.111C98.7989 114.526 97.4889 113.777 94.4008 113.777H90.8449L92.9036 116.772C98.331 125.1 99.6411 132.212 96.9274 140.166L95.0558 145.593H151.202C204.261 145.593 207.255 145.5 206.6 143.909C206.226 143.067 205.477 140.166 204.916 137.452C203.98 132.773 204.261 130.153 206.694 121.357L207.349 119.111L191.534 119.766C173.848 120.515 158.688 122.293 145.307 125.1C133.516 127.627 106.659 136.61 109.654 136.984C112.18 137.359 155.975 134.738 169.918 133.428C180.024 132.399 182.176 131.65 185.358 128.001L187.604 125.474L186.107 128.375C183.861 132.96 179.369 136.236 175.439 136.236C173.567 136.236 157.659 136.891 140.16 137.639C122.661 138.388 106.285 139.043 103.665 139.043L98.9861 138.949L104.133 135.674C112.742 130.153 135.856 119.017 145.494 115.836C161.87 110.408 173.754 108.817 199.114 108.537C212.402 108.443 222.882 107.975 224.847 107.32C242.534 101.706 261.904 119.953 257.6 138.201C256.944 140.727 256.57 143.067 256.757 143.16C256.945 143.347 260.033 142.505 263.495 141.195C269.577 138.856 269.952 138.575 272.665 133.335C274.163 130.247 275.66 125.849 276.034 123.509C276.596 119.392 276.502 119.205 274.631 119.766C268.922 121.357 268.267 121.45 269.952 120.14C270.794 119.485 272.198 118.456 272.946 117.988C275.098 116.678 273.976 108.537 271.636 107.882C269.671 107.414 267.425 101.331 268.361 98.9919C268.829 97.6818 269.016 97.6818 269.765 98.8047C270.513 99.9277 270.7 99.7405 270.7 98.0561C270.7 96.2781 270.232 95.9974 267.238 95.9974C263.495 95.9974 252.359 94.313 250.113 93.4708C249.365 93.0965 248.523 92.8158 248.242 92.8158C247.961 92.7222 247.306 92.4415 246.838 92.0672C246.277 91.7864 240.288 89.7277 233.363 87.669C201.64 77.8434 180.211 74.7554 164.116 77.3755ZM179.275 79.8085C177.03 79.9957 173.474 79.9957 171.321 79.8085C169.075 79.6214 170.853 79.4342 175.252 79.4342C179.65 79.4342 181.428 79.6214 179.275 79.8085ZM194.903 80.9315C197.617 81.4929 198.178 81.7737 196.681 81.8672C194.528 81.9608 194.061 82.6159 193.125 86.0782C192.563 88.3241 191.815 90.8507 191.534 91.7864C190.879 93.3773 191.44 93.3773 198.739 92.8158C207.629 92.0672 219.233 89.6342 219.233 88.6048C219.233 88.2305 218.297 87.3883 217.174 86.8268C215.583 86.0782 215.49 85.7975 216.519 85.7975C218.391 85.7039 220.543 88.0433 219.701 89.3534C218.204 91.88 199.862 94.8745 173.38 96.9332C158.408 98.1497 117.889 99.7405 117.327 99.179C117.14 98.9919 117.982 98.8047 119.199 98.8047C120.415 98.8047 123.69 97.3075 126.404 95.5295C130.428 92.7222 131.27 92.4415 131.27 93.8451C131.27 97.0268 132.767 98.1497 135.856 97.4011C138.476 96.8396 138.85 96.3717 138.569 94.313C138.382 92.3479 137.727 91.6929 135.668 91.5057C133.235 91.225 133.423 90.9442 138.476 88.5112C141.564 87.1076 145.12 85.6103 146.336 85.3296C147.553 84.9553 146.055 85.9846 142.967 87.4819C139.879 88.9791 137.914 90.2892 138.569 90.2892C139.131 90.3828 139.692 91.0378 139.692 91.7864C139.692 92.9094 143.248 93.0965 164.397 93.0965H189.195L190.598 88.792C192.844 82.148 192.657 81.2122 188.633 80.7443C185.826 80.4636 185.639 80.37 187.884 80.2764C189.475 80.2764 192.563 80.5572 194.903 80.9315ZM153.729 83.3645C149.424 85.0489 147.74 84.9553 151.389 83.3645C152.98 82.6159 154.852 82.0544 155.6 82.0544C156.349 82.0544 155.507 82.7094 153.729 83.3645ZM211.279 84.3003C216.332 85.8911 214.367 85.9847 208.471 84.3938C205.945 83.6452 204.635 83.0837 205.664 83.0837C206.694 83.0837 209.22 83.5516 211.279 84.3003ZM205.009 97.7754C205.945 98.3368 205.29 98.7111 202.857 99.179C200.985 99.5533 198.739 100.021 197.897 100.302C197.055 100.583 197.804 99.9277 199.582 98.8983C203.418 96.746 203.418 96.746 205.009 97.7754Z" fill="#144FAB"/>
<path d="M64.8304 110.876C47.0507 116.678 41.9039 137.546 55.2855 149.524C62.8652 156.355 73.533 157.478 82.7972 152.425C98.8925 143.722 98.5182 120.983 82.1421 112.654C78.1183 110.596 68.667 109.566 64.8304 110.876ZM77.3697 114.9C82.7972 116.585 88.599 122.574 89.9091 128.001C91.3127 133.335 91.3127 136.236 90.0962 136.236C89.6283 136.236 89.1604 134.926 89.1604 133.429C89.1604 130.434 87.1017 124.726 85.2302 122.386C84.2944 121.357 83.4522 121.825 79.9899 125.662C75.5917 130.434 75.6853 129.779 80.0834 123.229C82.3293 119.953 82.61 119.018 81.5807 118.363C79.4284 117.053 79.1477 117.24 75.5917 122.854C72.223 128.282 71.9422 126.597 75.2174 120.141C77.1826 116.21 76.6211 115.649 70.6321 115.649C65.0175 115.649 64.6432 116.491 67.2634 122.106C70.445 128.75 69.5092 129.218 65.8597 122.667C62.7717 117.24 62.023 116.678 60.2451 118.737C59.4965 119.766 60.0579 121.357 63.0524 125.568L66.7955 131.089L62.1166 126.036C58.3735 122.012 57.2506 121.264 56.7827 122.48C56.502 123.416 55.8469 124.071 55.379 124.071C52.3846 124.071 58.0928 117.988 63.4267 115.555C67.8248 113.497 72.0358 113.309 77.3697 114.9ZM53.2268 127.908C52.946 129.498 52.946 131.838 53.2268 133.148C53.6947 134.926 54.2561 135.3 55.8469 134.926C56.8763 134.552 59.6836 134.177 62.023 133.896C65.579 133.522 65.2982 133.709 59.7772 135.207C56.2213 136.236 52.946 137.546 52.5717 138.295C51.636 139.698 51.4488 130.341 52.291 127.065C53.1332 123.977 53.8818 124.539 53.2268 127.908ZM84.9495 134.364C86.5403 135.019 86.3531 135.207 84.0137 135.113C82.5165 135.113 80.177 134.739 78.8669 134.364C76.7147 133.709 76.8082 133.616 79.8027 133.616C81.5807 133.616 83.9201 133.896 84.9495 134.364ZM60.6194 140.447C56.9699 142.693 55.4726 143.254 55.4726 142.318C55.4726 141.757 62.2102 138.201 63.4267 138.201C63.9882 138.201 62.6781 139.23 60.6194 140.447ZM68.012 149.43C72.6908 149.617 76.2468 149.243 78.6798 148.307C80.6449 147.559 80.8321 147.652 79.8963 148.775C78.3055 150.647 71.1936 152.05 66.9826 151.208C62.7717 150.46 58.2799 147.746 58.2799 145.968C58.2799 145.126 59.3093 145.407 61.6487 146.997C63.5203 148.307 66.4212 149.337 68.012 149.43Z" fill="#144FAB"/>
<path d="M221.572 112.187C202.389 121.544 204.167 148.494 224.286 154.483C230.275 156.261 233.737 156.261 239.352 154.296C248.897 151.115 255.634 140.447 254.512 130.528C253.108 118.83 244.686 111.064 232.334 110.315C227.281 110.034 225.409 110.315 221.572 112.187ZM237.48 114.807C241.13 115.836 249.084 122.574 247.961 123.79C247.587 124.071 246.651 123.79 245.809 123.041C244.405 121.919 243.75 122.293 240.194 126.41C235.235 132.025 234.86 131.37 239.446 125.007C242.534 120.608 243.095 117.52 240.756 117.52C240.288 117.52 238.323 119.86 236.451 122.667C234.58 125.474 232.895 127.814 232.708 127.814C232.24 127.814 235.235 121.17 236.638 118.924C237.948 116.959 237.855 116.772 235.89 116.21C232.802 115.462 228.31 115.555 226.906 116.491C225.783 117.146 225.877 117.801 227.093 120.234C227.936 121.825 229.058 124.164 229.526 125.568C231.024 129.498 228.778 127.252 226.251 122.106C224.005 117.708 221.947 116.397 220.637 118.55C220.262 119.018 221.572 121.825 223.444 124.726C225.315 127.533 226.719 130.06 226.532 130.247C226.345 130.434 224.567 128.469 222.508 125.942C220.543 123.416 218.578 121.544 218.11 121.825C216.426 122.854 213.618 129.779 213.618 132.961C213.618 134.739 213.244 136.236 212.682 136.236C211.092 136.236 211.653 129.498 213.712 125.287C218.11 116.21 227.468 112.093 237.48 114.807ZM250.768 131.276C251.049 133.709 250.768 136.797 250.207 138.107C249.645 139.698 249.271 139.885 249.271 138.856C249.178 137.733 247.868 136.891 245.247 136.236C238.042 134.364 235.983 133.335 240.756 133.896C243.095 134.177 245.996 134.739 247.212 135.019C249.271 135.581 249.365 135.394 249.084 130.341C248.616 123.977 250.207 124.819 250.768 131.276ZM223.444 134.364C222.415 134.832 220.356 135.207 218.765 135.207C216.332 135.207 216.238 135.019 217.829 134.364C218.859 133.896 221.011 133.522 222.508 133.522C224.941 133.522 225.035 133.709 223.444 134.364ZM245.715 141.383C246.838 142.131 247.4 142.786 247.025 142.786C245.996 142.786 238.884 139.137 238.884 138.575C238.884 137.92 243.469 139.792 245.715 141.383Z" fill="#144FAB"/>
<path d="M47.3876 212.848H50.9136C51.9317 212.848 52.7028 213.072 53.2268 213.521C53.7658 213.956 54.0353 214.637 54.0353 215.565V218.125C54.0353 219.084 53.7808 219.795 53.2717 220.259C52.7627 220.723 51.9991 220.948 50.9809 220.933L45.3888 220.843V219.248H51.8568C52.0515 219.248 52.1488 219.151 52.1488 218.956V214.802C52.1488 214.607 52.0515 214.51 51.8568 214.51H48.2635C47.2454 214.51 46.4818 214.3 45.9727 213.881C45.4636 213.461 45.2091 212.773 45.2091 211.815V209.344C45.2091 208.416 45.4711 207.705 45.9952 207.211C46.5342 206.716 47.3127 206.477 48.3308 206.492L53.6311 206.582V208.176H47.3876C47.1929 208.176 47.0956 208.274 47.0956 208.468V212.556C47.0956 212.75 47.1929 212.848 47.3876 212.848Z" fill="#144FAB"/>
<path d="M69.8377 220.843H68.0186V206.582H69.8377V220.843Z" fill="#144FAB"/>
<path d="M92.6781 218.215V206.582H94.2726V220.843H93.015L85.6935 209.389L86.0977 209.187V220.843H84.4807V206.582H85.7608L93.0823 218.013L92.6781 218.215Z" fill="#144FAB"/>
<path d="M116.244 219.181V220.843H111.28C110.292 220.843 109.566 220.648 109.102 220.259C108.638 219.855 108.406 219.196 108.406 218.282V209.142C108.406 208.214 108.638 207.555 109.102 207.165C109.566 206.776 110.292 206.582 111.28 206.582H116.244V208.243H110.517C110.367 208.243 110.292 208.311 110.292 208.446V218.979C110.292 219.113 110.367 219.181 110.517 219.181H116.244Z" fill="#144FAB"/>
<path d="M137.526 220.843H129.553V206.582H137.415V208.176H131.08L131.372 207.884V213.095L131.08 212.803H137.033V214.375H131.08L131.372 214.083V219.54L131.08 219.248H137.526V220.843Z" fill="#144FAB"/>
<path d="M165.989 216.553C165.989 216.029 166.049 215.633 166.169 215.363C166.304 215.079 166.506 214.846 166.775 214.667C167.045 214.487 167.389 214.3 167.808 214.105L172.165 211.949C172.27 211.904 172.345 211.852 172.39 211.792C172.435 211.732 172.457 211.65 172.457 211.545V208.446C172.457 208.266 172.36 208.176 172.165 208.176H166.281V206.582L171.402 206.492C172.09 206.477 172.644 206.582 173.064 206.806C173.498 207.016 173.812 207.33 174.007 207.75C174.217 208.169 174.321 208.67 174.321 209.254V211.298C174.321 211.897 174.187 212.354 173.917 212.668C173.648 212.982 173.183 213.297 172.525 213.611L168.235 215.745C168.055 215.82 167.943 215.909 167.898 216.014C167.868 216.119 167.853 216.291 167.853 216.531V219.248H174.299V220.843H165.989V216.553Z" fill="#144FAB"/>
<path d="M194.895 208.086H190.179C190.044 208.086 189.977 208.161 189.977 208.311V219.113C189.977 219.263 190.044 219.338 190.179 219.338H194.895C195.03 219.338 195.097 219.263 195.097 219.113V208.311C195.097 208.161 195.03 208.086 194.895 208.086ZM188.09 218.417V209.007C188.09 208.079 188.322 207.42 188.787 207.031C189.251 206.626 189.969 206.424 190.943 206.424H194.109C195.097 206.424 195.824 206.626 196.288 207.031C196.752 207.42 196.984 208.079 196.984 209.007V218.417C196.984 219.345 196.752 220.012 196.288 220.416C195.824 220.805 195.097 221 194.109 221H190.943C189.969 221 189.251 220.805 188.787 220.416C188.322 220.012 188.09 219.345 188.09 218.417Z" fill="#144FAB"/>
<path d="M218.725 219.36V220.843H211.066V219.36H218.725ZM210.415 209.209L214.435 206.582H216.119V220.843H214.278V208.378L214.435 208.446L211.201 210.467L210.415 209.209Z" fill="#144FAB"/>
<path d="M231.522 216.553C231.522 216.029 231.582 215.633 231.702 215.363C231.837 215.079 232.039 214.846 232.308 214.667C232.578 214.487 232.922 214.3 233.341 214.105L237.698 211.949C237.803 211.904 237.878 211.852 237.923 211.792C237.968 211.732 237.99 211.65 237.99 211.545V208.446C237.99 208.266 237.893 208.176 237.698 208.176H231.814V206.582L236.935 206.492C237.624 206.477 238.178 206.582 238.597 206.806C239.031 207.016 239.345 207.33 239.54 207.75C239.75 208.169 239.854 208.67 239.854 209.254V211.298C239.854 211.897 239.72 212.354 239.45 212.668C239.181 212.982 238.717 213.297 238.058 213.611L233.768 215.745C233.589 215.82 233.476 215.909 233.431 216.014C233.401 216.119 233.386 216.291 233.386 216.531V219.248H239.832V220.843H231.522V216.553Z" fill="#144FAB"/>
<path d="M8.79252 190.898L8.75883 174.29H0V171.056H22.0318V174.29H13.2393V190.898H8.79252Z" fill="#144FAB"/>
<path d="M30.5324 190.898C29.0052 190.898 27.8823 190.831 27.1636 190.696C26.4449 190.561 26.0856 190.404 26.0856 190.224L27.4331 187.293C27.9496 187.383 29.2298 187.473 31.2735 187.563C33.3397 187.63 36.1695 187.664 39.7628 187.664H40.4029C41.3686 187.664 42.0536 187.496 42.4578 187.159C42.8621 186.799 43.0642 186.204 43.0642 185.373V184.699C43.0642 183.913 42.8958 183.352 42.5589 183.015C42.2445 182.678 41.5258 182.51 40.4029 182.51H32.5873C30.319 182.51 28.6683 182.094 27.6352 181.263C26.6021 180.41 26.0856 179.029 26.0856 177.12V176.581C26.0856 175.593 26.2652 174.683 26.6246 173.852C27.0064 173.021 27.6464 172.359 28.5448 171.864C29.4431 171.348 30.6783 171.09 32.2504 171.09H41.4135C42.9407 171.09 44.1759 171.168 45.1192 171.325C46.0624 171.483 46.5341 171.651 46.5341 171.831L45.8603 174.661C45.2764 174.593 43.9513 174.526 41.8851 174.458C39.819 174.369 37.0453 174.324 33.5643 174.324L33.1937 174.29C32.1606 174.29 31.4644 174.503 31.1051 174.93C30.7457 175.334 30.5548 175.851 30.5324 176.48V177.052C30.5324 177.793 30.7345 178.355 31.1387 178.737C31.5655 179.096 32.2617 179.276 33.2274 179.276H40.7061C42.1434 179.276 43.3674 179.422 44.378 179.714C45.3887 180.006 46.1635 180.545 46.7025 181.331C47.2415 182.094 47.511 183.228 47.511 184.733V185.272C47.511 186.957 47.0731 188.315 46.1972 189.348C45.3438 190.381 43.8503 190.898 41.7167 190.898H30.5324Z" fill="#144FAB"/>
<path d="M59.6246 190.898L69.4952 171.09H76.1317L85.9685 190.898H80.7806L78.793 186.62H66.7328L64.5431 190.898H59.6246ZM67.9455 183.318H77.5466L72.9313 174.121H72.5944L67.9455 183.318Z" fill="#144FAB"/>
<path d="M95.0043 191.235C92.9606 191.235 91.5345 190.685 90.726 189.584C89.9174 188.484 89.5132 187.024 89.5132 185.205V171.09H93.96V185.34C93.96 186.395 94.2182 187.103 94.7348 187.462C95.2513 187.821 95.8914 188.001 96.655 188.001H103.797C104.515 188.001 105.144 187.821 105.683 187.462C106.222 187.08 106.492 186.373 106.492 185.34V171.09H110.939V185.205C110.939 186.418 110.77 187.473 110.433 188.371C110.096 189.27 109.535 189.977 108.749 190.494C107.963 190.988 106.874 191.235 105.481 191.235H95.0043Z" fill="#144FAB"/>
<path d="M123.93 190.898L123.896 174.29H115.137V171.056H137.169V174.29H128.377V190.898H123.93Z" fill="#144FAB"/>
<path d="M147.725 190.898C146.153 190.898 144.917 190.673 144.019 190.224C143.121 189.775 142.481 189.101 142.099 188.203C141.739 187.305 141.56 186.193 141.56 184.868V177.086C141.56 175.783 141.739 174.694 142.099 173.818C142.458 172.92 143.087 172.246 143.985 171.797C144.884 171.325 146.13 171.09 147.725 171.09H157.562C159.134 171.09 160.358 171.325 161.233 171.797C162.132 172.246 162.761 172.92 163.12 173.818C163.502 174.694 163.693 175.783 163.693 177.086V184.868C163.693 186.844 163.255 188.349 162.379 189.382C161.503 190.393 159.897 190.898 157.562 190.898H147.725ZM148.702 187.664H156.618C157.449 187.664 158.089 187.451 158.538 187.024C159.01 186.597 159.246 186.013 159.246 185.272V176.682C159.246 176.03 159.01 175.48 158.538 175.031C158.067 174.559 157.427 174.324 156.618 174.324H148.702C147.893 174.324 147.242 174.537 146.748 174.964C146.254 175.39 146.007 175.963 146.007 176.682V185.272C146.007 186.036 146.242 186.631 146.714 187.058C147.208 187.462 147.871 187.664 148.702 187.664Z" fill="#144FAB"/>
<path d="M170.426 190.898V173.785L170.089 171.056H185.012C186.45 171.056 187.573 171.247 188.381 171.629C189.212 172.01 189.819 172.516 190.2 173.145C190.605 173.751 190.863 174.402 190.975 175.098C191.087 175.795 191.144 176.457 191.144 177.086V179.074C191.144 179.59 191.065 180.174 190.908 180.825C190.751 181.454 190.459 182.072 190.032 182.678C189.605 183.262 188.988 183.756 188.179 184.16C187.371 184.542 186.315 184.733 185.012 184.733H181.576C180.161 184.733 178.836 184.699 177.601 184.632C176.388 184.565 175.479 184.509 174.872 184.464V190.898H170.426ZM174.872 181.499H184.035C185.046 181.499 185.742 181.252 186.124 180.758C186.506 180.264 186.697 179.669 186.697 178.973V176.85C186.697 176.132 186.506 175.525 186.124 175.031C185.742 174.537 185.057 174.29 184.069 174.29H174.872V181.499Z" fill="#144FAB"/>
<path d="M192.494 190.898L202.365 171.09H209.001L218.838 190.898H213.65L211.662 186.62H199.602L197.412 190.898H192.494ZM200.815 183.318H210.416L205.801 174.121H205.464L200.815 183.318Z" fill="#144FAB"/>
<path d="M244.414 191.235C243.516 191.235 242.629 191.1 241.753 190.831C240.9 190.539 239.923 189.843 238.822 188.742L236.397 186.316C235.409 185.306 234.319 184.565 233.129 184.093C231.961 183.621 230.49 183.386 228.716 183.386H227.672V190.898H223.225V173.785L222.888 171.056H237.812C239.249 171.056 240.372 171.247 241.18 171.629C242.011 172.01 242.618 172.516 243 173.145C243.404 173.751 243.662 174.402 243.774 175.098C243.887 175.795 243.943 176.457 243.943 177.086V177.726C243.943 178.22 243.875 178.77 243.741 179.377C243.606 179.983 243.348 180.578 242.966 181.162C242.584 181.746 242.034 182.24 241.315 182.645C240.619 183.049 239.698 183.285 238.553 183.352C238.845 183.509 239.215 183.756 239.664 184.093C240.114 184.408 240.574 184.756 241.046 185.137C241.54 185.519 241.989 185.867 242.393 186.182C242.797 186.496 243.112 186.721 243.336 186.855C244.145 187.327 244.864 187.653 245.492 187.832C246.121 188.012 246.638 188.113 247.042 188.136C247.446 188.158 247.682 188.169 247.75 188.169L247.076 190.898C246.874 190.965 246.537 191.033 246.065 191.1C245.594 191.19 245.043 191.235 244.414 191.235ZM232.725 180.32C233.578 180.32 234.342 180.309 235.016 180.286C235.689 180.241 236.296 180.197 236.835 180.152C237.823 180.039 238.508 179.77 238.89 179.343C239.294 178.894 239.496 178.321 239.496 177.625V176.85C239.496 176.132 239.305 175.525 238.923 175.031C238.542 174.537 237.857 174.29 236.868 174.29H227.672V180.152C228.66 180.219 229.569 180.264 230.4 180.286C231.231 180.309 232.006 180.32 232.725 180.32Z" fill="#144FAB"/>
<path d="M257.555 190.898L257.522 174.29H248.763V171.056H270.796V174.29H262.003V190.898H257.555Z" fill="#144FAB"/>
<path d="M279.296 190.898C277.769 190.898 276.646 190.831 275.927 190.696C275.209 190.561 274.849 190.404 274.849 190.224L276.197 187.293C276.713 187.383 277.994 187.473 280.037 187.563C282.103 187.63 284.933 187.664 288.527 187.664H289.167C290.132 187.664 290.817 187.496 291.222 187.159C291.626 186.799 291.828 186.204 291.828 185.373V184.699C291.828 183.913 291.66 183.352 291.323 183.015C291.008 182.678 290.29 182.51 289.167 182.51H281.351C279.083 182.51 277.432 182.094 276.399 181.263C275.366 180.41 274.849 179.029 274.849 177.12V176.581C274.849 175.593 275.029 174.683 275.388 173.852C275.77 173.021 276.41 172.359 277.309 171.864C278.207 171.348 279.442 171.09 281.014 171.09H290.177C291.705 171.09 292.94 171.168 293.883 171.325C294.826 171.483 295.298 171.651 295.298 171.831L294.624 174.661C294.04 174.593 292.715 174.526 290.649 174.458C288.583 174.369 285.809 174.324 282.328 174.324L281.957 174.29C280.924 174.29 280.228 174.503 279.869 174.93C279.51 175.334 279.319 175.851 279.296 176.48V177.052C279.296 177.793 279.498 178.355 279.903 178.737C280.329 179.096 281.025 179.276 281.991 179.276H289.47C290.907 179.276 292.131 179.422 293.142 179.714C294.152 180.006 294.927 180.545 295.466 181.331C296.005 182.094 296.275 183.228 296.275 184.733V185.272C296.275 186.957 295.837 188.315 294.961 189.348C294.108 190.381 292.614 190.898 290.481 190.898H279.296Z" fill="#144FAB"/>
</svg>
