<svg width="25" height="25" viewBox="0 0 25 25" fill="none" xmlns="http://www.w3.org/2000/svg">
<path d="M24.2916 9.86295H23.3036V9.81205H12.2651V14.7181H19.1967C18.1854 17.574 15.4681 19.6241 12.2651 19.6241C8.20104 19.6241 4.90603 16.3291 4.90603 12.2651C4.90603 8.20104 8.20104 4.90603 12.2651 4.90603C14.141 4.90603 15.8477 5.61372 17.1472 6.7697L20.6163 3.30053C18.4258 1.25901 15.4957 0 12.2651 0C5.49168 0 0 5.49168 0 12.2651C0 19.0384 5.49168 24.5301 12.2651 24.5301C19.0384 24.5301 24.5301 19.0384 24.5301 12.2651C24.5301 11.4427 24.4455 10.6399 24.2916 9.86295Z" fill="#FFC107"/>
<path d="M1.41436 6.55622L5.44404 9.51149C6.53441 6.81195 9.17488 4.90603 12.2651 4.90603C14.141 4.90603 15.8477 5.61372 17.1472 6.7697L20.6163 3.30053C18.4258 1.25901 15.4957 0 12.2651 0C7.55405 0 3.46876 2.65961 1.41436 6.55622Z" fill="#FF3D00"/>
<path d="M12.2651 24.5301C15.4331 24.5301 18.3117 23.3175 20.4881 21.3459L16.6921 18.1337C15.4195 19.1021 13.8642 19.6258 12.2651 19.6241C9.07492 19.6241 6.36613 17.5898 5.34568 14.751L1.34604 17.8326C3.37591 21.8047 7.49825 24.5301 12.2651 24.5301Z" fill="#4CAF50"/>
<path d="M24.2916 9.86295H23.3036V9.81205H12.2651V14.7181H19.1967C18.7129 16.0773 17.8417 17.265 16.6904 18.1345L16.6921 18.1337L20.4881 21.3459C20.2195 21.59 24.5301 18.3976 24.5301 12.2651C24.5301 11.4427 24.4455 10.6399 24.2916 9.86295Z" fill="#1976D2"/>
</svg>
