<svg width="140" height="105" viewBox="0 0 140 105" fill="none" xmlns="http://www.w3.org/2000/svg">
<path d="M78.5674 1.63008C77.9483 2.6471 77.1082 4.01788 76.666 4.72537C75.87 6.00771 75.8258 6.0077 71.0502 6.18457C68.3971 6.31723 65.4345 6.49411 64.4617 6.67098C62.6929 6.93629 62.6929 6.93629 60.5262 4.06209C59.2881 2.47023 58.1827 1.14367 58.0058 1.14367C57.3425 1.14367 50.6655 3.53147 47.9682 4.72537L45.094 6.0077L45.4035 9.72205L45.7131 13.4364L43.3695 15.0725C42.0871 16.0011 39.832 17.814 38.3286 19.1406C35.3659 21.7053 35.1006 21.7937 32.5802 20.9093C28.5563 19.4943 28.6447 19.4943 26.5222 22.2359C24.9304 24.3584 20.9065 30.9027 20.9065 31.4333C20.9065 31.5218 21.9677 32.8041 23.2501 34.3075L25.5937 37.0491L24.3555 40.6308C22.9405 44.8757 22.8079 46.0254 23.8249 45.6274C24.2229 45.4948 25.1073 45.3621 25.8147 45.3621C26.6549 45.3621 27.0971 45.141 27.0971 44.6989C27.0971 42.4437 30.4135 35.0592 33.6856 30.1068C37.9748 23.6066 46.4205 16.6201 53.805 13.5691C60.3936 10.8275 63.71 10.2085 71.9788 10.2085C78.2578 10.2527 80.0708 10.3853 83.1219 11.1813C97.0507 14.8956 108.547 24.491 114.296 37.2259L115.755 40.4981H117.656C119.912 40.4981 119.912 40.5423 117.48 35.2361L115.976 31.9639L118.01 29.134C119.116 27.5863 119.956 26.0387 119.823 25.7733C119.425 24.7563 114.296 18.212 112.704 16.6644L111.156 15.1609L107.84 16.5317L104.479 17.9467L101.738 15.9569C100.234 14.8072 97.7582 13.2153 96.2105 12.3752L93.4248 10.7833V7.29004V3.75256L91.5676 2.95663C89.6662 2.1607 83.9178 0.568836 81.132 0.0824331C79.8497 -0.138659 79.6286 -0.00600385 78.5674 1.63008Z" fill="white"/>
<path d="M77.5505 36.5626C72.1116 37.4912 64.2849 40.7192 58.0943 44.6104L55.2201 46.4233L45.7132 46.7329C37.9749 46.9982 35.1007 47.2635 30.6347 48.1921C21.7025 50.0492 16.927 51.8622 13.301 54.7364C12.3725 55.4439 11.4439 55.9303 11.2228 55.7977C11.0017 55.665 10.6921 56.063 10.5153 56.7262C10.3384 57.478 10.4268 58.0086 10.8248 58.2297C11.267 58.5392 11.267 58.6276 10.869 58.6276C10.0731 58.6276 10.1615 60.3522 10.9575 60.6617C11.4439 60.8828 11.4881 61.1039 11.0459 61.7229C10.6479 62.4304 10.8248 62.961 12.3282 65.1277L14.0528 67.6924L17.3691 68.223C22.5427 69.019 22.3216 69.1074 21.5699 66.9849C19.2263 60.3964 23.206 52.835 29.9272 50.8894C33.3762 49.9166 38.6382 49.4302 50.9752 48.8996C62.9141 48.3689 84.8465 48.4574 84.0064 48.988C83.6968 49.1649 84.3159 49.3418 85.3329 49.3418C87.4554 49.3418 88.2955 48.59 86.4826 48.3247C85.4656 48.1921 85.554 48.1479 86.9248 48.0594C88.0744 48.0152 88.5608 48.1921 88.5608 48.6343C88.5608 48.988 88.7819 49.3418 89.0473 49.4302C89.2683 49.5186 81.0879 50.3146 70.8735 51.2431C60.6148 52.1717 52.1248 52.835 51.9922 52.7024C51.8595 52.5697 52.4344 52.2602 53.2303 52.0391C54.5126 51.6411 54.2915 51.5969 51.8595 51.818C50.2677 51.9506 48.2778 52.1275 47.3492 52.2602L45.7574 52.4813L47.7472 54.3384C48.8085 55.3112 50.135 56.7705 50.6214 57.4779C51.1962 58.3623 50.5772 57.9201 48.9411 56.2841C46.686 54.1174 46.0669 53.7636 44.6077 53.7636H42.9274L43.9002 55.1786C46.4649 59.114 47.0839 62.4746 45.8016 66.2332L44.9172 68.7979H71.4483C96.5202 68.7979 97.9352 68.7537 97.6256 68.0019C97.4488 67.604 97.095 66.2332 96.8297 64.9509C96.3875 62.7399 96.5202 61.5018 97.6699 57.3453L97.9794 56.2841L90.5065 56.5936C82.1492 56.9473 74.9858 57.7875 68.6625 59.114C63.091 60.3079 50.4003 64.5529 51.8153 64.7298C53.0092 64.9066 73.7034 63.6685 80.292 63.0495C85.0676 62.5631 86.0846 62.2093 87.588 60.4848L88.6493 59.2909L87.9418 60.6617C86.8805 62.8284 84.7581 64.376 82.9009 64.376C82.0165 64.376 74.4994 64.6856 66.2305 65.0393C57.9617 65.3931 50.2234 65.7026 48.9853 65.7026L46.7744 65.6584L49.2064 64.1107C53.2745 61.5018 64.1965 56.2398 68.751 54.7364C76.4892 52.1717 82.105 51.42 94.0882 51.2874C100.367 51.2431 105.32 51.0221 106.248 50.7125C114.606 48.0594 123.759 56.682 121.725 65.3046C121.415 66.4985 121.238 67.604 121.327 67.6482C121.415 67.7366 122.874 67.3387 124.51 66.7196C127.385 65.6141 127.562 65.4815 128.844 63.0053C129.551 61.546 130.259 59.4678 130.436 58.3623C130.701 56.4167 130.657 56.3283 129.772 56.5936C127.075 57.3453 126.766 57.3895 127.562 56.7704C127.959 56.4609 128.623 55.9745 128.977 55.7534C129.994 55.1344 129.463 51.2874 128.357 50.9778C127.429 50.7567 126.368 47.8825 126.81 46.7771C127.031 46.158 127.119 46.158 127.473 46.6886C127.827 47.2193 127.915 47.1308 127.915 46.3349C127.915 45.4947 127.694 45.3621 126.279 45.3621C124.51 45.3621 119.248 44.5662 118.187 44.1682C117.833 43.9913 117.435 43.8587 117.303 43.8587C117.17 43.8144 116.861 43.6818 116.64 43.5049C116.374 43.3723 113.544 42.3995 110.272 41.4267C95.2821 36.7837 85.156 35.3245 77.5505 36.5626ZM84.7138 37.7123C83.6526 37.8007 81.9723 37.8007 80.9553 37.7123C79.894 37.6239 80.7342 37.5354 82.8124 37.5354C84.8907 37.5354 85.7309 37.6239 84.7138 37.7123ZM92.0983 38.2429C93.3807 38.5082 93.646 38.6409 92.9385 38.6851C91.9214 38.7293 91.7004 39.0388 91.2582 40.6749C90.9929 41.7362 90.6391 42.9301 90.5065 43.3723C90.1969 44.124 90.4622 44.124 93.9113 43.8587C98.112 43.5049 103.595 42.3552 103.595 41.8688C103.595 41.692 103.153 41.294 102.622 41.0287C101.871 40.6749 101.826 40.5423 102.313 40.5423C103.197 40.4981 104.214 41.6035 103.816 42.2226C103.109 43.4165 94.4419 44.8315 81.9281 45.8043C74.8531 46.3791 55.7065 47.1308 55.4412 46.8655C55.3528 46.7771 55.7508 46.6886 56.3256 46.6886C56.9004 46.6886 58.4481 45.9812 59.7304 45.141C61.6318 43.8144 62.0298 43.6818 62.0298 44.3451C62.0298 45.8485 62.7373 46.3791 64.1965 46.0254C65.4346 45.7601 65.6115 45.539 65.4788 44.5662C65.3904 43.6376 65.0808 43.328 64.108 43.2396C62.9584 43.1069 63.0468 42.9743 65.4346 41.8246C66.8938 41.1613 68.5741 40.4538 69.1489 40.3212C69.7238 40.1443 69.0163 40.6307 67.5571 41.3382C66.0979 42.0457 65.1693 42.6648 65.4788 42.6648C65.7441 42.709 66.0094 43.0185 66.0094 43.3723C66.0094 43.9029 67.6897 43.9913 77.6831 43.9913H89.401L90.0643 41.9573C91.1255 38.8178 91.0371 38.3756 89.1357 38.1545C87.8091 38.0218 87.7207 37.9776 88.7819 37.9334C89.5337 37.9334 90.9929 38.066 92.0983 38.2429ZM72.6422 39.3926C70.6082 40.1885 69.8122 40.1443 71.5367 39.3926C72.2885 39.0389 73.1728 38.7735 73.5266 38.7735C73.8803 38.7735 73.4824 39.0831 72.6422 39.3926ZM99.8366 39.8348C102.224 40.5865 101.296 40.6307 98.51 39.879C97.3161 39.5253 96.697 39.2599 97.1834 39.2599C97.6698 39.2599 98.8637 39.481 99.8366 39.8348ZM96.8739 46.2022C97.3161 46.4676 97.0066 46.6444 95.8569 46.8655C94.9725 47.0424 93.9113 47.2635 93.5133 47.3961C93.1154 47.5288 93.4691 47.2193 94.3092 46.7329C96.1222 45.7158 96.1222 45.7158 96.8739 46.2022Z" fill="white"/>
<path d="M30.6345 52.3927C22.233 55.1342 19.801 64.995 26.1243 70.6549C29.7059 73.8829 34.7468 74.4135 39.1245 72.0257C46.7301 67.9134 46.5532 57.1683 38.8149 53.2328C36.9136 52.26 32.4475 51.7736 30.6345 52.3927ZM36.5598 54.2941C39.1245 55.09 41.866 57.92 42.4851 60.4847C43.1484 63.0051 43.1484 64.3759 42.5735 64.3759C42.3524 64.3759 42.1313 63.7568 42.1313 63.0493C42.1313 61.6343 41.1585 58.937 40.2742 57.8316C39.832 57.3452 39.434 57.5663 37.7979 59.3792C35.7197 61.6344 35.7639 61.3248 37.8421 58.2295C38.9034 56.6819 39.036 56.2397 38.5496 55.9302C37.5326 55.3111 37.4 55.3996 35.7197 58.0527C34.1278 60.6173 33.9951 59.8214 35.5428 56.7703C36.4714 54.9131 36.2061 54.6478 33.3761 54.6478C30.723 54.6478 30.5461 55.0458 31.7842 57.6989C33.2876 60.8384 32.8455 61.0595 31.1209 57.9642C29.6617 55.3995 29.308 55.1342 28.4678 56.107C28.1141 56.5934 28.3794 57.3452 29.7944 59.335L31.5631 61.9439L29.3522 59.5561C27.5835 57.6547 27.0528 57.3009 26.8317 57.8758C26.6991 58.318 26.3896 58.6275 26.1685 58.6275C24.7535 58.6275 27.4508 55.7533 29.9713 54.6036C32.0495 53.6308 34.0394 53.5424 36.5598 54.2941ZM25.1514 60.4405C25.0188 61.1922 25.0188 62.2976 25.1514 62.9167C25.3725 63.7568 25.6378 63.9337 26.3896 63.7568C26.876 63.58 28.2025 63.4031 29.308 63.2704C30.9883 63.0936 30.8556 63.182 28.2467 63.8895C26.5664 64.3759 25.0188 64.995 24.8419 65.3487C24.3997 66.012 24.3113 61.5901 24.7093 60.0425C25.1072 58.5833 25.461 58.8486 25.1514 60.4405ZM40.1415 63.4915C40.8932 63.8011 40.8048 63.8895 39.6993 63.8453C38.9918 63.8453 37.8864 63.6684 37.2673 63.4915C36.2503 63.182 36.2945 63.1378 37.7095 63.1378C38.5496 63.1378 39.6551 63.2704 40.1415 63.4915ZM28.6447 66.3657C26.9202 67.427 26.2127 67.6923 26.2127 67.2501C26.2127 66.9848 29.3964 65.3045 29.9713 65.3045C30.2366 65.3045 29.6175 65.7909 28.6447 66.3657ZM32.138 70.6107C34.3489 70.6991 36.0292 70.5223 37.1789 70.0801C38.1075 69.7263 38.1959 69.7705 37.7537 70.3012C37.002 71.1855 33.6414 71.8488 31.6516 71.4508C29.6617 71.0971 27.5392 69.8148 27.5392 68.9746C27.5392 68.5766 28.0256 68.7093 29.1311 69.461C30.0155 70.0801 31.3862 70.5665 32.138 70.6107Z" fill="white"/>
<path d="M104.7 53.0118C95.6357 57.4337 96.4758 70.1686 105.983 72.9986C108.813 73.8387 110.449 73.8387 113.102 72.9101C117.612 71.4067 120.796 66.3658 120.265 61.6786C119.602 56.1513 115.622 52.4812 109.786 52.1275C107.398 51.9948 106.513 52.1275 104.7 53.0118ZM112.218 54.25C113.942 54.7364 117.701 57.9201 117.17 58.4949C116.993 58.6276 116.551 58.4949 116.153 58.1412C115.49 57.6105 115.18 57.7874 113.5 59.733C111.156 62.3861 110.979 62.0766 113.146 59.0698C114.605 56.9915 114.871 55.5323 113.765 55.5323C113.544 55.5323 112.616 56.6377 111.731 57.9643C110.847 59.2909 110.051 60.3963 109.962 60.3963C109.741 60.3963 111.156 57.2568 111.82 56.1956C112.439 55.267 112.394 55.1785 111.466 54.9132C110.007 54.5595 107.884 54.6037 107.221 55.0459C106.69 55.3554 106.734 55.6649 107.309 56.8146C107.707 57.5663 108.238 58.6718 108.459 59.3351C109.167 61.1922 108.105 60.131 106.911 57.699C105.85 55.6207 104.877 55.0017 104.258 56.0187C104.081 56.2398 104.7 57.5663 105.585 58.9371C106.469 60.2637 107.132 61.4576 107.044 61.546C106.956 61.6344 106.115 60.7058 105.143 59.5119C104.214 58.318 103.285 57.4337 103.064 57.5663C102.268 58.0527 100.942 61.3249 100.942 62.8283C100.942 63.6685 100.765 64.376 100.5 64.376C99.748 64.376 100.013 61.1922 100.986 59.2024C103.064 54.9132 107.486 52.9676 112.218 54.25ZM118.497 62.0324C118.629 63.1821 118.497 64.6413 118.231 65.2603C117.966 66.0121 117.789 66.1005 117.789 65.6141C117.745 65.0835 117.126 64.6855 115.888 64.376C112.483 63.4916 111.51 63.0052 113.765 63.2705C114.871 63.4032 116.241 63.6685 116.816 63.8011C117.789 64.0665 117.833 63.978 117.701 61.5902C117.48 58.5834 118.231 58.9813 118.497 62.0324ZM105.585 63.4916C105.098 63.7127 104.126 63.8896 103.374 63.8896C102.224 63.8896 102.18 63.8011 102.932 63.4916C103.418 63.2705 104.435 63.0936 105.143 63.0936C106.292 63.0936 106.337 63.1821 105.585 63.4916ZM116.109 66.808C116.639 67.1617 116.905 67.4713 116.728 67.4713C116.241 67.4713 112.881 65.7467 112.881 65.4814C112.881 65.1719 115.048 66.0563 116.109 66.808Z" fill="white"/>
<path d="M22.3922 100.578H24.0584C24.5395 100.578 24.9038 100.684 25.1514 100.896C25.4061 101.101 25.5335 101.423 25.5335 101.862V103.072C25.5335 103.525 25.4132 103.861 25.1727 104.08C24.9321 104.299 24.5713 104.405 24.0902 104.398L21.4477 104.356V103.602H24.5041C24.596 103.602 24.642 103.556 24.642 103.464V101.501C24.642 101.409 24.596 101.363 24.5041 101.363H22.8061C22.325 101.363 21.9642 101.264 21.7236 101.066C21.4831 100.868 21.3628 100.542 21.3628 100.09V98.9223C21.3628 98.4837 21.4866 98.1476 21.7342 97.9141C21.9889 97.6807 22.3568 97.5675 22.8379 97.5745L25.3425 97.617V98.3705H22.3922C22.3002 98.3705 22.2542 98.4165 22.2542 98.5084V100.44C22.2542 100.532 22.3002 100.578 22.3922 100.578Z" fill="white"/>
<path d="M33.0007 104.356H32.1411V97.6167H33.0007V104.356Z" fill="white"/>
<path d="M43.7935 103.114V97.6167H44.5469V104.356H43.9526L40.493 98.9433L40.684 98.8477V104.356H39.9199V97.6167H40.5248L43.9845 103.018L43.7935 103.114Z" fill="white"/>
<path d="M54.9291 103.57V104.356H52.5837C52.1168 104.356 51.7737 104.264 51.5543 104.08C51.335 103.889 51.2253 103.577 51.2253 103.146V98.8265C51.2253 98.3879 51.335 98.0766 51.5543 97.8926C51.7737 97.7087 52.1168 97.6167 52.5837 97.6167H54.9291V98.402H52.2229C52.1522 98.402 52.1168 98.4339 52.1168 98.4975V103.475C52.1168 103.538 52.1522 103.57 52.2229 103.57H54.9291Z" fill="white"/>
<path d="M64.9857 104.356H61.2183V97.6167H64.933V98.3702H61.9399L62.0779 98.2322V100.694L61.9399 100.556H64.7526V101.299H61.9399L62.0779 101.161V103.74L61.9399 103.602H64.9857V104.356Z" fill="white"/>
<path d="M78.4355 102.329C78.4355 102.081 78.4639 101.894 78.5205 101.766C78.5841 101.632 78.6796 101.522 78.807 101.437C78.9343 101.352 79.0971 101.264 79.2952 101.172L81.354 100.153C81.4035 100.132 81.4389 100.107 81.4601 100.079C81.4813 100.051 81.4919 100.012 81.4919 99.9622V98.4977C81.4919 98.4128 81.4459 98.3703 81.354 98.3703H78.5735V97.6168L80.9931 97.5744C81.3186 97.5673 81.5804 97.6168 81.7785 97.723C81.9836 97.822 82.1322 97.9706 82.2242 98.1687C82.3232 98.3668 82.3728 98.6038 82.3728 98.8797V99.8454C82.3728 100.128 82.3091 100.344 82.1817 100.493C82.0544 100.641 81.8351 100.79 81.5238 100.939L79.4968 101.947C79.4119 101.982 79.3588 102.025 79.3376 102.074C79.3235 102.124 79.3164 102.205 79.3164 102.318V103.602H82.3621V104.356H78.4355V102.329Z" fill="white"/>
<path d="M92.0947 98.3278H89.8661C89.8024 98.3278 89.7706 98.3632 89.7706 98.4339V103.539C89.7706 103.609 89.8024 103.645 89.8661 103.645H92.0947C92.1584 103.645 92.1902 103.609 92.1902 103.539V98.4339C92.1902 98.3632 92.1584 98.3278 92.0947 98.3278ZM88.8792 103.21V98.7629C88.8792 98.3243 88.9888 98.013 89.2081 97.829C89.4275 97.638 89.7671 97.5425 90.2269 97.5425H91.7233C92.1902 97.5425 92.5334 97.638 92.7527 97.829C92.972 98.013 93.0817 98.3243 93.0817 98.7629V103.21C93.0817 103.648 92.972 103.963 92.7527 104.154C92.5334 104.338 92.1902 104.43 91.7233 104.43H90.2269C89.7671 104.43 89.4275 104.338 89.2081 104.154C88.9888 103.963 88.8792 103.648 88.8792 103.21Z" fill="white"/>
<path d="M103.355 103.655V104.356H99.736V103.655H103.355ZM99.4282 98.8583L101.328 97.6167H102.124V104.356H101.254V98.4657L101.328 98.4975L99.7997 99.4526L99.4282 98.8583Z" fill="white"/>
<path d="M109.402 102.329C109.402 102.081 109.431 101.894 109.487 101.766C109.551 101.632 109.646 101.522 109.774 101.437C109.901 101.352 110.064 101.264 110.262 101.172L112.321 100.153C112.37 100.132 112.406 100.107 112.427 100.079C112.448 100.051 112.459 100.012 112.459 99.9622V98.4977C112.459 98.4128 112.413 98.3703 112.321 98.3703H109.54V97.6168L111.96 97.5744C112.285 97.5673 112.547 97.6168 112.745 97.723C112.95 97.822 113.099 97.9706 113.191 98.1687C113.29 98.3668 113.34 98.6038 113.34 98.8797V99.8454C113.34 100.128 113.276 100.344 113.149 100.493C113.021 100.641 112.802 100.79 112.491 100.939L110.464 101.947C110.379 101.982 110.326 102.025 110.304 102.074C110.29 102.124 110.283 102.205 110.283 102.318V103.602H113.329V104.356H109.402V102.329Z" fill="white"/>
<path d="M4.15477 90.2057L4.13885 82.3578H0V80.8296H10.4108V82.3578H6.25603V90.2057H4.15477Z" fill="white"/>
<path d="M14.4277 90.2059C13.706 90.2059 13.1754 90.174 12.8358 90.1104C12.4962 90.0467 12.3264 89.9724 12.3264 89.8875L12.9632 88.5026C13.2072 88.545 13.8122 88.5875 14.7779 88.6299C15.7542 88.6618 17.0914 88.6777 18.7894 88.6777H19.0918C19.5482 88.6777 19.8719 88.5981 20.0629 88.4389C20.2539 88.2691 20.3494 87.9879 20.3494 87.5952V87.2768C20.3494 86.9054 20.2698 86.6401 20.1106 86.4809C19.9621 86.3217 19.6225 86.2421 19.0918 86.2421H15.3987C14.3269 86.2421 13.5468 86.0458 13.0587 85.6531C12.5705 85.2499 12.3264 84.5972 12.3264 83.6951V83.4404C12.3264 82.9735 12.4113 82.5437 12.5811 82.151C12.7615 81.7584 13.064 81.4453 13.4885 81.2118C13.913 80.9677 14.4967 80.8457 15.2395 80.8457H19.5694C20.291 80.8457 20.8747 80.8829 21.3205 80.9571C21.7662 81.0314 21.989 81.111 21.989 81.1959L21.6707 82.5331C21.3947 82.5012 20.7686 82.4694 19.7923 82.4376C18.8159 82.3951 17.5053 82.3739 15.8604 82.3739L15.6853 82.358C15.1971 82.358 14.8681 82.4588 14.6983 82.6604C14.5285 82.8515 14.4383 83.0955 14.4277 83.3927V83.6633C14.4277 84.0135 14.5232 84.2788 14.7142 84.4592C14.9158 84.629 15.2448 84.7139 15.7012 84.7139H19.2351C19.9143 84.7139 20.4927 84.7829 20.9702 84.9209C21.4478 85.0588 21.8139 85.3135 22.0686 85.685C22.3233 86.0458 22.4507 86.5817 22.4507 87.2927V87.5475C22.4507 88.3434 22.2437 88.9854 21.8298 89.4736C21.4266 89.9618 20.7208 90.2059 19.7127 90.2059H14.4277Z" fill="white"/>
<path d="M28.1748 90.2059L32.839 80.8457H35.9749L40.6232 90.2059H38.1717L37.2325 88.1842H31.5336L30.4989 90.2059H28.1748ZM32.1067 86.6242H36.6435L34.4627 82.2784H34.3035L32.1067 86.6242Z" fill="white"/>
<path d="M44.8928 90.365C43.9271 90.365 43.2532 90.1051 42.8712 89.585C42.4891 89.065 42.2981 88.3752 42.2981 87.5156V80.8457H44.3994V87.5793C44.3994 88.0781 44.5214 88.4124 44.7655 88.5822C45.0096 88.752 45.312 88.8369 45.6728 88.8369H49.0476C49.3872 88.8369 49.6843 88.752 49.939 88.5822C50.1937 88.4018 50.3211 88.0675 50.3211 87.5793V80.8457H52.4224V87.5156C52.4224 88.0887 52.3428 88.5875 52.1836 89.012C52.0244 89.4365 51.7591 89.7708 51.3876 90.0148C51.0162 90.2483 50.5015 90.365 49.8435 90.365H44.8928Z" fill="white"/>
<path d="M58.5613 90.2057L58.5453 82.3578H54.4065V80.8296H64.8173V82.3578H60.6625V90.2057H58.5613Z" fill="white"/>
<path d="M69.805 90.2059C69.0621 90.2059 68.4784 90.0997 68.0539 89.8875C67.6294 89.6752 67.327 89.3569 67.1465 88.9324C66.9767 88.5079 66.8918 87.9826 66.8918 87.3564V83.6792C66.8918 83.0637 66.9767 82.549 67.1465 82.1351C67.3163 81.7106 67.6135 81.3922 68.038 81.18C68.4625 80.9571 69.0515 80.8457 69.805 80.8457H74.4532C75.1961 80.8457 75.7744 80.9571 76.1883 81.18C76.6128 81.3922 76.91 81.7106 77.0798 82.1351C77.2602 82.549 77.3504 83.0637 77.3504 83.6792V87.3564C77.3504 88.2903 77.1434 89.0014 76.7296 89.4895C76.3157 89.9671 75.5569 90.2059 74.4532 90.2059H69.805ZM70.2666 88.6777H74.0075C74.4001 88.6777 74.7026 88.5769 74.9148 88.3752C75.1377 88.1736 75.2491 87.8977 75.2491 87.5475V83.4882C75.2491 83.1804 75.1377 82.9204 74.9148 82.7082C74.692 82.4853 74.3895 82.3739 74.0075 82.3739H70.2666C69.8846 82.3739 69.5768 82.4747 69.3433 82.6763C69.1098 82.878 68.9931 83.1486 68.9931 83.4882V87.5475C68.9931 87.9083 69.1045 88.1895 69.3274 88.3911C69.5609 88.5822 69.8739 88.6777 70.2666 88.6777Z" fill="white"/>
<path d="M80.532 90.2057V82.119L80.3728 80.8296H87.4248C88.104 80.8296 88.6346 80.9198 89.0166 81.1002C89.4093 81.2806 89.6958 81.5194 89.8762 81.8166C90.0673 82.1031 90.1893 82.4108 90.2424 82.7398C90.2954 83.0688 90.322 83.3819 90.322 83.679V84.6182C90.322 84.8623 90.2848 85.1382 90.2105 85.446C90.1362 85.7431 89.9983 86.035 89.7966 86.3215C89.595 86.5975 89.3032 86.8309 88.9211 87.0219C88.5391 87.2024 88.0403 87.2926 87.4248 87.2926H85.8011C85.1325 87.2926 84.5063 87.2766 83.9227 87.2448C83.3496 87.213 82.9198 87.1864 82.6333 87.1652V90.2057H80.532ZM82.6333 85.7644H86.9631C87.4407 85.7644 87.7697 85.6476 87.9501 85.4142C88.1305 85.1807 88.2207 84.8995 88.2207 84.5705V83.5676C88.2207 83.228 88.1305 82.9415 87.9501 82.708C87.7697 82.4745 87.446 82.3578 86.979 82.3578H82.6333V85.7644Z" fill="white"/>
<path d="M90.96 90.2059L95.6241 80.8457H98.7601L103.408 90.2059H100.957L100.018 88.1842H94.3188L93.2841 90.2059H90.96ZM94.8919 86.6242H99.4287L97.2478 82.2784H97.0886L94.8919 86.6242Z" fill="white"/>
<path d="M115.494 90.3649C115.07 90.3649 114.651 90.3012 114.237 90.1738C113.833 90.0359 113.372 89.7069 112.852 89.1869L111.706 88.0407C111.239 87.5632 110.724 87.213 110.162 86.9901C109.61 86.7672 108.915 86.6558 108.076 86.6558H107.583V90.2057H105.481V82.119L105.322 80.8296H112.374C113.053 80.8296 113.584 80.9198 113.966 81.1002C114.359 81.2806 114.645 81.5194 114.826 81.8166C115.017 82.1031 115.139 82.4108 115.192 82.7398C115.245 83.0688 115.271 83.3819 115.271 83.679V83.9815C115.271 84.215 115.24 84.475 115.176 84.7615C115.112 85.048 114.99 85.3293 114.81 85.6052C114.629 85.8811 114.369 86.1146 114.03 86.3056C113.701 86.4966 113.266 86.6081 112.724 86.6399C112.862 86.7142 113.038 86.8309 113.25 86.9901C113.462 87.1387 113.68 87.3032 113.902 87.4836C114.136 87.664 114.348 87.8285 114.539 87.9771C114.73 88.1256 114.879 88.2318 114.985 88.2954C115.367 88.5183 115.707 88.6722 116.004 88.7571C116.301 88.842 116.545 88.8897 116.736 88.9003C116.927 88.911 117.038 88.9163 117.07 88.9163L116.752 90.2057C116.656 90.2375 116.497 90.2694 116.274 90.3012C116.051 90.3436 115.791 90.3649 115.494 90.3649ZM109.971 85.2072C110.374 85.2072 110.735 85.2019 111.053 85.1913C111.371 85.1701 111.658 85.1488 111.913 85.1276C112.38 85.0746 112.703 84.9472 112.884 84.7456C113.075 84.5333 113.17 84.2627 113.17 83.9337V83.5676C113.17 83.228 113.08 82.9415 112.9 82.708C112.719 82.4745 112.395 82.3578 111.929 82.3578H107.583V85.1276C108.05 85.1595 108.479 85.1807 108.872 85.1913C109.265 85.2019 109.631 85.2072 109.971 85.2072Z" fill="white"/>
<path d="M121.704 90.2057L121.688 82.3578H117.549V80.8296H127.96V82.3578H123.806V90.2057H121.704Z" fill="white"/>
<path d="M131.977 90.2059C131.255 90.2059 130.725 90.174 130.385 90.1104C130.046 90.0467 129.876 89.9724 129.876 89.8875L130.512 88.5026C130.757 88.545 131.361 88.5875 132.327 88.6299C133.304 88.6618 134.641 88.6777 136.339 88.6777H136.641C137.097 88.6777 137.421 88.5981 137.612 88.4389C137.803 88.2691 137.899 87.9879 137.899 87.5952V87.2768C137.899 86.9054 137.819 86.6401 137.66 86.4809C137.511 86.3217 137.172 86.2421 136.641 86.2421H132.948C131.876 86.2421 131.096 86.0458 130.608 85.6531C130.12 85.2499 129.876 84.5972 129.876 83.6951V83.4404C129.876 82.9735 129.961 82.5437 130.13 82.151C130.311 81.7584 130.613 81.4453 131.038 81.2118C131.462 80.9677 132.046 80.8457 132.789 80.8457H137.119C137.84 80.8457 138.424 80.8829 138.87 80.9571C139.315 81.0314 139.538 81.111 139.538 81.1959L139.22 82.5331C138.944 82.5012 138.318 82.4694 137.342 82.4376C136.365 82.3951 135.055 82.3739 133.41 82.3739L133.235 82.358C132.746 82.358 132.417 82.4588 132.248 82.6604C132.078 82.8515 131.988 83.0955 131.977 83.3927V83.6633C131.977 84.0135 132.073 84.2788 132.264 84.4592C132.465 84.629 132.794 84.7139 133.25 84.7139H136.784C137.464 84.7139 138.042 84.7829 138.52 84.9209C138.997 85.0588 139.363 85.3135 139.618 85.685C139.873 86.0458 140 86.5817 140 87.2927V87.5475C140 88.3434 139.793 88.9854 139.379 89.4736C138.976 89.9618 138.27 90.2059 137.262 90.2059H131.977Z" fill="white"/>
</svg>
