<svg width="140" height="105" viewBox="0 0 140 105" fill="none" xmlns="http://www.w3.org/2000/svg">
<path d="M78.5674 1.63008C77.9483 2.6471 77.1082 4.01788 76.666 4.72537C75.8701 6.00771 75.8258 6.0077 71.0502 6.18457C68.3971 6.31723 65.4345 6.49411 64.4617 6.67098C62.693 6.93629 62.693 6.93629 60.5263 4.06209C59.2881 2.47023 58.1827 1.14367 58.0058 1.14367C57.3425 1.14367 50.6655 3.53147 47.9682 4.72537L45.094 6.0077L45.7131 13.4364L43.3695 15.0725C42.0872 16.0011 39.832 17.814 38.3286 19.1406C35.3659 21.7053 35.1006 21.7937 32.5802 20.9093C28.5563 19.4943 28.6447 19.4943 26.5223 22.2359C24.9304 24.3584 20.9065 30.9027 20.9065 31.4333C20.9065 31.5218 21.9678 32.8041 23.2501 34.3075L25.5937 37.0491L24.3556 40.6308C22.9406 44.8757 22.8079 46.0254 23.8249 45.6274C24.2229 45.4948 25.1073 45.3621 25.8148 45.3621C26.6549 45.3621 27.0971 45.141 27.0971 44.6989C27.0971 42.4437 30.4135 35.0592 33.6856 30.1068C37.9748 23.6066 46.4206 16.6201 53.805 13.5691C60.3936 10.8275 63.71 10.2085 71.9788 10.2085C78.2579 10.2527 80.0708 10.3853 83.1219 11.1813C97.0507 14.8956 108.548 24.491 114.296 37.2259L115.755 40.4981H117.656C119.912 40.4981 119.912 40.5423 117.48 35.2361L115.976 31.9639L118.01 29.134C119.116 27.5863 119.956 26.0387 119.823 25.7733C119.425 24.7563 114.296 18.212 112.704 16.6644L111.156 15.1609L107.84 16.5317L104.479 17.9467L101.738 15.9569C100.234 14.8072 97.7582 13.2153 96.2105 12.3752L93.4248 10.7833V3.75256L91.5676 2.95663C89.6662 2.1607 83.9178 0.568836 81.1321 0.0824331C79.8497 -0.138659 79.6286 -0.00600386 78.5674 1.63008Z" fill="white"/>
<path d="M77.5503 36.5626C72.1115 37.4912 64.2848 40.7191 58.0942 44.6104L55.22 46.4233L45.7131 46.7329C37.9748 46.9982 35.1006 47.2635 30.6346 48.1921C21.7024 50.0492 16.9268 51.8622 13.3009 54.7364C12.3723 55.4439 11.4437 55.9303 11.2227 55.7976C11.0016 55.665 10.692 56.063 10.5152 56.7262C10.3383 57.4779 10.4267 58.0086 10.8247 58.2297C11.2669 58.5392 11.2669 58.6276 10.8689 58.6276C10.073 58.6276 10.1614 60.3521 10.9573 60.6617C11.4437 60.8828 11.488 61.1038 11.0458 61.7229C10.6478 62.4304 10.8247 62.961 12.3281 65.1277L14.0526 67.6924L17.369 68.223C22.5426 69.019 22.3215 69.1074 21.5698 66.9849C19.2262 60.3964 23.2059 52.835 29.9271 50.8894C33.3761 49.9166 38.6381 49.4302 50.975 48.8996C62.914 48.3689 84.8464 48.4574 84.0062 48.988C83.6967 49.1649 84.3158 49.3417 85.3328 49.3417C87.4553 49.3417 88.2954 48.59 86.4825 48.3247C85.4654 48.1921 85.5539 48.1478 86.9246 48.0594C88.0743 48.0152 88.5607 48.1921 88.5607 48.6342C88.5607 48.988 88.7818 49.3417 89.0471 49.4302C89.2682 49.5186 81.0878 50.3146 70.8734 51.2431C60.6147 52.1717 52.1247 52.835 51.9921 52.7023C51.8594 52.5697 52.4343 52.2602 53.2302 52.0391C54.5125 51.6411 54.2914 51.5969 51.8594 51.818C50.2675 51.9506 48.2777 52.1275 47.3491 52.2602L45.7573 52.4813L47.7471 54.3384C48.8083 55.3112 50.1349 56.7704 50.6213 57.4779C51.1961 58.3623 50.5771 57.9201 48.941 56.284C46.6859 54.1173 46.0668 53.7636 44.6076 53.7636H42.9273L43.9001 55.1786C46.4648 59.114 47.0838 62.4746 45.8015 66.2332L44.9171 68.7979H71.4482C96.5201 68.7979 97.935 68.7537 97.6255 68.0019C97.4486 67.604 97.0949 66.2332 96.8296 64.9509C96.3874 62.7399 96.5201 61.5018 97.6697 57.3453L97.9793 56.284L90.5063 56.5936C82.1491 56.9473 74.9857 57.7875 68.6624 59.114C63.0909 60.3079 50.4002 64.5529 51.8152 64.7298C53.0091 64.9066 73.7033 63.6685 80.2919 63.0495C85.0675 62.5631 86.0845 62.2093 87.5879 60.4848L88.6492 59.2909L87.9417 60.6617C86.8804 62.8284 84.7579 64.376 82.9008 64.376C82.0164 64.376 74.4993 64.6855 66.2304 65.0393C57.9616 65.393 50.2233 65.7026 48.9852 65.7026L46.7743 65.6583L49.2063 64.1107C53.2744 61.5018 64.1964 56.2398 68.7509 54.7364C76.4891 52.1717 82.1048 51.42 94.088 51.2873C100.367 51.2431 105.32 51.022 106.248 50.7125C114.605 48.0594 123.759 56.682 121.725 65.3046C121.415 66.4985 121.238 67.604 121.327 67.6482C121.415 67.7366 122.874 67.3386 124.51 66.7196C127.385 65.6141 127.561 65.4815 128.844 63.0052C129.551 61.546 130.259 59.4678 130.436 58.3623C130.701 56.4167 130.657 56.3283 129.772 56.5936C127.075 57.3453 126.765 57.3895 127.561 56.7704C127.959 56.4609 128.623 55.9745 128.976 55.7534C129.993 55.1344 129.463 51.2874 128.357 50.9778C127.429 50.7567 126.368 47.8825 126.81 46.7771C127.031 46.158 127.119 46.158 127.473 46.6886C127.827 47.2193 127.915 47.1308 127.915 46.3349C127.915 45.4947 127.694 45.3621 126.279 45.3621C124.51 45.3621 119.248 44.5661 118.187 44.1682C117.833 43.9913 117.435 43.8587 117.303 43.8587C117.17 43.8144 116.861 43.6818 116.639 43.5049C116.374 43.3723 113.544 42.3994 110.272 41.4266C95.2819 36.7837 85.1559 35.3245 77.5503 36.5626ZM84.7137 37.7123C83.6525 37.8007 81.9722 37.8007 80.9552 37.7123C79.8939 37.6239 80.7341 37.5354 82.8123 37.5354C84.8906 37.5354 85.7307 37.6239 84.7137 37.7123ZM92.0982 38.2429C93.3805 38.5082 93.6459 38.6409 92.9384 38.6851C91.9213 38.7293 91.7002 39.0388 91.2581 40.6749C90.9928 41.7362 90.639 42.9301 90.5063 43.3722C90.1968 44.124 90.4621 44.124 93.9112 43.8587C98.1119 43.5049 103.595 42.3552 103.595 41.8688C103.595 41.692 103.153 41.294 102.622 41.0287C101.87 40.6749 101.826 40.5423 102.313 40.5423C103.197 40.4981 104.214 41.6035 103.816 42.2226C103.109 43.4165 94.4418 44.8315 81.928 45.8043C74.853 46.3791 55.7064 47.1308 55.4411 46.8655C55.3527 46.7771 55.7506 46.6886 56.3255 46.6886C56.9003 46.6886 58.448 45.9811 59.7303 45.141C61.6317 43.8144 62.0297 43.6818 62.0297 44.3451C62.0297 45.8485 62.7372 46.3791 64.1964 46.0254C65.4345 45.76 65.6114 45.539 65.4787 44.5661C65.3903 43.6376 65.0807 43.328 64.1079 43.2396C62.9582 43.1069 63.0467 42.9743 65.4345 41.8246C66.8937 41.1613 68.574 40.4538 69.1488 40.3212C69.7237 40.1443 69.0162 40.6307 67.557 41.3382C66.0978 42.0457 65.1692 42.6648 65.4787 42.6648C65.744 42.709 66.0093 43.0185 66.0093 43.3722C66.0093 43.9029 67.6896 43.9913 77.683 43.9913H89.4009L90.0642 41.9573C91.1254 38.8177 91.037 38.3756 89.1356 38.1545C87.809 38.0218 87.7206 37.9776 88.7818 37.9334C89.5335 37.9334 90.9927 38.066 92.0982 38.2429ZM72.6421 39.3926C70.608 40.1885 69.8121 40.1443 71.5366 39.3926C72.2883 39.0388 73.1727 38.7735 73.5265 38.7735C73.8802 38.7735 73.4822 39.0831 72.6421 39.3926ZM99.8364 39.8348C102.224 40.5865 101.296 40.6307 98.5099 39.879C97.316 39.5252 96.6969 39.2599 97.1833 39.2599C97.6697 39.2599 98.8636 39.481 99.8364 39.8348ZM96.8738 46.2022C97.316 46.4675 97.0065 46.6444 95.8568 46.8655C94.9724 47.0424 93.9112 47.2635 93.5132 47.3961C93.1152 47.5288 93.469 47.2193 94.3091 46.7329C96.1221 45.7158 96.1221 45.7158 96.8738 46.2022Z" fill="white"/>
<path d="M30.6346 52.3929C22.233 55.1344 19.801 64.9951 26.1243 70.6551C29.706 73.883 34.7469 74.4136 39.1245 72.0258C46.7301 67.9135 46.5532 57.1685 38.815 53.233C36.9136 52.2602 32.4475 51.7738 30.6346 52.3929ZM36.5598 54.2943C39.1245 55.0902 41.866 57.9202 42.4851 60.4848C43.1484 63.0053 43.1484 64.3761 42.5735 64.3761C42.3524 64.3761 42.1313 63.757 42.1313 63.0495C42.1313 61.6345 41.1585 58.9372 40.2742 57.8317C39.832 57.3453 39.434 57.5664 37.7979 59.3794C35.7197 61.6345 35.7639 61.325 37.8422 58.2297C38.9034 56.6821 39.0361 56.2399 38.5497 55.9303C37.5326 55.3113 37.4 55.3997 35.7197 58.0528C34.1278 60.6175 33.9952 59.8216 35.5428 56.7705C36.4714 54.9133 36.2061 54.648 33.3761 54.648C30.723 54.648 30.5461 55.046 31.7842 57.6991C33.2877 60.8386 32.8455 61.0597 31.121 57.9644C29.6617 55.3997 29.308 55.1344 28.4678 56.1072C28.1141 56.5936 28.3794 57.3453 29.7944 59.3352L31.5631 61.944L29.3522 59.5563C27.5835 57.6549 27.0529 57.3011 26.8318 57.8759C26.6991 58.3181 26.3896 58.6277 26.1685 58.6277C24.7535 58.6277 27.4508 55.7535 29.9713 54.6038C32.0495 53.631 34.0394 53.5425 36.5598 54.2943ZM25.1515 60.4406C25.0188 61.1923 25.0188 62.2978 25.1515 62.9169C25.3726 63.757 25.6379 63.9339 26.3896 63.757C26.876 63.5801 28.2025 63.4033 29.308 63.2706C30.9883 63.0937 30.8556 63.1822 28.2468 63.8897C26.5665 64.3761 25.0188 64.9951 24.8419 65.3489C24.3997 66.0121 24.3113 61.5903 24.7093 60.0427C25.1072 58.5834 25.461 58.8488 25.1515 60.4406ZM40.1415 63.4917C40.8932 63.8012 40.8048 63.8897 39.6993 63.8454C38.9918 63.8454 37.8864 63.6686 37.2673 63.4917C36.2503 63.1822 36.2945 63.1379 37.7095 63.1379C38.5497 63.1379 39.6551 63.2706 40.1415 63.4917ZM28.6447 66.3659C26.9202 67.4271 26.2127 67.6924 26.2127 67.2503C26.2127 66.9849 29.3964 65.3046 29.9713 65.3046C30.2366 65.3046 29.6175 65.7911 28.6447 66.3659ZM32.138 70.6109C34.3489 70.6993 36.0292 70.5224 37.1789 70.0802C38.1075 69.7265 38.1959 69.7707 37.7537 70.3013C37.002 71.1857 33.6414 71.849 31.6516 71.451C29.6617 71.0973 27.5393 69.8149 27.5393 68.9748C27.5393 68.5768 28.0257 68.7095 29.1311 69.4612C30.0155 70.0802 31.3863 70.5666 32.138 70.6109Z" fill="white"/>
<path d="M104.701 53.012C95.6357 57.4338 96.4759 70.1688 105.983 72.9987C108.813 73.8389 110.449 73.8389 113.102 72.9103C117.612 71.4069 120.796 66.366 120.265 61.6788C119.602 56.1515 115.622 52.4814 109.786 52.1276C107.398 51.995 106.513 52.1276 104.701 53.012ZM112.218 54.2501C113.942 54.7365 117.701 57.9203 117.17 58.4951C116.993 58.6277 116.551 58.4951 116.153 58.1413C115.49 57.6107 115.18 57.7876 113.5 59.7332C111.156 62.3863 110.98 62.0768 113.146 59.0699C114.605 56.9917 114.871 55.5325 113.765 55.5325C113.544 55.5325 112.616 56.6379 111.731 57.9645C110.847 59.291 110.051 60.3965 109.963 60.3965C109.741 60.3965 111.156 57.257 111.82 56.1957C112.439 55.2671 112.395 55.1787 111.466 54.9134C110.007 54.5596 107.884 54.6039 107.221 55.046C106.69 55.3556 106.735 55.6651 107.309 56.8148C107.707 57.5665 108.238 58.672 108.459 59.3352C109.167 61.1924 108.105 60.1312 106.911 57.6992C105.85 55.6209 104.877 55.0018 104.258 56.0189C104.081 56.2399 104.701 57.5665 105.585 58.9373C106.469 60.2638 107.133 61.4577 107.044 61.5462C106.956 61.6346 106.115 60.706 105.143 59.5121C104.214 58.3182 103.286 57.4338 103.064 57.5665C102.268 58.0529 100.942 61.3251 100.942 62.8285C100.942 63.6686 100.765 64.3761 100.5 64.3761C99.748 64.3761 100.013 61.1924 100.986 59.2026C103.064 54.9134 107.486 52.9678 112.218 54.2501ZM118.497 62.0326C118.629 63.1822 118.497 64.6415 118.231 65.2605C117.966 66.0122 117.789 66.1007 117.789 65.6143C117.745 65.0836 117.126 64.6857 115.888 64.3761C112.483 63.4918 111.51 63.0054 113.765 63.2707C114.871 63.4033 116.242 63.6687 116.816 63.8013C117.789 64.0666 117.833 63.9782 117.701 61.5904C117.48 58.5835 118.231 58.9815 118.497 62.0326ZM105.585 63.4918C105.098 63.7129 104.126 63.8897 103.374 63.8897C102.224 63.8897 102.18 63.8013 102.932 63.4918C103.418 63.2707 104.435 63.0938 105.143 63.0938C106.292 63.0938 106.337 63.1822 105.585 63.4918ZM116.109 66.8082C116.639 67.1619 116.905 67.4714 116.728 67.4714C116.242 67.4714 112.881 65.7469 112.881 65.4816C112.881 65.1721 115.048 66.0564 116.109 66.8082Z" fill="white"/>
<path d="M22.3922 100.578H24.0584C24.5395 100.578 24.9038 100.684 25.1515 100.896C25.4062 101.101 25.5335 101.423 25.5335 101.862V103.072C25.5335 103.525 25.4132 103.861 25.1727 104.08C24.9321 104.299 24.5713 104.405 24.0902 104.398L21.4477 104.356V103.602H24.5041C24.5961 103.602 24.6421 103.556 24.6421 103.464V101.501C24.6421 101.409 24.5961 101.363 24.5041 101.363H22.8061C22.325 101.363 21.9642 101.264 21.7236 101.066C21.4831 100.868 21.3628 100.542 21.3628 100.09V98.9223C21.3628 98.4837 21.4866 98.1476 21.7343 97.9141C21.9889 97.6807 22.3568 97.5674 22.8379 97.5745L25.3425 97.617V98.3705H22.3922C22.3003 98.3705 22.2543 98.4164 22.2543 98.5084V100.44C22.2543 100.532 22.3003 100.578 22.3922 100.578Z" fill="white"/>
<path d="M33.0007 104.356H32.1411V97.6168H33.0007V104.356Z" fill="white"/>
<path d="M43.7935 103.114V97.6168H44.547V104.356H43.9527L40.493 98.9433L40.6841 98.8478V104.356H39.92V97.6168H40.5249L43.9845 103.019L43.7935 103.114Z" fill="white"/>
<path d="M54.9291 103.57V104.356H52.5837C52.1168 104.356 51.7737 104.264 51.5543 104.08C51.335 103.889 51.2253 103.577 51.2253 103.146V98.8266C51.2253 98.3879 51.335 98.0766 51.5543 97.8927C51.7737 97.7087 52.1168 97.6168 52.5837 97.6168H54.9291V98.4021H52.2229C52.1522 98.4021 52.1168 98.4339 52.1168 98.4976V103.475C52.1168 103.539 52.1522 103.57 52.2229 103.57H54.9291Z" fill="white"/>
<path d="M64.9857 104.356H61.2183V97.6168H64.933V98.3702H61.9399L62.0779 98.2323V100.694L61.9399 100.556H64.7526V101.299H61.9399L62.0779 101.161V103.74L61.9399 103.602H64.9857V104.356Z" fill="white"/>
<path d="M78.4357 102.329C78.4357 102.081 78.464 101.894 78.5206 101.766C78.5842 101.632 78.6797 101.522 78.8071 101.437C78.9344 101.352 79.0972 101.264 79.2953 101.172L81.3541 100.153C81.4036 100.132 81.439 100.107 81.4602 100.079C81.4814 100.051 81.492 100.012 81.492 99.9622V98.4977C81.492 98.4128 81.446 98.3703 81.3541 98.3703H78.5736V97.6169L80.9932 97.5744C81.3187 97.5673 81.5805 97.6169 81.7786 97.723C81.9837 97.822 82.1323 97.9706 82.2243 98.1687C82.3234 98.3668 82.3729 98.6038 82.3729 98.8797V99.8455C82.3729 100.128 82.3092 100.344 82.1818 100.493C82.0545 100.641 81.8352 100.79 81.5239 100.939L79.4969 101.947C79.412 101.982 79.3589 102.025 79.3377 102.074C79.3236 102.124 79.3165 102.205 79.3165 102.318V103.602H82.3623V104.356H78.4357V102.329Z" fill="white"/>
<path d="M92.0947 98.3279H89.8661C89.8025 98.3279 89.7706 98.3633 89.7706 98.434V103.539C89.7706 103.609 89.8025 103.645 89.8661 103.645H92.0947C92.1584 103.645 92.1903 103.609 92.1903 103.539V98.434C92.1903 98.3633 92.1584 98.3279 92.0947 98.3279ZM88.8792 103.21V98.763C88.8792 98.3243 88.9888 98.013 89.2082 97.8291C89.4275 97.6381 89.7671 97.5426 90.227 97.5426H91.7233C92.1903 97.5426 92.5334 97.6381 92.7527 97.8291C92.972 98.013 93.0817 98.3243 93.0817 98.763V103.21C93.0817 103.648 92.972 103.963 92.7527 104.154C92.5334 104.338 92.1903 104.43 91.7233 104.43H90.227C89.7671 104.43 89.4275 104.338 89.2082 104.154C88.9888 103.963 88.8792 103.648 88.8792 103.21Z" fill="white"/>
<path d="M103.355 103.655V104.356H99.736V103.655H103.355ZM99.4282 98.8584L101.328 97.6168H102.124V104.356H101.254V98.4658L101.328 98.4976L99.7997 99.4527L99.4282 98.8584Z" fill="white"/>
<path d="M109.402 102.329C109.402 102.081 109.431 101.894 109.487 101.766C109.551 101.632 109.646 101.522 109.774 101.437C109.901 101.352 110.064 101.264 110.262 101.172L112.321 100.153C112.37 100.132 112.406 100.107 112.427 100.079C112.448 100.051 112.459 100.012 112.459 99.9622V98.4977C112.459 98.4128 112.413 98.3703 112.321 98.3703H109.54V97.6169L111.96 97.5744C112.285 97.5673 112.547 97.6169 112.745 97.723C112.95 97.822 113.099 97.9706 113.191 98.1687C113.29 98.3668 113.339 98.6038 113.339 98.8797V99.8455C113.339 100.128 113.276 100.344 113.148 100.493C113.021 100.641 112.802 100.79 112.49 100.939L110.463 101.947C110.379 101.982 110.326 102.025 110.304 102.074C110.29 102.124 110.283 102.205 110.283 102.318V103.602H113.329V104.356H109.402V102.329Z" fill="white"/>
<path d="M4.15477 90.2058L4.13885 82.3579H0V80.8297H10.4108V82.3579H6.25603V90.2058H4.15477Z" fill="white"/>
<path d="M14.4276 90.2058C13.7059 90.2058 13.1753 90.174 12.8357 90.1103C12.4961 90.0466 12.3263 89.9724 12.3263 89.8875L12.9631 88.5025C13.2072 88.545 13.8121 88.5874 14.7778 88.6299C15.7541 88.6617 17.0913 88.6777 18.7893 88.6777H19.0918C19.5481 88.6777 19.8718 88.5981 20.0628 88.4389C20.2538 88.2691 20.3493 87.9878 20.3493 87.5952V87.2768C20.3493 86.9054 20.2697 86.6401 20.1105 86.4809C19.962 86.3217 19.6224 86.2421 19.0918 86.2421H15.3986C14.3268 86.2421 13.5468 86.0458 13.0586 85.6531C12.5704 85.2498 12.3263 84.5972 12.3263 83.6951V83.4404C12.3263 82.9735 12.4112 82.5437 12.581 82.151C12.7614 81.7583 13.0639 81.4453 13.4884 81.2118C13.9129 80.9677 14.4966 80.8457 15.2394 80.8457H19.5693C20.291 80.8457 20.8746 80.8828 21.3204 80.9571C21.7661 81.0314 21.9889 81.111 21.9889 81.1959L21.6706 82.5331C21.3947 82.5012 20.7685 82.4694 19.7922 82.4375C18.8158 82.3951 17.5052 82.3739 15.8603 82.3739L15.6852 82.3579C15.197 82.3579 14.868 82.4588 14.6982 82.6604C14.5284 82.8514 14.4382 83.0955 14.4276 83.3927V83.6633C14.4276 84.0135 14.5231 84.2788 14.7141 84.4592C14.9158 84.629 15.2448 84.7139 15.7011 84.7139H19.235C19.9142 84.7139 20.4926 84.7829 20.9702 84.9208C21.4477 85.0588 21.8138 85.3135 22.0685 85.6849C22.3232 86.0458 22.4506 86.5817 22.4506 87.2927V87.5474C22.4506 88.3434 22.2436 88.9854 21.8298 89.4736C21.4265 89.9617 20.7208 90.2058 19.7126 90.2058H14.4276Z" fill="white"/>
<path d="M28.1747 90.2058L32.8389 80.8457H35.9748L40.6231 90.2058H38.1716L37.2324 88.1842H31.5335L30.4988 90.2058H28.1747ZM32.1066 86.6241H36.6434L34.4626 82.2783H34.3034L32.1066 86.6241Z" fill="white"/>
<path d="M44.8928 90.365C43.927 90.365 43.2531 90.105 42.8711 89.585C42.489 89.065 42.298 88.3752 42.298 87.5156V80.8457H44.3993V87.5793C44.3993 88.078 44.5213 88.4123 44.7654 88.5821C45.0095 88.7519 45.3119 88.8368 45.6728 88.8368H49.0475C49.3871 88.8368 49.6843 88.7519 49.939 88.5821C50.1937 88.4017 50.321 88.0674 50.321 87.5793V80.8457H52.4223V87.5156C52.4223 88.0887 52.3427 88.5874 52.1835 89.0119C52.0243 89.4364 51.759 89.7707 51.3876 90.0148C51.0161 90.2483 50.5014 90.365 49.8435 90.365H44.8928Z" fill="white"/>
<path d="M58.5612 90.2058L58.5452 82.3579H54.4064V80.8297H64.8172V82.3579H60.6624V90.2058H58.5612Z" fill="white"/>
<path d="M69.8049 90.2058C69.0621 90.2058 68.4784 90.0997 68.0539 89.8875C67.6294 89.6752 67.3269 89.3568 67.1465 88.9323C66.9767 88.5078 66.8918 87.9825 66.8918 87.3564V83.6792C66.8918 83.0637 66.9767 82.549 67.1465 82.1351C67.3163 81.7106 67.6135 81.3922 68.038 81.18C68.4625 80.9571 69.0515 80.8457 69.8049 80.8457H74.4532C75.1961 80.8457 75.7744 80.9571 76.1883 81.18C76.6128 81.3922 76.91 81.7106 77.0798 82.1351C77.2602 82.549 77.3504 83.0637 77.3504 83.6792V87.3564C77.3504 88.2903 77.1434 89.0013 76.7295 89.4895C76.3157 89.9671 75.5569 90.2058 74.4532 90.2058H69.8049ZM70.2666 88.6777H74.0075C74.4001 88.6777 74.7026 88.5768 74.9148 88.3752C75.1377 88.1735 75.2491 87.8976 75.2491 87.5474V83.4882C75.2491 83.1804 75.1377 82.9204 74.9148 82.7082C74.692 82.4853 74.3895 82.3739 74.0075 82.3739H70.2666C69.8845 82.3739 69.5768 82.4747 69.3433 82.6763C69.1098 82.8779 68.9931 83.1486 68.9931 83.4882V87.5474C68.9931 87.9082 69.1045 88.1895 69.3274 88.3911C69.5609 88.5821 69.8739 88.6777 70.2666 88.6777Z" fill="white"/>
<path d="M80.5319 90.2058V82.1191L80.3727 80.8297H87.4247C88.1039 80.8297 88.6345 80.9199 89.0166 81.1003C89.4092 81.2808 89.6958 81.5196 89.8762 81.8167C90.0672 82.1032 90.1892 82.411 90.2423 82.74C90.2954 83.069 90.3219 83.382 90.3219 83.6792V84.6184C90.3219 84.8625 90.2848 85.1384 90.2105 85.4461C90.1362 85.7433 89.9982 86.0351 89.7966 86.3217C89.595 86.5976 89.3031 86.8311 88.9211 87.0221C88.539 87.2025 88.0402 87.2927 87.4247 87.2927H85.801C85.1324 87.2927 84.5063 87.2768 83.9226 87.2449C83.3495 87.2131 82.9197 87.1866 82.6332 87.1654V90.2058H80.5319ZM82.6332 85.7645H86.9631C87.4406 85.7645 87.7696 85.6478 87.95 85.4143C88.1304 85.1808 88.2206 84.8996 88.2206 84.5706V83.5677C88.2206 83.2282 88.1304 82.9416 87.95 82.7081C87.7696 82.4747 87.4459 82.3579 86.979 82.3579H82.6332V85.7645Z" fill="white"/>
<path d="M90.96 90.2058L95.6242 80.8457H98.7602L103.408 90.2058H100.957L100.018 88.1842H94.3189L93.2842 90.2058H90.96ZM94.8919 86.6241H99.4287L97.2479 82.2783H97.0887L94.8919 86.6241Z" fill="white"/>
<path d="M115.494 90.365C115.07 90.365 114.65 90.3013 114.237 90.174C113.833 90.036 113.372 89.707 112.852 89.187L111.706 88.0409C111.239 87.5633 110.724 87.2131 110.161 86.9902C109.61 86.7674 108.914 86.656 108.076 86.656H107.583V90.2058H105.481V82.1191L105.322 80.8297H112.374C113.053 80.8297 113.584 80.9199 113.966 81.1003C114.359 81.2808 114.645 81.5196 114.826 81.8167C115.017 82.1032 115.139 82.411 115.192 82.74C115.245 83.069 115.271 83.382 115.271 83.6792V83.9816C115.271 84.2151 115.239 84.4751 115.176 84.7616C115.112 85.0482 114.99 85.3294 114.81 85.6053C114.629 85.8813 114.369 86.1147 114.03 86.3057C113.701 86.4968 113.266 86.6082 112.724 86.64C112.862 86.7143 113.037 86.8311 113.25 86.9902C113.462 87.1388 113.679 87.3033 113.902 87.4837C114.136 87.6641 114.348 87.8286 114.539 87.9772C114.73 88.1258 114.879 88.2319 114.985 88.2956C115.367 88.5184 115.706 88.6723 116.004 88.7572C116.301 88.8421 116.545 88.8899 116.736 88.9005C116.927 88.9111 117.038 88.9164 117.07 88.9164L116.752 90.2058C116.656 90.2377 116.497 90.2695 116.274 90.3013C116.051 90.3438 115.791 90.365 115.494 90.365ZM109.97 85.2074C110.374 85.2074 110.734 85.2021 111.053 85.1915C111.371 85.1702 111.658 85.149 111.912 85.1278C112.379 85.0747 112.703 84.9474 112.883 84.7457C113.075 84.5335 113.17 84.2629 113.17 83.9339V83.5677C113.17 83.2282 113.08 82.9416 112.899 82.7081C112.719 82.4747 112.395 82.3579 111.928 82.3579H107.583V85.1278C108.05 85.1596 108.479 85.1808 108.872 85.1915C109.265 85.2021 109.631 85.2074 109.97 85.2074Z" fill="white"/>
<path d="M121.704 90.2058L121.688 82.3579H117.549V80.8297H127.96V82.3579H123.805V90.2058H121.704Z" fill="white"/>
<path d="M131.977 90.2058C131.255 90.2058 130.725 90.174 130.385 90.1103C130.046 90.0466 129.876 89.9724 129.876 89.8875L130.513 88.5025C130.757 88.545 131.362 88.5874 132.327 88.6299C133.304 88.6617 134.641 88.6777 136.339 88.6777H136.641C137.098 88.6777 137.421 88.5981 137.612 88.4389C137.803 88.2691 137.899 87.9878 137.899 87.5952V87.2768C137.899 86.9054 137.819 86.6401 137.66 86.4809C137.511 86.3217 137.172 86.2421 136.641 86.2421H132.948C131.876 86.2421 131.096 86.0458 130.608 85.6531C130.12 85.2498 129.876 84.5972 129.876 83.6951V83.4404C129.876 82.9735 129.961 82.5437 130.13 82.151C130.311 81.7583 130.613 81.4453 131.038 81.2118C131.462 80.9677 132.046 80.8457 132.789 80.8457H137.119C137.84 80.8457 138.424 80.8828 138.87 80.9571C139.316 81.0314 139.538 81.111 139.538 81.1959L139.22 82.5331C138.944 82.5012 138.318 82.4694 137.342 82.4375C136.365 82.3951 135.055 82.3739 133.41 82.3739L133.235 82.3579C132.746 82.3579 132.417 82.4588 132.248 82.6604C132.078 82.8514 131.988 83.0955 131.977 83.3927V83.6633C131.977 84.0135 132.073 84.2788 132.264 84.4592C132.465 84.629 132.794 84.7139 133.251 84.7139H136.784C137.464 84.7139 138.042 84.7829 138.52 84.9208C138.997 85.0588 139.363 85.3135 139.618 85.6849C139.873 86.0458 140 86.5817 140 87.2927V87.5474C140 88.3434 139.793 88.9854 139.379 89.4736C138.976 89.9617 138.27 90.2058 137.262 90.2058H131.977Z" fill="white"/>
</svg>
