<svg width="132" height="93" viewBox="0 0 132 93" fill="none" xmlns="http://www.w3.org/2000/svg">
<path d="M73.4098 41.6282C88.3099 45.3538 97.0519 55.3135 101.362 56.3205C105.673 57.3275 122.94 58.2487 125.756 60.8647C128.572 63.4807 125.882 65.3397 129.502 68.7031C133.507 80.0049 121.107 83.3864 121.107 83.3864L8.37962 82.4707C8.37962 82.4707 0.77261 83.1547 0.604138 77.7218C0.435619 72.289 0.316863 69.8484 0.716436 64.9559C1.11596 60.0634 3.09177 59.5133 4.18126 56.9762C5.27079 54.4391 15.8534 54.1636 17.9129 51.3418C19.9725 48.52 22.4244 44.0195 31.1625 42.4852C43.2317 40.3659 64.7671 39.4672 73.4098 41.6282Z" fill="url(#paint0_linear_446_180)"/>
<path d="M0 77.4C0.193825 83.6446 10.7813 82.5381 10.8274 82.534C10.8274 82.534 19.2448 76.0906 7.66526 76.3378C4.18555 76.248 0.657676 74.4047 0.657676 74.4047L0 77.4Z" fill="url(#paint1_linear_446_180)"/>
<path d="M130.188 71.4942C130.188 71.4942 130.299 73.0868 127.315 74.7137C123.617 76.7302 108.447 74.4045 108.447 74.4045L109.309 82.7769L121.413 83.3941C121.13 83.4712 137.307 82.539 130.188 71.4942Z" fill="url(#paint2_linear_446_180)"/>
<path d="M19.8215 59.5204C19.8215 59.5204 19.4583 56.6847 22.4371 53.2081C25.4159 49.7316 27.1547 47.4386 29.4455 46.8482C31.7362 46.2578 48.5025 43.938 49.6036 45.7224C50.7048 47.5068 52.1233 58.4621 52.1233 58.4621L19.8215 59.5204Z" fill="url(#paint3_linear_446_180)"/>
<path d="M29.7494 46.5484C31.6277 46.2686 45.8888 44.6105 49.5711 45.0836L50.5239 48.7492L19.8071 59.5188C19.8071 59.5188 19.6606 57.185 21.195 54.8841C23.773 51.0183 27.7857 46.7955 29.7494 46.5484Z" fill="url(#paint4_linear_446_180)"/>
<path d="M54.6187 45.72C55.0831 47.8371 56.7941 58.1587 56.7941 58.1587L93.048 57.9911C93.048 57.9911 81.6198 47.4893 72.8347 45.8271C64.0495 44.1649 54.3219 44.6008 54.6187 45.72Z" fill="url(#paint5_linear_446_180)"/>
<path d="M71.5952 45.0481C64.4391 44.0549 61.8154 44.2434 54.3142 44.9003L55.0366 47.9006C55.0366 47.9006 66.2008 45.711 76.6032 46.9771C76.6032 46.9771 73.9313 45.3724 71.5952 45.0481Z" fill="url(#paint6_linear_446_180)"/>
<path d="M124.921 60.3247C124.921 60.3247 119.047 58.4416 117.614 63.0852C116.248 67.5119 129.502 68.7031 129.502 68.7031C129.502 68.7031 128.525 62.1363 124.921 60.3247Z" fill="url(#paint7_linear_446_180)"/>
<path d="M17.8151 54.5034C17.8477 54.5034 17.8807 54.4988 17.9137 54.4888C19.2929 54.0721 20.4547 52.6192 21.8 50.9369C23.7644 48.4801 25.9914 45.6953 29.6225 45.0025C36.5867 43.6732 47.1428 42.7523 47.2487 42.743C47.4366 42.7266 47.5755 42.5614 47.5592 42.3739C47.5432 42.186 47.3843 42.0455 47.1901 42.0635C47.0839 42.0725 36.4925 42.9967 29.4946 44.3324C25.616 45.0727 23.2045 48.0881 21.2671 50.5109C19.9931 52.1043 18.8926 53.4802 17.7165 53.8359C17.536 53.8902 17.4341 54.0807 17.4887 54.2609C17.5333 54.4085 17.6685 54.5034 17.8151 54.5034Z" fill="white"/>
<path d="M7.02019 58.3697C7.14573 58.3697 7.26665 58.3001 7.32593 58.1802C7.89812 57.0267 10.4312 56.5038 12.8806 55.9982C13.7569 55.8173 14.6628 55.6305 15.4959 55.4123C15.6784 55.3643 15.7873 55.1781 15.7397 54.996C15.6918 54.8134 15.5056 54.7065 15.3233 54.7522C14.5073 54.966 13.6103 55.1512 12.7427 55.33C10.0128 55.8936 7.43446 56.4258 6.71505 57.8771C6.63112 58.0459 6.70007 58.2504 6.86891 58.334C6.91755 58.3583 6.9692 58.3697 7.02019 58.3697Z" fill="white"/>
<path d="M56.8315 81.806C56.8428 81.806 56.854 81.806 56.8652 81.806C57.0632 81.806 57.2217 81.6289 57.2192 81.4309C57.2172 81.2873 57.1312 81.1587 57.0085 81.103C56.3029 79.9672 55.3869 67.6887 54.9702 60.1204C54.9593 59.9226 54.7902 59.7686 54.5924 59.7807C54.3946 59.7915 54.2431 59.9599 54.254 60.1578C54.257 60.2111 54.5523 65.5596 54.9754 70.8265C55.8365 81.5469 56.3672 81.806 56.8315 81.806Z" fill="white"/>
<path d="M44.5775 82.4411C44.659 81.9645 44.7047 81.2784 44.7047 80.6572C44.7047 73.2209 38.6763 67.2158 31.2401 67.2158C23.8038 67.2158 17.7754 73.2094 17.7754 80.6457C17.7754 81.2668 17.8212 81.9645 17.9026 82.4411H44.5775Z" fill="url(#paint8_linear_446_180)"/>
<path d="M31.1357 91.307C37.1965 91.307 42.1097 86.3937 42.1097 80.3329C42.1097 74.2721 37.1965 69.3588 31.1357 69.3588C25.0749 69.3588 20.1616 74.2721 20.1616 80.3329C20.1616 86.3937 25.0749 91.307 31.1357 91.307Z" fill="url(#paint9_linear_446_180)"/>
<path d="M31.1356 89.2448C36.0577 89.2448 40.0477 85.2548 40.0477 80.3327C40.0477 75.4107 36.0577 71.4206 31.1356 71.4206C26.2136 71.4206 22.2236 75.4107 22.2236 80.3327C22.2236 85.2548 26.2136 89.2448 31.1356 89.2448Z" fill="url(#paint10_linear_446_180)"/>
<path d="M38.6215 83.5632C38.6009 83.5632 38.5798 83.5591 38.5597 83.5505C38.4788 83.5164 38.4411 83.4232 38.4753 83.3423C38.8783 82.3893 39.0828 81.3768 39.0828 80.3329C39.0828 76.0695 35.6144 72.6011 31.351 72.6011C30.0284 72.6011 28.7233 72.9407 27.5768 73.5833C27.4997 73.6262 27.4032 73.5987 27.3605 73.5223C27.3176 73.4458 27.3448 73.349 27.4214 73.3061C28.6153 72.637 29.9742 72.2834 31.351 72.2834C35.7896 72.2834 39.4006 75.8944 39.4006 80.3329C39.4006 81.4196 39.1877 82.4738 38.7679 83.4662C38.7422 83.5267 38.6834 83.5631 38.6215 83.5632Z" fill="#7D97F4"/>
<path d="M110.657 82.9181C110.738 82.4415 110.784 81.786 110.784 81.1649C110.784 73.7286 104.755 67.7387 97.3191 67.7387C89.8828 67.7387 83.8545 73.7093 83.8545 81.1456C83.8545 81.7668 83.9002 82.4415 83.9816 82.918L110.657 82.9181Z" fill="url(#paint11_linear_446_180)"/>
<path d="M97.2146 91.845C103.275 91.845 108.189 86.9318 108.189 80.871C108.189 74.8102 103.275 69.8969 97.2146 69.8969C91.1538 69.8969 86.2406 74.8102 86.2406 80.871C86.2406 86.9318 91.1538 91.845 97.2146 91.845Z" fill="url(#paint12_linear_446_180)"/>
<path d="M97.2146 89.7829C102.137 89.7829 106.127 85.7928 106.127 80.8708C106.127 75.9488 102.137 71.9587 97.2146 71.9587C92.2925 71.9587 88.3025 75.9488 88.3025 80.8708C88.3025 85.7928 92.2925 89.7829 97.2146 89.7829Z" fill="url(#paint13_linear_446_180)"/>
<path d="M104.7 84.101C104.68 84.101 104.659 84.097 104.639 84.0884C104.558 84.0543 104.52 83.961 104.554 83.8802C104.957 82.9272 105.162 81.9147 105.162 80.8708C105.162 76.6074 101.693 73.139 97.4299 73.139C96.1074 73.139 94.8022 73.4786 93.6558 74.1211C93.5788 74.1641 93.4821 74.1367 93.4395 74.0602C93.3965 73.9836 93.4238 73.8868 93.5003 73.8439C94.6942 73.1749 96.0531 72.8213 97.4299 72.8213C101.868 72.8213 105.479 76.4323 105.479 80.8708C105.479 81.9574 105.267 83.0116 104.847 84.004C104.821 84.0646 104.762 84.1009 104.7 84.101Z" fill="#7D97F4"/>
<path d="M87.1095 57.2265L84.3577 54.3418C83.211 53.1398 81.7677 52.3193 80.2005 51.9783L74.7578 50.7943C73.2642 50.4693 71.8346 51.5989 71.6711 53.2332L71.6327 53.6171C71.4662 55.2817 72.685 56.7295 74.2368 56.7105L81.2486 56.6245C82.2265 56.6126 83.1151 57.2362 83.5013 58.2054L83.6304 58.5296C83.8019 58.9599 84.1942 59.2386 84.6283 59.2386H86.3525C87.3278 59.2387 87.8089 57.9597 87.1095 57.2265Z" fill="url(#paint14_linear_446_180)"/>
<path d="M58.7284 60.5198H67.8215C68.5308 60.5198 69.0308 61.2802 68.7849 61.9979C68.3688 63.2122 67.3778 64.761 65.0225 64.9419C62.9042 65.1046 60.2342 63.8106 58.2203 62.5811C57.3074 62.0238 57.6794 60.5198 58.7284 60.5198Z" fill="url(#paint15_linear_446_180)"/>
<path d="M0.680395 64.9558L2.2703 65.2392C2.79928 65.3335 3.18452 65.7935 3.18452 66.3308V70.0827C3.18452 70.6934 2.68943 71.1885 2.07874 71.1885H0.49477L0.680395 64.9558Z" fill="url(#paint16_linear_446_180)"/>
<path d="M80.2575 31.7207L81.978 34.0792C84.9359 34.2756 87.3283 33.7368 89.24 32.8695C88.6247 30.1203 87.8215 28.4178 87.1405 27.3858C83.8056 30.7552 80.2575 31.7207 80.2575 31.7207Z" fill="url(#paint17_linear_446_180)"/>
<path d="M95.7748 26.4873L92.1716 18.1257C91.1556 22.3435 89.1881 25.3169 87.1405 27.3858C87.8215 28.4178 88.6247 30.1203 89.24 32.8695C94.0106 30.7051 95.7748 26.4873 95.7748 26.4873Z" fill="url(#paint18_linear_446_180)"/>
<path d="M99.5346 91.6435C97.0888 91.756 94.7213 91.6853 93.1406 91.6041C94.5798 90.5797 97.8955 88.351 100.67 87.4636L102.575 87.3496C102.575 87.3496 103.22 88.3312 103.45 90.5773C103.135 90.9711 102.212 91.5203 99.5346 91.6435Z" fill="url(#paint19_linear_446_180)"/>
<path d="M93.1209 91.618C93.1272 91.6135 93.1343 91.6087 93.1406 91.6041C94.7213 91.6853 97.0888 91.756 99.5346 91.6435C102.212 91.5203 103.135 90.9711 103.45 90.5773C103.461 90.6807 103.472 90.7834 103.48 90.8923C103.52 91.3853 103.154 91.818 102.661 91.8553C100.658 92.0068 95.6915 92.3498 93.2964 92.2241C92.9805 92.2076 92.8633 91.8016 93.1209 91.618Z" fill="url(#paint20_linear_446_180)"/>
<path d="M116.656 90.989C116.835 89.8408 117.122 88.1808 117.344 87.7565C117.692 87.0907 118.884 87.7565 118.884 87.7565C118.884 87.7565 119.721 88.1467 120.106 88.7969C120.351 89.2115 121.03 90.3908 121.49 91.1915C121.543 91.2836 121.565 91.3816 121.562 91.4766L116.79 91.6436C116.673 91.4563 116.618 91.2281 116.656 90.989Z" fill="url(#paint21_linear_446_180)"/>
<path d="M121.562 91.4766C121.554 91.7492 121.338 91.9963 121.033 92.0047L117.633 92.0982C117.274 92.1082 116.963 91.9216 116.79 91.6436L121.562 91.4766Z" fill="url(#paint22_linear_446_180)"/>
<path d="M88.4617 17.1355C91.5048 16.3383 97.118 15.09 101.587 15.3564C102.613 15.4176 103.435 16.229 103.493 17.2555C104.168 29.1565 105.091 39.7172 106.828 45.8618C102.923 47.4069 99.0525 48.1235 95.2337 47.5624C92.3728 41.4346 89.8715 34.3602 87.7344 26.3262C87.7344 26.3262 86.4806 19.9183 87.6981 17.7825C87.8879 17.4495 88.1377 17.2204 88.4617 17.1355Z" fill="url(#paint23_linear_446_180)"/>
<path d="M95.7813 8.79883C95.7813 8.79883 96.5496 13.3832 96.7788 15.5033C96.816 15.8477 96.6358 16.1736 96.3277 16.3321C95.4878 16.7645 93.6949 17.4608 91.7413 16.8218C91.4196 16.7165 91.2087 16.4053 91.2161 16.0669L91.3501 9.9467L95.7813 8.79883Z" fill="url(#paint24_linear_446_180)"/>
<path d="M90.7696 3.71942C90.7696 3.71942 89.287 7.12529 89.1874 8.91288C89.0878 10.7005 88.7026 11.8605 90.7696 12.2204C92.8366 12.5804 94.5778 11.5508 95.5211 9.77009C95.5211 9.77009 96.9991 7.02628 96.6676 5.90258C96.3361 4.77889 90.7696 3.71942 90.7696 3.71942Z" fill="url(#paint25_linear_446_180)"/>
<path d="M94.5535 8.48977C94.5535 8.48977 95.6301 6.2814 94.6841 5.89347C93.7381 5.50549 90.8429 5.51001 90.0344 4.18038C89.255 2.89858 91.3137 2.11121 92.3536 1.64788C92.4194 1.61857 91.1169 1.44953 91.1506 1.5132L90.9363 1.35401C90.9953 1.46565 91.6787 0.936529 91.7139 0.815229C91.7471 0.700197 92.5567 0.205434 92.6199 0.307082C92.8674 0.704723 91.8295 1.21824 93.6268 1.55C96.1772 2.02069 97.8632 3.05287 97.9047 4.81539C97.9073 4.92703 98.0267 4.98857 98.122 4.93046C98.3103 4.81572 97.5621 4.76228 97.9647 5.10087C98.2525 5.34295 98.4355 5.6258 98.4792 6.00233C98.5301 6.44172 98.2023 6.98224 97.8959 7.27136C97.715 7.44204 97.6168 7.66739 97.6218 7.91626C97.6269 8.17182 97.7755 8.37799 97.8058 8.62478C97.8449 8.94132 97.5304 9.15956 97.2897 9.29787C96.9532 9.49122 96.6198 9.69056 96.2985 9.90847C96.1184 10.0307 95.7579 10.4064 95.5217 10.346C95.4556 10.3291 95.4111 10.2689 95.4153 10.2008L95.5118 8.63883C95.5168 8.55806 95.4527 8.48982 95.3717 8.48982L94.5535 8.48977Z" fill="url(#paint26_linear_446_180)"/>
<path d="M94.7506 8.81667C94.7506 8.81667 95.3162 6.64109 96.2916 7.25108C97.267 7.86106 95.7854 9.68876 95.0012 9.77014L94.7506 8.81667Z" fill="url(#paint27_linear_446_180)"/>
<path d="M111.368 32.9857C112.873 37.2078 112.026 41.7344 112.026 41.7344L114.009 42.2634C114.009 42.2634 116.572 39.2154 115.986 32.4518C114.155 32.1724 112.44 32.6015 111.368 32.9857Z" fill="url(#paint28_linear_446_180)"/>
<path d="M115.986 32.4518C115.92 31.6913 115.816 30.8862 115.662 30.0307C114.322 22.5712 104.759 16.8332 102.508 15.5767C102.299 15.4598 102.045 15.6175 102.052 15.857L102.372 25.9973C107.698 26.7131 110.219 29.7607 111.368 32.9857C112.44 32.6015 114.155 32.1724 115.986 32.4518Z" fill="url(#paint29_linear_446_180)"/>
<path d="M75.3686 32.5037C75.0184 32.3423 74.7627 32.0326 74.6645 31.6597C74.4742 30.9371 74.3121 29.8029 75.0888 29.5926C76.2456 29.2793 77.8749 31.6061 77.8749 31.6061L78.5779 33.3128L79.383 33.8814C78.5454 33.9708 77.0605 33.3505 75.3686 32.5037Z" fill="url(#paint30_linear_446_180)"/>
<path d="M98.2235 6.76555C97.0113 6.43469 95.7997 6.09944 94.591 5.75501C92.5278 5.16703 90.4303 4.64761 88.3933 3.97439C87.9597 3.83108 87.5267 3.69314 87.0887 3.56383C86.8261 3.48631 86.4998 3.35469 86.3228 3.1358C86.13 2.89748 86.2113 2.53693 86.5432 2.5251C87.1138 2.5047 87.7044 2.58288 88.2642 2.68028C88.4254 2.70832 90.0204 3.00912 90.0161 3.03877C90.0165 3.03608 90.623 -1.15112 95.3605 0.30872C101.069 2.06757 98.9325 7.14317 98.2235 6.76555Z" fill="url(#paint31_linear_446_180)"/>
<path d="M95.2337 47.6868C95.3518 48.3035 99.5183 74.3841 99.7711 87.8794C99.7754 88.1057 99.9306 88.2955 100.139 88.3267C100.668 88.4058 101.698 88.5076 102.697 88.3088C102.834 88.2816 102.937 88.1608 102.946 88.0118C103.091 85.4968 104.262 64.2334 102.828 54.2237C102.828 54.2237 114.675 80.9811 116.471 88.3591C116.515 88.5386 116.668 88.6594 116.841 88.6496C117.348 88.6209 118.403 88.5229 119.241 88.192C119.542 88.0733 119.713 87.7347 119.637 87.401C118.633 82.9856 111.602 52.5643 106.828 45.8618L95.2337 47.6868Z" fill="url(#paint32_linear_446_180)"/>
<path d="M102.828 53.8092C102.868 53.8092 102.907 53.7944 102.937 53.7648C102.998 53.7049 102.999 53.6063 102.939 53.5449L101.353 51.9227C101.293 51.8612 101.195 51.8603 101.133 51.9203C101.072 51.9803 101.071 52.0789 101.131 52.1402L102.717 53.7624C102.748 53.7935 102.788 53.8092 102.828 53.8092Z" fill="url(#paint33_linear_446_180)"/>
<path d="M95.4035 47.9643L91.0706 37.7032L90.353 26.1252L99.2063 25.3241C101.148 28.7814 103.157 31.959 105.328 34.4573C105.419 34.5621 105.484 34.6856 105.519 34.82L108.289 45.5591L95.4035 47.9643Z" fill="url(#paint34_linear_446_180)"/>
<path d="M90.353 26.1252C89.4142 23.4083 89.0938 20.5829 88.4617 17.1355C89.3446 16.5778 89.6525 16.3153 90.502 16.506C91.0814 19.9635 91.6879 23.2376 92.4481 26.2533L90.353 26.1252Z" fill="url(#paint35_linear_446_180)"/>
<path d="M97.4065 25.4974C97.4195 22.1467 97.4615 18.7531 98.1588 15.3195C99.2595 15.1175 99.7343 15.0316 100.489 15.3195C99.6452 18.9774 99.6348 22.5738 99.2064 25.8509L97.4065 25.4974Z" fill="url(#paint36_linear_446_180)"/>
<path d="M123.783 48.5208L125.547 49.594C128.575 51.4355 130.024 54.5834 128.782 56.6252L127.306 59.0525C126.064 61.0942 122.603 61.2565 119.575 59.4149L117.81 58.3418C117.693 58.2707 117.578 58.1972 117.464 58.1211L66.5227 24.0469L69.7387 18.7586L123.428 48.3152C123.547 48.3812 123.666 48.4497 123.783 48.5208ZM122.149 50.8941C119.869 49.5077 117.354 49.4818 116.53 50.8365C115.706 52.1912 116.886 54.4133 119.166 55.7998C121.446 57.1862 123.962 57.212 124.786 55.8573C125.609 54.5027 124.429 52.2806 122.149 50.8941Z" fill="url(#paint37_linear_446_180)"/>
<path d="M53.4821 5.2197L63.7214 11.4467C64.4504 11.8901 64.9323 12.6467 65.0259 13.4948L65.5057 17.8424C65.6427 19.0833 64.9266 20.2608 63.7617 20.71L59.6808 22.2839C58.8847 22.5909 57.9912 22.511 57.2622 22.0677L47.023 15.8407C45.4785 14.9014 43.5171 16.2112 43.8347 17.9907C44.5946 22.2477 47.1703 26.2231 51.2444 28.7007C58.6078 33.1788 67.165 30.5177 71.4724 23.435C75.7797 16.3523 74.2061 7.5301 66.8427 3.052C62.7686 0.574401 58.0539 0.116109 53.9245 1.39975C52.1983 1.93636 51.9377 4.28045 53.4821 5.2197Z" fill="url(#paint38_linear_446_180)"/>
<path d="M52.8952 6.18473L63.1344 12.4117C63.8635 12.8551 64.3455 13.6117 64.439 14.4599L64.9188 18.8074C65.0558 20.0483 64.3397 21.2258 63.1749 21.6751L59.094 23.249C58.2978 23.556 57.4044 23.4762 56.6753 23.0328L46.4361 16.8058C44.8917 15.8666 42.9302 17.1763 43.2479 18.9558C44.0078 23.2128 46.5835 27.1883 50.6575 29.6658C58.0209 34.144 66.5781 31.4828 70.8855 24.4001C75.1928 17.3174 73.6192 8.49526 66.2557 4.01716C62.1817 1.53956 57.467 1.08128 53.3376 2.36491C51.6114 2.90139 51.3508 5.24548 52.8952 6.18473Z" fill="url(#paint39_linear_446_180)"/>
<path d="M123.314 49.2907L125.079 50.3639C128.107 52.2055 129.555 55.3534 128.314 57.3951L126.838 59.8224C125.596 61.8642 122.135 62.0264 119.106 60.1849L117.342 59.1117C117.225 59.0406 117.11 58.9671 116.996 58.8911L66.0546 24.8168L69.2706 19.5286L122.959 49.0852C123.079 49.1512 123.198 49.2197 123.314 49.2907ZM121.681 51.6641C119.401 50.2776 116.885 50.2518 116.062 51.6065C115.238 52.9611 116.418 55.1833 118.698 56.5697C120.978 57.9562 123.494 57.982 124.317 56.6273C125.141 55.2726 123.961 53.0506 121.681 51.6641Z" fill="url(#paint40_linear_446_180)"/>
<path d="M109.705 40.7427C109.705 40.7427 111.695 41.9359 111.761 43.1907C111.827 44.4455 110.971 47.0447 110.571 47.7523C110.133 48.5261 116.124 46.6001 114.009 40.7427H109.705Z" fill="url(#paint41_linear_446_180)"/>
<defs>
<linearGradient id="paint0_linear_446_180" x1="78.9689" y1="-207.921" x2="44.2035" y2="-43.8506" gradientUnits="userSpaceOnUse">
<stop stop-color="#FF928E"/>
<stop offset="1" stop-color="#FE7062"/>
</linearGradient>
<linearGradient id="paint1_linear_446_180" x1="131.526" y1="-725.696" x2="27.1431" y2="160.192" gradientUnits="userSpaceOnUse">
<stop stop-color="#E1473D"/>
<stop offset="1" stop-color="#E9605A"/>
</linearGradient>
<linearGradient id="paint2_linear_446_180" x1="96.6814" y1="-390.677" x2="12.3316" y2="216.892" gradientUnits="userSpaceOnUse">
<stop stop-color="#E1473D"/>
<stop offset="1" stop-color="#E9605A"/>
</linearGradient>
<linearGradient id="paint3_linear_446_180" x1="127.182" y1="-160.869" x2="-55.584" y2="138.766" gradientUnits="userSpaceOnUse">
<stop stop-color="#09005D"/>
<stop offset="1" stop-color="#1A0F91"/>
</linearGradient>
<linearGradient id="paint4_linear_446_180" x1="320.984" y1="-1213.19" x2="119.821" y2="-755.93" gradientUnits="userSpaceOnUse">
<stop stop-color="#4F52FF"/>
<stop offset="1" stop-color="#4042E2"/>
</linearGradient>
<linearGradient id="paint5_linear_446_180" x1="92.8176" y1="-88.709" x2="-121.931" y2="186.349" gradientUnits="userSpaceOnUse">
<stop stop-color="#09005D"/>
<stop offset="1" stop-color="#1A0F91"/>
</linearGradient>
<linearGradient id="paint6_linear_446_180" x1="390.584" y1="-4752.37" x2="-688.04" y2="-3927.23" gradientUnits="userSpaceOnUse">
<stop stop-color="#4F52FF"/>
<stop offset="1" stop-color="#4042E2"/>
</linearGradient>
<linearGradient id="paint7_linear_446_180" x1="115.581" y1="-407.013" x2="35.4489" y2="427.189" gradientUnits="userSpaceOnUse">
<stop stop-color="#E1473D"/>
<stop offset="1" stop-color="#E9605A"/>
</linearGradient>
<linearGradient id="paint8_linear_446_180" x1="99.6419" y1="-332.816" x2="40.4623" y2="144.024" gradientUnits="userSpaceOnUse">
<stop stop-color="#E1473D"/>
<stop offset="1" stop-color="#E9605A"/>
</linearGradient>
<linearGradient id="paint9_linear_446_180" x1="-0.000170051" y1="46.1255" x2="132" y2="46.1255" gradientUnits="userSpaceOnUse">
<stop stop-color="#09005D"/>
<stop offset="1" stop-color="#1A0F91"/>
</linearGradient>
<linearGradient id="paint10_linear_446_180" x1="253" y1="-395.219" x2="106.761" y2="311.424" gradientUnits="userSpaceOnUse">
<stop stop-color="#4F52FF"/>
<stop offset="1" stop-color="#4042E2"/>
</linearGradient>
<linearGradient id="paint11_linear_446_180" x1="96.6488" y1="-297.053" x2="37.1157" y2="181.188" gradientUnits="userSpaceOnUse">
<stop stop-color="#E1473D"/>
<stop offset="1" stop-color="#E9605A"/>
</linearGradient>
<linearGradient id="paint12_linear_446_180" x1="-0.000113367" y1="46.1254" x2="132" y2="46.1254" gradientUnits="userSpaceOnUse">
<stop stop-color="#09005D"/>
<stop offset="1" stop-color="#1A0F91"/>
</linearGradient>
<linearGradient id="paint13_linear_446_180" x1="220.04" y1="-317.43" x2="73.8012" y2="389.213" gradientUnits="userSpaceOnUse">
<stop stop-color="#4F52FF"/>
<stop offset="1" stop-color="#4042E2"/>
</linearGradient>
<linearGradient id="paint14_linear_446_180" x1="98.7517" y1="-367.884" x2="-12.6291" y2="484.821" gradientUnits="userSpaceOnUse">
<stop stop-color="#FF928E"/>
<stop offset="1" stop-color="#FE7062"/>
</linearGradient>
<linearGradient id="paint15_linear_446_180" x1="121.106" y1="-940.772" x2="-163.053" y2="670.968" gradientUnits="userSpaceOnUse">
<stop stop-color="#E1473D"/>
<stop offset="1" stop-color="#E9605A"/>
</linearGradient>
<linearGradient id="paint16_linear_446_180" x1="357.832" y1="-824.606" x2="322.049" y2="357.086" gradientUnits="userSpaceOnUse">
<stop stop-color="#E1473D"/>
<stop offset="1" stop-color="#E9605A"/>
</linearGradient>
<linearGradient id="paint17_linear_446_180" x1="51.4351" y1="-0.167275" x2="127.377" y2="404.329" gradientUnits="userSpaceOnUse">
<stop stop-color="#FEBBBA"/>
<stop offset="1" stop-color="#FF928E"/>
</linearGradient>
<linearGradient id="paint18_linear_446_180" x1="819.61" y1="-214.523" x2="720.948" y2="-12.338" gradientUnits="userSpaceOnUse">
<stop stop-color="#FF928E"/>
<stop offset="1" stop-color="#FE7062"/>
</linearGradient>
<linearGradient id="paint19_linear_446_180" x1="132.425" y1="46.1255" x2="-2.05688" y2="46.1255" gradientUnits="userSpaceOnUse">
<stop stop-color="#4F52FF"/>
<stop offset="1" stop-color="#4042E2"/>
</linearGradient>
<linearGradient id="paint20_linear_446_180" x1="132" y1="46.1266" x2="0.00014162" y2="46.1266" gradientUnits="userSpaceOnUse">
<stop stop-color="#09005D"/>
<stop offset="1" stop-color="#1A0F91"/>
</linearGradient>
<linearGradient id="paint21_linear_446_180" x1="131.999" y1="46.1245" x2="6.29422e-05" y2="46.1245" gradientUnits="userSpaceOnUse">
<stop stop-color="#4F52FF"/>
<stop offset="1" stop-color="#4042E2"/>
</linearGradient>
<linearGradient id="paint22_linear_446_180" x1="132.001" y1="46.1233" x2="0.00130605" y2="46.1233" gradientUnits="userSpaceOnUse">
<stop stop-color="#09005D"/>
<stop offset="1" stop-color="#1A0F91"/>
</linearGradient>
<linearGradient id="paint23_linear_446_180" x1="1796.37" y1="-567.506" x2="1750.57" y2="-476.841" gradientUnits="userSpaceOnUse">
<stop stop-color="#FF928E"/>
<stop offset="1" stop-color="#FE7062"/>
</linearGradient>
<linearGradient id="paint24_linear_446_180" x1="82.3799" y1="122.746" x2="75.3813" y2="30.898" gradientUnits="userSpaceOnUse">
<stop stop-color="#FEBBBA"/>
<stop offset="1" stop-color="#FF928E"/>
</linearGradient>
<linearGradient id="paint25_linear_446_180" x1="23.639" y1="32.2612" x2="116.128" y2="146.144" gradientUnits="userSpaceOnUse">
<stop stop-color="#FEBBBA"/>
<stop offset="1" stop-color="#FF928E"/>
</linearGradient>
<linearGradient id="paint26_linear_446_180" x1="106.729" y1="14.958" x2="51.1587" y2="134.392" gradientUnits="userSpaceOnUse">
<stop stop-color="#09005D"/>
<stop offset="1" stop-color="#1A0F91"/>
</linearGradient>
<linearGradient id="paint27_linear_446_180" x1="-229.648" y1="-63.204" x2="51.7463" y2="371.304" gradientUnits="userSpaceOnUse">
<stop stop-color="#FEBBBA"/>
<stop offset="1" stop-color="#FF928E"/>
</linearGradient>
<linearGradient id="paint28_linear_446_180" x1="-622.746" y1="-990.296" x2="-635.793" y2="-1165.95" gradientUnits="userSpaceOnUse">
<stop stop-color="#FEBBBA"/>
<stop offset="1" stop-color="#FF928E"/>
</linearGradient>
<linearGradient id="paint29_linear_446_180" x1="2404.03" y1="-1049.24" x2="2306.48" y2="-902.627" gradientUnits="userSpaceOnUse">
<stop stop-color="#FF928E"/>
<stop offset="1" stop-color="#FE7062"/>
</linearGradient>
<linearGradient id="paint30_linear_446_180" x1="35.0562" y1="-60.4208" x2="135.909" y2="575.38" gradientUnits="userSpaceOnUse">
<stop stop-color="#FEBBBA"/>
<stop offset="1" stop-color="#FF928E"/>
</linearGradient>
<linearGradient id="paint31_linear_446_180" x1="142.954" y1="-91.6803" x2="331.843" y2="-296.632" gradientUnits="userSpaceOnUse">
<stop stop-color="#4F52FF"/>
<stop offset="1" stop-color="#4042E2"/>
</linearGradient>
<linearGradient id="paint32_linear_446_180" x1="34.1472" y1="87.4207" x2="51.8513" y2="-53.6603" gradientUnits="userSpaceOnUse">
<stop stop-color="#09005D"/>
<stop offset="1" stop-color="#1A0F91"/>
</linearGradient>
<linearGradient id="paint33_linear_446_180" x1="-352.63" y1="-325.105" x2="91.7406" y2="512.491" gradientUnits="userSpaceOnUse">
<stop stop-color="#5AB6FF"/>
<stop offset="1" stop-color="#2F68E3"/>
</linearGradient>
<linearGradient id="paint34_linear_446_180" x1="112.148" y1="-75.4059" x2="86.9043" y2="135.625" gradientUnits="userSpaceOnUse">
<stop stop-color="#09005D"/>
<stop offset="1" stop-color="#1A0F91"/>
</linearGradient>
<linearGradient id="paint35_linear_446_180" x1="193.5" y1="-118.238" x2="162.527" y2="386.529" gradientUnits="userSpaceOnUse">
<stop stop-color="#09005D"/>
<stop offset="1" stop-color="#1A0F91"/>
</linearGradient>
<linearGradient id="paint36_linear_446_180" x1="191.644" y1="-80.5381" x2="171.801" y2="376.388" gradientUnits="userSpaceOnUse">
<stop stop-color="#09005D"/>
<stop offset="1" stop-color="#1A0F91"/>
</linearGradient>
<linearGradient id="paint37_linear_446_180" x1="116.84" y1="-37.2356" x2="91.5796" y2="0.898515" gradientUnits="userSpaceOnUse">
<stop stop-color="#4F52FF"/>
<stop offset="1" stop-color="#4042E2"/>
</linearGradient>
<linearGradient id="paint38_linear_446_180" x1="142.758" y1="-108.885" x2="129.592" y2="-52.0783" gradientUnits="userSpaceOnUse">
<stop stop-color="#4F52FF"/>
<stop offset="1" stop-color="#4042E2"/>
</linearGradient>
<linearGradient id="paint39_linear_446_180" x1="224.749" y1="74.6633" x2="425.256" y2="149.192" gradientUnits="userSpaceOnUse">
<stop stop-color="#4F52FF"/>
<stop offset="1" stop-color="#4042E2"/>
</linearGradient>
<linearGradient id="paint40_linear_446_180" x1="92.5996" y1="56.0915" x2="219.077" y2="79.1182" gradientUnits="userSpaceOnUse">
<stop stop-color="#4F52FF"/>
<stop offset="1" stop-color="#4042E2"/>
</linearGradient>
<linearGradient id="paint41_linear_446_180" x1="108.012" y1="38.1325" x2="120.052" y2="55.5228" gradientUnits="userSpaceOnUse">
<stop stop-color="#FEBBBA"/>
<stop offset="1" stop-color="#FF928E"/>
</linearGradient>
</defs>
</svg>
