<svg width="29" height="23" viewBox="0 0 29 23" fill="none" xmlns="http://www.w3.org/2000/svg">
<path d="M3.36115 0.109842C3.11401 0.26362 2.96572 0.598637 2.96572 1.02153C2.96572 1.20277 2.94925 1.65861 2.92728 2.02109L2.89433 2.69112H2.55382C1.93321 2.69112 1.75747 2.95474 1.75747 3.87192V4.44859H1.29613C0.774384 4.44859 0.532732 4.51449 0.313049 4.7177C0.0219683 4.98681 0 5.07468 0 6.12367C0 7.2111 0.0274604 7.31545 0.36797 7.55161C0.483303 7.6285 0.692002 7.70539 0.834797 7.72187L1.09842 7.76031L1.12588 21.6223L1.29064 21.886C1.41147 22.0837 1.53778 22.199 1.75197 22.3088L2.04305 22.4626H14.0817C25.6865 22.4626 26.1203 22.4571 26.3345 22.3583C26.4554 22.3033 26.6311 22.1715 26.73 22.0727C27.0979 21.6827 27.076 22.188 27.076 14.6089V7.74384L27.2297 7.73834C27.5263 7.73285 27.8558 7.55161 28.0261 7.30447C28.1085 7.18914 28.1195 7.01888 28.1195 6.12916C28.1195 4.91541 28.092 4.82754 27.6142 4.59138C27.3725 4.47056 27.2572 4.44859 26.8453 4.44859H26.362V3.87192C26.362 2.94925 26.1863 2.69112 25.5656 2.69112H25.2196L25.1867 1.76845C25.1428 0.620605 25.1263 0.538224 24.9505 0.329525C24.6979 0.0274604 24.5881 0 23.605 0C22.8141 0 22.6878 0.0109842 22.534 0.109842C22.199 0.313049 22.1386 0.532732 22.1001 1.66959L22.0617 2.69112H21.7212C21.4576 2.69112 21.3477 2.71858 21.2324 2.80645C20.9743 3.00966 20.9248 3.17992 20.9248 3.84446V4.44859H7.19463V3.84446C7.19463 3.17992 7.1452 3.00966 6.88707 2.80645C6.77174 2.71858 6.6619 2.69112 6.39828 2.69112H6.05777L6.01932 1.66959C5.98637 0.752415 5.96989 0.620605 5.86554 0.428382C5.64586 0.0384446 5.52504 0 4.47056 0C3.63576 0 3.52592 0.0109842 3.36115 0.109842ZM5.16256 1.52131C5.16256 1.85083 5.17903 2.24626 5.19551 2.40004L5.23395 2.69112H3.77306L3.81151 2.40004C3.82798 2.24626 3.84446 1.85083 3.84446 1.52131V0.933654H5.16256V1.52131ZM24.3299 2.69112H23.0118V0.933654H24.3299V2.69112ZM6.3159 4.44859H2.6362V3.56985H6.3159V4.44859ZM25.4833 4.44859H21.8036V3.56985H25.4833V4.44859ZM27.2133 6.83764H0.906194L0.889717 6.18409C0.884225 5.82161 0.889717 5.49208 0.900702 5.45364C0.92267 5.39323 3.27877 5.38224 14.0707 5.39323L27.2133 5.4097V6.83764ZM26.1423 21.3148L26.005 21.4466L25.8732 21.5839H2.24626L2.11445 21.4466L1.97715 21.3148V7.74384H26.1423V21.3148Z" fill="#144FAB"/>
<path d="M5.34928 8.46878C5.15157 8.56215 5.10763 8.75437 5.10763 9.5013V10.2153H3.61379L3.45452 10.3745C3.2568 10.5723 3.25131 10.759 3.43804 10.9787L3.58083 11.1489H5.10763V11.8629C5.10763 12.2638 5.13509 12.6318 5.16805 12.7032C5.29436 12.9778 5.68979 13.0437 5.90398 12.824C6.03579 12.6977 6.04129 12.6647 6.04129 11.9178V11.1489H6.80469C7.47472 11.1489 7.58456 11.1379 7.6944 11.0446C7.79875 10.9622 7.82621 10.8853 7.82621 10.6876C7.82621 10.2757 7.7658 10.2482 6.83764 10.2263L6.04129 10.2098V8.68847L5.87103 8.54567C5.69529 8.39739 5.54151 8.37542 5.34928 8.46878Z" fill="#144FAB"/>
<path d="M15.3614 9.18267C15.2845 9.25407 14.2465 10.6161 13.0492 12.2088C10.6711 15.3777 10.7261 15.2899 11.0336 15.6029L11.1929 15.7622H12.1924C13.1151 15.7622 13.1865 15.7677 13.1591 15.8556C12.9339 16.6354 12.1924 19.6451 12.1924 19.7714C12.1924 20.1009 12.5439 20.3041 12.835 20.1394C12.9009 20.1064 14.0213 18.7059 15.3229 17.0309C17.8877 13.7191 17.8383 13.8015 17.5472 13.4885L17.4154 13.3457H15.5316L15.5646 13.1919C15.647 12.791 16.1467 9.58908 16.1467 9.45178C16.1467 9.0893 15.647 8.91905 15.3614 9.18267ZM14.8012 12.5658C14.576 13.9059 14.576 13.9498 14.7133 14.1201C14.8122 14.2464 14.8616 14.2519 15.5591 14.2793L16.295 14.3068L14.9989 15.9874C14.2849 16.9155 13.6973 17.6679 13.6863 17.657C13.6753 17.6515 13.7961 17.1462 13.9499 16.5421C14.0982 15.9324 14.2245 15.3613 14.2245 15.2734C14.2245 15.1635 14.1806 15.0757 14.0817 14.9988C13.9499 14.8944 13.862 14.8835 13.1426 14.8835C12.7032 14.8835 12.3572 14.8615 12.3682 14.8395C12.4121 14.7187 14.9659 11.3301 14.9824 11.3685C14.9879 11.3905 14.911 11.9287 14.8012 12.5658Z" fill="#144FAB"/>
<path d="M20.3756 10.3745C20.1724 10.5722 20.1669 10.7589 20.3537 10.9786L20.4965 11.1489H22.4901C24.3684 11.1489 24.4892 11.1434 24.61 11.0445C24.7144 10.9621 24.7419 10.8852 24.7419 10.6875C24.7419 10.2262 24.8242 10.2427 22.5395 10.2262L20.5349 10.2097L20.3756 10.3745Z" fill="#144FAB"/>
</svg>
