<svg width="33" height="33" viewBox="0 0 33 33" fill="none" xmlns="http://www.w3.org/2000/svg">
<path d="M14.3489 0.0778391C10.6683 0.552522 7.32492 2.18296 4.75199 4.75588C2.29602 7.21873 0.686227 10.3833 0.12899 13.8918C-0.0429967 14.9925 -0.0429967 17.7306 0.12899 18.79C0.940768 23.7226 3.63752 27.7815 7.78584 30.3269C9.21677 31.2074 10.6615 31.8128 12.3538 32.2394C13.8398 32.6108 14.5002 32.6865 16.3439 32.6865C18.1876 32.6865 18.8411 32.6108 20.3409 32.2394C27.0484 30.5608 31.9465 24.8783 32.6551 17.9713C32.7583 16.9532 32.7033 14.7793 32.5519 13.8712C31.9397 10.2319 30.3987 7.21873 27.8533 4.70772C26.9933 3.85467 26.4223 3.37998 25.4523 2.73331C23.4848 1.40558 21.2558 0.531884 18.8549 0.146634C17.9055 -0.011594 15.3051 -0.0528708 14.3489 0.0778391ZM18.7517 1.17167C23.1064 1.92842 26.7319 4.27432 29.1535 7.92043C30.3505 9.72285 31.1348 11.7248 31.52 13.9744C31.6714 14.8549 31.7195 16.8293 31.6232 17.8269C30.8802 25.1397 25.1427 30.8772 17.823 31.6271C16.8255 31.7234 14.8579 31.6752 13.9636 31.5239C12.4364 31.2625 10.9917 30.8015 9.63642 30.1411C5.15788 27.9534 2.11716 23.8946 1.20219 18.8932C1.02332 17.9301 0.954526 15.88 1.0646 14.8343C1.68375 8.89732 5.6532 3.84091 11.2393 1.87338C12.34 1.48813 13.2963 1.26799 14.8648 1.04784C15.367 0.97905 18.1257 1.06848 18.7517 1.17167Z" fill="#144FAB"/>
<path d="M14.5621 3.11169C11.5352 3.53821 8.83152 4.90723 6.74016 7.07426C4.31859 9.57839 2.99773 12.853 2.99773 16.3615C2.99773 22.498 7.16669 27.8227 13.1518 29.3087C14.3213 29.5976 14.8579 29.6596 16.3783 29.6527C17.878 29.6527 18.4628 29.5839 19.6804 29.2743C21.3934 28.8409 23.1064 28.0016 24.5649 26.8803C25.1565 26.4331 26.1953 25.4149 26.6837 24.8095C28.7476 22.2504 29.7726 19.2234 29.6694 15.9694C29.6006 13.8987 29.2223 12.3371 28.3486 10.5346C27.0071 7.76221 24.9295 5.69149 22.1571 4.34311C20.9256 3.7446 19.9419 3.42814 18.5109 3.16672C17.6304 3.0085 15.4771 2.98098 14.5621 3.11169ZM17.2795 4.26056C18.0019 4.62517 18.4903 5.40943 18.4972 6.19369C18.5041 6.96419 18.0087 7.76221 17.2795 8.14746C16.9768 8.30569 16.8461 8.3332 16.3439 8.3332C15.8417 8.3332 15.711 8.30569 15.4152 8.14746C14.9886 7.92732 14.5208 7.43199 14.3282 7.00547C14.115 6.51702 14.1356 5.80844 14.3695 5.32688C14.6584 4.74212 15.1675 4.30184 15.7935 4.09545C16.1306 3.98538 16.908 4.06793 17.2795 4.26056ZM13.482 4.7834C13.3445 5.0517 13.2275 5.40943 13.2 5.62269C13.1518 6.04234 13.0762 6.23497 12.9523 6.23497C12.9042 6.23497 12.5464 6.37256 12.1474 6.54454C11.4939 6.8266 11.4182 6.84036 11.2875 6.75093C10.8334 6.41383 10.5514 6.26248 10.1386 6.13177L9.68457 5.98731L10.2556 5.66397C11.0536 5.20305 12.1061 4.75588 12.9248 4.5151C13.3101 4.40503 13.6471 4.31559 13.6678 4.31559C13.6953 4.30872 13.6059 4.52198 13.482 4.7834ZM20.0932 4.63205C20.8981 4.89347 21.9713 5.36815 22.6249 5.76716L23.0239 6.01482L22.7693 6.0561C22.4047 6.12489 21.8544 6.38631 21.5448 6.64085C21.3934 6.75781 21.2421 6.84724 21.2008 6.8266C21.1595 6.80596 20.788 6.65461 20.3753 6.48263C19.9625 6.31064 19.5979 6.13177 19.5704 6.08362C19.536 6.03546 19.5085 5.89787 19.5085 5.78092C19.5085 5.5195 19.2814 4.85219 19.0888 4.54262L18.9443 4.30184L19.137 4.34999C19.247 4.37063 19.6804 4.50134 20.0932 4.63205ZM10.0629 7.21185C10.8747 7.59022 11.3632 8.402 11.3081 9.29633C11.1912 11.0988 9.07918 11.9656 7.72392 10.7685C7.25612 10.3626 7.02222 9.83981 7.02222 9.19314C7.02222 8.56711 7.20108 8.1337 7.62761 7.69341C8.28804 7.00547 9.23053 6.81972 10.0629 7.21185ZM24.3654 7.19121C24.8057 7.39072 25.3078 7.88604 25.5074 8.32632C25.7413 8.84916 25.7275 9.57839 25.473 10.1012C25.1221 10.8236 24.4686 11.257 23.6568 11.312C22.9482 11.3602 22.5492 11.2019 22.0195 10.6722C21.5448 10.1975 21.3659 9.79165 21.3659 9.19314C21.3659 8.69094 21.4622 8.37448 21.7305 7.98235C22.3359 7.0949 23.4022 6.77156 24.3654 7.19121ZM13.9361 8.31945C14.0874 8.49143 14.1906 8.64966 14.1631 8.66342C14.1287 8.67718 13.9361 8.74597 13.7297 8.81477C13.5233 8.88356 13.1449 9.04179 12.8904 9.16562C12.6359 9.29633 12.4088 9.39952 12.3882 9.39952C12.3676 9.39952 12.3538 9.23441 12.3538 9.02803C12.3538 8.82165 12.2919 8.45016 12.2093 8.19561C12.1337 7.94107 12.0786 7.72093 12.0993 7.70717C12.113 7.69341 12.3882 7.56958 12.7047 7.44575L13.2825 7.21185L13.4683 7.60398C13.5715 7.82412 13.7847 8.14058 13.9361 8.31945ZM20.3202 7.57646C20.4785 7.63838 20.6092 7.71405 20.6092 7.74157C20.6092 7.76221 20.5473 7.98235 20.4716 8.21625C20.3959 8.45703 20.334 8.82165 20.334 9.02803C20.334 9.23441 20.3202 9.39952 20.2996 9.39952C20.279 9.39952 20.0519 9.29633 19.7974 9.16562C19.5429 9.04179 19.1645 8.88356 18.9581 8.81477C18.7517 8.74597 18.5591 8.67718 18.5247 8.66342C18.4972 8.64966 18.6004 8.49143 18.7517 8.31257C18.9099 8.14058 19.1163 7.81724 19.2195 7.60398L19.4053 7.21185L19.7148 7.33568C19.8868 7.40448 20.1551 7.51455 20.3202 7.57646ZM17.7886 9.56463C21.5723 10.459 23.9113 14.0638 23.1202 17.7718C22.3772 21.2872 18.9168 23.7432 15.4289 23.2204C13.5715 22.9452 11.9342 21.9889 10.8403 20.5305C10.2005 19.6774 9.80152 18.8106 9.52635 17.6549C9.4094 17.1733 9.4094 15.6186 9.52635 15.0751C9.82904 13.6304 10.462 12.454 11.4526 11.4565C12.457 10.4521 13.7503 9.77101 15.0712 9.54399C15.2982 9.50271 15.5596 9.45456 15.656 9.4408C15.9862 9.37888 17.3483 9.46144 17.7886 9.56463ZM6.27924 10.569C6.35491 10.741 6.52002 11.0024 6.63697 11.1469C6.75392 11.2983 6.84335 11.4496 6.82271 11.4909C6.80208 11.5322 6.65073 11.9036 6.47874 12.3164C6.30675 12.7292 6.12789 13.0938 6.07973 13.1144C6.03158 13.142 5.82519 13.1832 5.61881 13.2039C5.40554 13.2314 5.04781 13.3483 4.77263 13.4859C4.40802 13.6717 4.30483 13.6992 4.33235 13.6098C4.35298 13.541 4.42866 13.252 4.51121 12.9562C4.75887 12.0619 5.10973 11.2363 5.66696 10.2457L5.9903 9.6747L6.06597 9.97052C6.10725 10.1287 6.20356 10.397 6.27924 10.569ZM27.4886 11.1538C27.7707 11.7523 28.2041 12.97 28.3417 13.5341L28.383 13.7198L27.9083 13.4859C27.64 13.3483 27.2823 13.2314 27.069 13.2039C26.8626 13.1832 26.6562 13.142 26.6081 13.1144C26.5599 13.0938 26.381 12.7292 26.2091 12.3164C26.0371 11.9036 25.8857 11.5322 25.8651 11.4909C25.8444 11.4496 25.927 11.3051 26.0371 11.1607C26.2985 10.8373 26.5668 10.2732 26.6287 9.92924L26.6769 9.66782L26.9245 10.0668C27.0552 10.287 27.3098 10.7754 27.4886 11.1538ZM8.21237 12.2201C8.45315 12.2958 8.81776 12.3577 9.02415 12.3577C9.23053 12.3577 9.39564 12.3715 9.39564 12.3921C9.39564 12.4127 9.29244 12.6398 9.16173 12.8943C9.0379 13.1488 8.87968 13.5272 8.81088 13.7336C8.74209 13.94 8.67329 14.1326 8.65953 14.167C8.64577 14.1945 8.48755 14.0913 8.31556 13.94C8.13669 13.7886 7.82024 13.5754 7.60009 13.4722L7.20796 13.2864L7.44875 12.681C7.57946 12.3508 7.71017 12.0825 7.73768 12.0825C7.75832 12.0825 7.97847 12.1444 8.21237 12.2201ZM25.2391 12.681L25.4798 13.2864L25.0877 13.4722C24.8676 13.5754 24.5511 13.7886 24.3722 13.94C24.2003 14.0913 24.042 14.1945 24.0283 14.167C24.0145 14.1326 23.9457 13.94 23.8769 13.7336C23.8081 13.5272 23.6499 13.1488 23.5261 12.8943C23.3954 12.6398 23.2922 12.4127 23.2922 12.3921C23.2922 12.3715 23.471 12.3577 23.6912 12.3508C23.9044 12.3508 24.2553 12.2958 24.4617 12.2201C24.6681 12.1513 24.8744 12.0963 24.9157 12.0894C24.9639 12.0825 25.1083 12.3508 25.2391 12.681ZM6.58881 14.222C7.0635 14.3252 7.27676 14.4353 7.65513 14.7861C8.52882 15.591 8.59074 16.905 7.79272 17.7718C7.43499 18.1571 7.17357 18.3153 6.65073 18.446C6.29987 18.5423 6.16228 18.5423 5.83207 18.4804C5.61881 18.4323 5.35051 18.3497 5.24044 18.2947C4.91022 18.1227 4.44242 17.6411 4.24979 17.2765C4.09156 16.9807 4.06405 16.85 4.06405 16.3478C4.06405 15.8456 4.09156 15.7149 4.24979 15.4191C4.42866 15.0682 4.89646 14.5866 5.20604 14.4147C5.35739 14.3321 5.9559 14.167 6.14165 14.1532C6.1898 14.1464 6.38931 14.1808 6.58881 14.222ZM26.8832 14.222C27.0828 14.2633 27.3373 14.3459 27.4474 14.4009C27.7776 14.5729 28.2454 15.0544 28.438 15.4191C28.5962 15.7149 28.6238 15.8456 28.6238 16.3478C28.6238 16.85 28.5962 16.9807 28.438 17.2765C27.984 18.1571 27.0002 18.6593 26.1196 18.4735C25.9064 18.4323 25.6449 18.3497 25.5349 18.2947C25.2047 18.1227 24.7369 17.6411 24.5442 17.2765C24.386 16.9807 24.3585 16.85 24.3585 16.3478C24.3585 15.8456 24.386 15.7149 24.5442 15.4191C24.8538 14.8205 25.473 14.339 26.0646 14.2151C26.4705 14.1395 26.4774 14.1395 26.8832 14.222ZM8.81088 18.962C8.87968 19.1684 9.0379 19.5467 9.16173 19.8013C9.29244 20.0558 9.39564 20.2828 9.39564 20.3035C9.39564 20.3241 9.23053 20.3379 9.02415 20.3379C8.81776 20.3379 8.44627 20.3998 8.19173 20.4823C7.93719 20.558 7.71705 20.6131 7.70329 20.5924C7.68953 20.5787 7.5657 20.3035 7.44187 19.987L7.20796 19.4091L7.60697 19.2234C7.82024 19.1202 8.13669 18.9138 8.3018 18.7625C8.46691 18.6111 8.62514 18.5148 8.64577 18.5355C8.67329 18.563 8.74209 18.7556 8.81088 18.962ZM25.0877 19.2234L25.4798 19.4091L25.2459 19.987C25.1221 20.3035 24.9983 20.5787 24.9845 20.5924C24.9708 20.6131 24.7506 20.558 24.4961 20.4823C24.2415 20.3998 23.87 20.3379 23.6637 20.3379C23.4573 20.3379 23.2922 20.3241 23.2922 20.3035C23.2922 20.2828 23.3954 20.0558 23.5261 19.8013C23.6499 19.5467 23.8081 19.1684 23.8769 18.962C23.9457 18.7556 24.0145 18.563 24.0283 18.5286C24.042 18.5011 24.2003 18.6042 24.3722 18.7556C24.5511 18.9069 24.8676 19.1202 25.0877 19.2234ZM5.17164 19.3748C5.38491 19.4504 5.66008 19.5123 5.77703 19.5123C5.89399 19.5123 6.03158 19.5399 6.07973 19.5743C6.12789 19.6018 6.30675 19.9664 6.47874 20.3792C6.65073 20.7919 6.80208 21.1634 6.82271 21.2047C6.84335 21.246 6.75392 21.3973 6.63697 21.5487C6.38243 21.8582 6.12101 22.4086 6.05221 22.7732L6.01094 23.0277L5.76328 22.6287C5.23356 21.755 4.58689 20.1659 4.34611 19.1408L4.29795 18.9482L4.53873 19.0927C4.66256 19.1752 4.9515 19.2991 5.17164 19.3748ZM28.3417 19.1477C28.1078 20.159 27.4542 21.755 26.9245 22.6287L26.6769 23.0277L26.6356 22.7732C26.5668 22.4086 26.3054 21.8582 26.0508 21.5487C25.9339 21.3973 25.8444 21.246 25.8651 21.2047C25.8857 21.1634 26.0371 20.7919 26.2091 20.3792C26.381 19.9664 26.5599 19.6018 26.6081 19.5743C26.6562 19.5399 26.7938 19.5123 26.9108 19.5123C27.1722 19.5123 27.8464 19.2853 28.1353 19.0996C28.4036 18.9276 28.3967 18.9276 28.3417 19.1477ZM9.9116 21.4867C10.4276 21.6725 11.0536 22.3123 11.2118 22.842C11.542 23.9014 11.088 24.9746 10.1042 25.4631C9.5745 25.7314 8.84528 25.7451 8.32932 25.5112C7.05662 24.9265 6.60945 23.3236 7.42123 22.2504C7.66889 21.9202 8.19173 21.5418 8.52882 21.4455C8.88656 21.3423 9.54698 21.3629 9.9116 21.4867ZM24.2828 21.5074C24.7781 21.7 25.2391 22.1128 25.473 22.5943C25.6312 22.9177 25.6656 23.0759 25.6587 23.5024C25.6587 24.1491 25.4798 24.5894 25.0258 25.0366C24.558 25.4975 24.1383 25.6695 23.4986 25.6626C22.8656 25.6557 22.446 25.4768 21.9782 25.0159C20.8431 23.8808 21.3728 21.9133 22.9482 21.4317C23.2853 21.3354 23.8976 21.3698 24.2828 21.5074ZM12.8904 23.53C13.1449 23.6538 13.5233 23.812 13.7297 23.8808C13.9361 23.9496 14.1287 24.0184 14.1631 24.0322C14.1906 24.0459 14.0874 24.2041 13.9361 24.3761C13.7847 24.555 13.5715 24.8714 13.4683 25.0916L13.2825 25.4837L12.7047 25.2498C12.3882 25.126 12.113 25.0022 12.0993 24.9884C12.0786 24.9746 12.1337 24.7545 12.2093 24.5C12.2919 24.2454 12.3538 23.8739 12.3538 23.6675C12.3538 23.4612 12.3676 23.296 12.3882 23.296C12.4088 23.296 12.6359 23.3992 12.8904 23.53ZM20.334 23.6675C20.334 23.8739 20.3959 24.2454 20.4785 24.5C20.5541 24.7545 20.6092 24.9746 20.5885 24.9884C20.5748 25.0022 20.2996 25.126 19.9831 25.2498L19.4053 25.4837L19.2195 25.0916C19.1163 24.8714 18.9031 24.555 18.7517 24.3761C18.6004 24.2041 18.4972 24.0459 18.5247 24.0322C18.5591 24.0184 18.7792 23.9358 19.0269 23.8533C19.2746 23.7707 19.646 23.6125 19.8524 23.5024C20.0588 23.3924 20.2514 23.3029 20.2858 23.296C20.3134 23.296 20.334 23.4612 20.334 23.6675ZM17.2795 24.555C18.0019 24.9196 18.4903 25.7039 18.4972 26.4881C18.5041 27.2586 18.0087 28.0566 17.2795 28.4419C16.9768 28.6001 16.8461 28.6276 16.3439 28.6276C15.8417 28.6276 15.711 28.6001 15.4152 28.4419C15.0093 28.2355 14.5208 27.7333 14.3764 27.3825C14.1218 26.7702 14.1287 26.0685 14.397 25.5388C14.6447 25.0641 15.2363 24.5688 15.7935 24.3899C16.1306 24.2798 16.908 24.3624 17.2795 24.555ZM12.3125 26.2129C12.7253 26.3849 13.0899 26.5638 13.1174 26.612C13.1518 26.6601 13.1793 26.7977 13.1793 26.9146C13.1793 27.1761 13.4064 27.8434 13.599 28.153C13.6747 28.2837 13.7297 28.3869 13.7159 28.3869C13.6334 28.3869 12.5877 28.0773 12.1818 27.9328C11.5764 27.7127 10.5858 27.2449 10.0629 26.9284L9.66394 26.6807L9.91848 26.6395C10.2831 26.5707 10.8334 26.3093 11.143 26.0547C11.2944 25.9378 11.4457 25.8483 11.487 25.869C11.5283 25.8896 11.8998 26.041 12.3125 26.2129ZM21.5448 26.0547C21.8544 26.3093 22.4047 26.5707 22.7693 26.6395L23.0239 26.6807L22.6249 26.9284C21.7512 27.4581 20.1551 28.1117 19.1576 28.3456L18.9719 28.3869L19.2058 27.9122C19.3434 27.6439 19.4603 27.2861 19.4878 27.0729C19.5085 26.8665 19.5497 26.6601 19.5773 26.612C19.5979 26.5638 19.9556 26.3849 20.3615 26.2198C20.7743 26.0547 21.1251 25.9034 21.1458 25.8827C21.2146 25.8139 21.2765 25.8415 21.5448 26.0547Z" fill="#144FAB"/>
<path d="M15.5734 11.4702C15.0437 11.5459 14.2869 11.8142 13.8123 12.0963C13.2688 12.4127 12.4295 13.2589 12.0924 13.8368C10.9504 15.7974 11.26 18.219 12.8629 19.8288C15.0368 22.0027 18.5935 21.7 20.3821 19.189C21.0495 18.2465 21.3797 16.9738 21.249 15.8318C21.1045 14.6348 20.6573 13.6992 19.8249 12.8668C18.6829 11.7248 17.1832 11.2363 15.5734 11.4702ZM17.5203 12.6397C18.3871 12.9218 19.2058 13.5685 19.6804 14.3527C20.5748 15.8249 20.3684 17.7237 19.1714 18.9826C18.6967 19.4917 18.2564 19.7806 17.5822 20.0283C16.8874 20.2897 15.8555 20.3035 15.1744 20.0696C12.7528 19.2303 11.714 16.4854 13.0074 14.3527C13.5784 13.4103 14.6172 12.6879 15.6766 12.4953C16.1788 12.4058 17.0043 12.4746 17.5203 12.6397Z" fill="#144FAB"/>
</svg>
