<svg width="29" height="28" viewBox="0 0 29 28" fill="none" xmlns="http://www.w3.org/2000/svg">
<path d="M0 0.294367V27.3026L0.343428 27.5969H28.3144L28.6701 27.2412V19.4589C28.664 13.5286 28.6456 11.6459 28.5904 11.5171C28.5168 11.3515 14.3627 0.171714 14.0867 0.0551938C14.0008 0.0245306 11.2473 0 7.14454 0H0.343428L0 0.294367ZM27.5969 11.9893L27.6153 16.8832L27.6276 21.7709H1.01189V1.04255H13.6819L27.5969 11.9893ZM27.6276 23.3654H1.01189V22.7521H27.6276V23.3654ZM27.6276 26.5544H1.01189V24.4079H27.6276V26.5544Z" fill="#144FAB"/>
<path d="M2.75969 2.72903L2.60638 2.87621V9.00273C2.60638 14.9453 2.61251 15.1415 2.7229 15.2764L2.83942 15.4236L14.1787 15.442C20.4095 15.4481 25.5731 15.442 25.6529 15.4236C25.7265 15.4052 25.843 15.3378 25.9104 15.2703C26.027 15.1538 26.0331 15.0618 26.0331 13.6942C26.027 12.6455 26.0086 12.2101 25.9534 12.1365C25.9104 12.0813 23.0833 9.91036 19.6674 7.31012L13.4489 2.57571H2.90688L2.75969 2.72903ZM21.6483 10.1495L21.2067 10.1802C20.4708 10.2293 20.5137 10.0943 20.5137 12.4309V14.4117H3.64893V3.61826H13.0625L21.6483 10.1495ZM23.1814 11.3638C23.5739 11.5784 23.7027 11.9096 23.7027 12.6701C23.7027 13.4366 23.5739 13.7433 23.1508 13.964C22.9238 14.0867 22.7951 14.1051 22.2186 14.1051H21.5563V11.2227H22.2493C22.8441 11.2227 22.9668 11.2411 23.1814 11.3638ZM24.9905 13.5654V14.4117H24.316L24.5122 14.0254C24.6839 13.7003 24.7146 13.5654 24.733 13.0748C24.7575 12.5229 24.7636 12.5106 24.874 12.6087C24.9783 12.7007 24.9905 12.8111 24.9905 13.5654Z" fill="#144FAB"/>
<path d="M11.0756 5.50099C10.9713 5.59911 9.8981 7.02188 8.6777 8.66543C7.02188 10.9161 6.46995 11.7072 6.46995 11.8299C6.46995 11.928 6.52514 12.0752 6.59873 12.1672C6.69685 12.296 6.77658 12.3266 6.98509 12.3266C7.31012 12.3266 7.30399 12.3328 8.43853 10.7935C8.923 10.1373 9.90423 8.80035 10.6217 7.83139C11.9341 6.05292 12.0077 5.92414 11.8912 5.61137C11.8421 5.49485 11.5539 5.3354 11.3822 5.3354C11.3086 5.3354 11.1737 5.409 11.0756 5.50099Z" fill="#144FAB"/>
<path d="M15.2887 6.37796C15.166 6.45155 10.7199 12.4493 10.6463 12.6455C10.585 12.8172 10.6647 13.13 10.8057 13.2281C10.9223 13.3201 11.3025 13.3324 11.4251 13.2588C11.4681 13.2281 12.5229 11.8299 13.7678 10.1434C15.8958 7.27332 16.0369 7.06481 16.0369 6.82564C16.0369 6.62326 16.0062 6.54354 15.8774 6.44542C15.7057 6.3105 15.4604 6.27983 15.2887 6.37796Z" fill="#144FAB"/>
<path d="M12.2837 6.9115C12.1304 7.08321 7.93565 12.7682 7.80686 12.9706C7.64741 13.2281 7.67195 13.4121 7.87432 13.6206C8.06444 13.8107 8.25455 13.8414 8.47532 13.7187C8.59184 13.6513 12.9154 7.87432 13.0871 7.55542C13.1913 7.36531 13.1668 7.14454 13.0257 6.96669C12.9276 6.8379 12.8479 6.80724 12.6394 6.80724C12.4677 6.80724 12.345 6.84404 12.2837 6.9115Z" fill="#144FAB"/>
<path d="M5.13303 16.1289C4.34805 16.2699 3.57533 16.644 3.15831 17.0794C3.04179 17.2021 2.82102 17.3615 2.67997 17.429C2.27521 17.6252 2.0851 17.9503 2.0851 18.4593C2.0851 18.7966 2.10963 18.907 2.25068 19.1155C2.34267 19.2504 2.51439 19.4098 2.6493 19.4712C2.77809 19.5325 3.03566 19.7226 3.22577 19.8943C3.9249 20.5382 4.74054 20.8142 5.97933 20.8142C7.20586 20.8142 8.03377 20.5382 8.73903 19.8943C8.92301 19.7226 9.18058 19.5325 9.30936 19.4712C9.44428 19.4098 9.616 19.2504 9.70798 19.1155C9.84904 18.907 9.87357 18.7966 9.87357 18.4593C9.87357 18.122 9.84904 18.0116 9.70798 17.8031C9.616 17.6682 9.44428 17.5087 9.30936 17.4474C9.18058 17.3861 8.91687 17.1898 8.72063 17.012C8.3404 16.6563 7.813 16.3803 7.23653 16.2209C6.79498 16.1043 5.58684 16.0491 5.13303 16.1289ZM6.86857 17.2266C6.99735 17.2695 6.74591 17.2818 5.97933 17.2818C5.3906 17.2818 4.93678 17.2695 4.97358 17.2573C5.31701 17.1162 6.45768 17.0917 6.86857 17.2266ZM8.83102 18.4593C8.83102 18.539 8.46919 18.5513 6.01613 18.5697C4.34805 18.5758 3.17058 18.5574 3.13992 18.5267C2.96207 18.3489 3.20738 18.3366 5.99773 18.3489C8.46919 18.3673 8.83102 18.3796 8.83102 18.4593ZM6.86857 19.6981C6.77045 19.7349 6.36569 19.7655 5.97933 19.7655C5.59298 19.7655 5.19435 19.7349 5.0901 19.6981C4.94905 19.649 5.15756 19.6367 5.97933 19.6367C6.80111 19.6367 7.00962 19.649 6.86857 19.6981Z" fill="#144FAB"/>
</svg>
