<svg width="28" height="28" viewBox="0 0 28 28" fill="none" xmlns="http://www.w3.org/2000/svg">
<path d="M0.791291 0.103519C0.520537 0.228066 0.201047 0.558386 0.08733 0.823725C-0.0263867 1.11072 -0.0318018 2.5728 0.08733 2.85438C0.222707 3.17387 0.40682 3.37423 0.715479 3.54751L1.00789 3.70996L2.10716 3.72621L3.201 3.74787V13.8524L2.24253 13.8741C1.32197 13.8903 1.26782 13.8957 1.00789 14.0365C0.401405 14.356 0.0548395 14.8921 0.0169339 15.569C-0.0047264 16.0347 0.482631 20.1989 0.628838 20.8054C0.764215 21.3469 1.15952 21.818 1.67936 22.0617C1.92304 22.1754 1.98261 22.1754 4.60892 22.1754H7.28939L7.6522 21.9967C8.07999 21.7855 8.4049 21.4444 8.55652 21.0436C8.69731 20.6646 9.28755 15.9751 9.24965 15.5148C9.20091 14.8488 8.71897 14.2098 8.09624 13.977C7.84173 13.8795 7.67386 13.8632 6.91033 13.8632H6.01684V3.73704H13.3814V13.8632H12.477C11.5835 13.8632 11.5619 13.8687 11.2316 14.0203C10.6305 14.3073 10.2839 14.7784 10.1756 15.4499C10.1323 15.7423 10.1648 16.1159 10.4464 18.3144C10.8038 21.114 10.8254 21.2007 11.2641 21.6501C11.394 21.7801 11.6323 21.9534 11.8002 22.0292L12.1088 22.1754H17.4697L17.773 22.0346C18.152 21.8559 18.4769 21.5418 18.6665 21.1628C18.7964 20.9083 18.8398 20.6267 19.1322 18.3578C19.3542 16.5979 19.4408 15.7423 19.4192 15.5203C19.365 14.8921 18.9589 14.3019 18.3903 14.0203C18.1412 13.9011 18.0492 13.8903 17.1611 13.8741L16.1972 13.8578V3.73704H23.0744V11.9517L22.7494 11.9896C21.9318 12.0817 21.3415 12.5203 21.0978 13.2189C21.0058 13.4734 19.6087 25.4136 19.6087 25.928C19.6087 26.6537 20.0906 27.3576 20.7675 27.6121C21.0762 27.7259 21.1412 27.7313 23.0689 27.715L25.0509 27.6988L25.3216 27.5634C25.7061 27.3739 26.0743 26.9786 26.2151 26.6049C26.3072 26.3504 26.4696 25.0887 27.0328 20.253C27.8071 13.625 27.8125 13.5221 27.558 13.0239C27.2385 12.412 26.8541 12.1521 26.0418 11.995L25.8902 11.968V3.75328L26.318 3.72079C26.9949 3.67747 27.4227 3.39589 27.6501 2.85438C27.7097 2.70817 27.7313 2.45367 27.7313 1.83093C27.7313 0.888706 27.6826 0.715424 27.3198 0.368858C26.8974 -0.0318579 28.132 0.000632589 13.8579 0.000632589C1.44652 0.000632589 1.00248 0.00604767 0.791291 0.103519ZM26.6321 1.09448C26.7458 1.20278 26.7566 1.25152 26.7566 1.8201C26.7566 2.15584 26.7404 2.46991 26.7241 2.51865C26.6266 2.77316 27.244 2.76232 13.8687 2.76232C0.493461 2.76232 1.11078 2.77316 1.01331 2.51865C0.997064 2.46991 0.980819 2.15584 0.980819 1.82552C0.980819 1.28401 0.991649 1.21361 1.09995 1.09989L1.21367 0.975348H26.5075L26.6321 1.09448ZM5.04213 13.8632H4.17572V3.73704H5.04213V13.8632ZM15.2225 13.8632H14.3561V3.73704H15.2225V13.8632ZM24.9155 11.968H24.0491V3.73704H24.9155V11.968ZM26.0689 13.0022C26.4859 13.1051 26.7566 13.4463 26.7566 13.8632C26.7566 14.0798 25.4516 25.5327 25.3758 25.993C25.327 26.2638 25.1213 26.5562 24.8992 26.6591C24.7368 26.7403 24.4769 26.7511 22.9498 26.7511C21.2116 26.7511 21.1953 26.7511 21.0112 26.6266C20.7459 26.4479 20.5834 26.1826 20.5834 25.9172C20.5834 25.7927 20.8975 22.9877 21.282 19.679C21.7964 15.2333 22.0022 13.6087 22.0726 13.4625C22.1809 13.2405 22.4137 13.0564 22.6628 12.9968C22.9336 12.9319 25.8144 12.9373 26.0689 13.0022ZM7.80382 14.9192C8.02584 15.0329 8.24244 15.3416 8.27493 15.5798C8.28576 15.6935 8.16122 16.8686 7.99335 18.1953C7.65761 20.8812 7.6522 20.892 7.20816 21.1195C7.00239 21.2223 6.89409 21.2278 4.636 21.2278C2.7678 21.2278 2.24253 21.2115 2.10174 21.1519C1.87431 21.0599 1.64687 20.7946 1.57648 20.5346C1.50608 20.2747 0.980819 16.0022 0.980819 15.6881C0.980819 15.4065 1.13786 15.1466 1.40861 14.9625L1.59272 14.838H4.61975C7.20275 14.838 7.66844 14.8488 7.80382 14.9192ZM18.1033 15.0112C18.2224 15.1033 18.3362 15.2603 18.3903 15.3957C18.4769 15.6286 18.4715 15.6881 18.1737 18.0924C17.8271 20.8487 17.8217 20.8758 17.3939 21.1032L17.1557 21.2278H14.8001C12.5258 21.2278 12.4337 21.2223 12.2117 21.114C11.7731 20.9029 11.7731 20.9029 11.4265 18.1357C11.0962 15.5365 11.0962 15.4824 11.3182 15.1683C11.5619 14.8325 11.4752 14.838 14.8488 14.8542L17.9138 14.865L18.1033 15.0112Z" fill="#144FAB"/>
<path d="M22.939 15.8398C22.7603 16.013 22.7603 16.2946 22.9335 16.5004L23.0635 16.652H25.3595L25.4949 16.495C25.6086 16.3596 25.6248 16.2946 25.6032 16.1159C25.549 15.7206 25.4949 15.7044 24.2007 15.7044C23.0743 15.7044 23.0689 15.7044 22.939 15.8398Z" fill="#144FAB"/>
<path d="M22.495 19.5166C22.2783 19.7007 22.2838 20.0473 22.5004 20.2368L22.652 20.3668L23.7892 20.3505C24.9101 20.3343 24.9263 20.3343 25.0292 20.2043C25.1808 20.0202 25.1646 19.6845 24.9967 19.522C24.8668 19.3866 24.8613 19.3866 23.7567 19.3866C22.6628 19.3866 22.6466 19.3866 22.495 19.5166Z" fill="#144FAB"/>
<path d="M22.1267 23.1338C21.8451 23.2963 21.791 23.6862 22.0184 23.9082C22.1484 24.0436 22.1484 24.0436 23.2747 24.0436C24.4552 24.0381 24.5094 24.0273 24.6339 23.789C24.7368 23.6049 24.7097 23.4154 24.5689 23.2475L24.439 23.0959L23.3343 23.0797C22.5654 23.0743 22.2025 23.0905 22.1267 23.1338Z" fill="#144FAB"/>
<path d="M3.01145 16.2026C2.72987 16.365 2.67572 16.7549 2.90315 16.9769L3.03311 17.1123H4.61973C6.28758 17.1069 6.30924 17.1069 6.4392 16.8578C6.5475 16.6575 6.51501 16.4625 6.34715 16.2946L6.19011 16.1376H4.65222C3.6017 16.143 3.08727 16.1593 3.01145 16.2026Z" fill="#144FAB"/>
<path d="M3.0927 18.9371C2.75697 19.0671 2.65408 19.4949 2.90317 19.7385L3.03313 19.8739H4.62517C6.43381 19.8739 6.43381 19.8739 6.48796 19.4624C6.50962 19.2837 6.49337 19.2187 6.37966 19.0833L6.24428 18.9263L4.70639 18.9154C3.86706 18.91 3.13602 18.9209 3.0927 18.9371Z" fill="#144FAB"/>
<path d="M13.1756 16.1918C13.024 16.2567 12.894 16.5492 12.9319 16.7495C12.9482 16.8307 13.024 16.9445 13.0998 17.004C13.2243 17.1069 13.3218 17.1123 14.8164 17.1123C16.3813 17.1123 16.3976 17.1123 16.5113 16.9878C16.5709 16.9228 16.6358 16.8037 16.6575 16.7278C16.7062 16.5383 16.56 16.2567 16.3813 16.1918C16.208 16.1214 13.3435 16.1268 13.1756 16.1918Z" fill="#144FAB"/>
<path d="M13.1864 18.975C12.894 19.105 12.8344 19.4894 13.0727 19.7494C13.181 19.8739 13.1918 19.8739 14.7947 19.8739H16.403L16.5438 19.706C16.6196 19.614 16.6846 19.4949 16.6846 19.4353C16.6846 19.2403 16.5275 19.0183 16.3542 18.9588C16.0889 18.8667 13.403 18.8829 13.1864 18.975Z" fill="#144FAB"/>
</svg>
