<svg width="26" height="23" viewBox="0 0 26 23" fill="none" xmlns="http://www.w3.org/2000/svg">
<path d="M1 1H4.81818L7.68182 17.2273H22.9546M7.68182 13.4092H22.5632C22.6736 13.4093 22.7806 13.3711 22.866 13.3012C22.9513 13.2312 23.0099 13.1338 23.0315 13.0256L24.7497 4.4347C24.7636 4.36542 24.7619 4.29393 24.7448 4.22539C24.7276 4.15685 24.6955 4.09296 24.6507 4.03834C24.6059 3.98372 24.5495 3.93972 24.4857 3.90953C24.4218 3.87934 24.352 3.86371 24.2814 3.86376H5.77273M9.59092 21.0455C9.59092 21.5726 9.16356 22 8.63637 22C8.10919 22 7.68183 21.5726 7.68183 21.0455C7.68183 20.5183 8.10919 20.0909 8.63637 20.0909C9.16356 20.0909 9.59092 20.5183 9.59092 21.0455ZM22.9546 21.0455C22.9546 21.5726 22.5272 22 22 22C21.4729 22 21.0455 21.5726 21.0455 21.0455C21.0455 20.5183 21.4729 20.0909 22 20.0909C22.5272 20.0909 22.9546 20.5183 22.9546 21.0455Z" stroke="#A8B7CD" stroke-width="2" stroke-linecap="round" stroke-linejoin="round"/>
</svg>
