<svg width="31" height="31" viewBox="0 0 31 31" fill="none" xmlns="http://www.w3.org/2000/svg">
<mask id="path-1-inside-1_403_143" fill="white">
<path d="M14.2634 0.0381497C8.23546 0.381006 2.84544 4.50326 0.844112 10.284C-0.359873 13.7604 -0.272166 17.5717 1.08331 21.0002C3.93779 28.2162 11.7278 32.1072 19.3185 30.1298C24.5251 28.7664 28.767 24.5165 30.1305 19.2939C30.4255 18.1458 30.5291 17.5159 30.6089 16.2959C31.0155 10.0846 27.6268 4.25608 22.0454 1.54512C20.2833 0.691969 18.2899 0.149777 16.6155 0.0620699C16.1371 0.0461231 15.6348 0.0142294 15.4992 0.00625602C15.3717 -0.00969081 14.8135 0.00625601 14.2634 0.0381497ZM17.1737 1.15443C19.3663 1.4335 21.7265 2.36639 23.5923 3.682C24.565 4.36771 26.2713 6.07402 26.957 7.04678C27.26 7.4614 27.7464 8.29063 28.0494 8.88066C31.5976 15.8654 28.8627 24.3411 21.8859 27.985C20.4986 28.7105 19.1271 29.165 17.4527 29.46C16.5358 29.6275 13.9365 29.6036 12.9477 29.4202C4.57567 27.8972 -0.670836 19.6846 1.54577 11.5518C2.678 7.38166 5.75573 3.87336 9.76636 2.17502C12.1504 1.1624 14.5903 0.827517 17.1737 1.15443Z"/>
<path d="M13.785 3.42685C12.1504 3.72187 11.2494 3.99296 10.1411 4.50326C9.77433 4.6707 9.16835 5.00558 8.78563 5.26073C5.4049 7.45342 3.33979 11.0096 3.12451 14.9883C3.05275 16.3039 2.87733 16.2162 5.65208 16.2162C7.78098 16.2162 7.89261 16.2082 8.0441 16.0567C8.1637 15.9371 8.20357 15.7936 8.20357 15.5066C8.20357 14.8926 8.42683 13.7843 8.68197 13.1225C9.51121 10.9777 11.377 9.29528 13.5856 8.70525C14.5185 8.45807 16.1212 8.45807 17.0381 8.70525C18.3617 9.06405 19.5178 9.74977 20.4188 10.7066C21.6388 11.9983 22.2846 13.4813 22.4361 15.3232C22.4839 15.8893 22.5158 16.0009 22.6753 16.1046C22.8188 16.2003 23.2255 16.2162 25.0673 16.2003L27.2839 16.1763L27.4354 15.969C27.5869 15.7697 27.5869 15.7059 27.5072 14.7491C27.3158 12.4846 26.662 10.5949 25.466 8.79296C23.7278 6.18565 21.1205 4.38366 18.0109 3.64213C17.2933 3.47469 16.9424 3.4428 15.579 3.41888C14.7019 3.40293 13.8966 3.4109 13.785 3.42685ZM14.8215 5.9305C14.8215 7.43748 14.8215 7.44545 14.6461 7.47734C14.5424 7.49329 14.1996 7.5491 13.8806 7.59694C12.7644 7.76438 11.5843 8.26671 10.5557 9.00026L9.9338 9.44677L8.87334 8.39428C8.29128 7.81223 7.82882 7.3099 7.85274 7.27003C7.87666 7.23814 8.25938 6.93515 8.70589 6.60027C10.3404 5.38034 12.7803 4.45542 14.4468 4.42353L14.8215 4.41555V5.9305ZM17.5883 4.62286C19.3026 4.97369 21.2959 5.94645 22.4281 6.98299L22.8029 7.32585L21.7424 8.38631L20.682 9.4388L20.2036 9.08C19.2308 8.35442 17.9471 7.78831 16.8069 7.60492C16.48 7.55708 16.1371 7.49329 16.0414 7.47734C15.858 7.44545 15.858 7.43748 15.858 5.91455V4.39163L16.4242 4.44745C16.7431 4.47137 17.2614 4.5511 17.5883 4.62286ZM8.15573 9.17568L9.16038 10.2202L8.74576 10.8102C7.97234 11.8787 7.43812 13.2182 7.24676 14.5258L7.15108 15.1797H4.12118L4.177 14.6375C4.38431 12.5803 5.19759 10.5072 6.43347 8.85674C6.76038 8.42618 7.0554 8.08332 7.08729 8.09927C7.12716 8.11522 7.60556 8.59362 8.15573 9.17568ZM24.6447 9.4707C25.1869 10.292 25.5457 11.0255 25.8886 12.0062C26.1756 12.8036 26.4627 14.2149 26.4627 14.789V15.1797H23.4567L23.4009 14.6295C23.2893 13.4016 22.6594 11.8229 21.862 10.7544L21.4394 10.1963L22.4999 9.13581L23.5524 8.07535L23.8633 8.41821C24.0308 8.60957 24.3816 9.08 24.6447 9.4707Z"/>
<path d="M14.2394 10.4594C14.1438 10.5631 14.1039 10.7544 14.1039 11.0893V11.5677L13.5697 11.8308C12.1026 12.5564 11.2095 14.2627 11.4567 15.8733C11.5923 16.7185 11.9351 17.4042 12.5252 18.0182C14.0321 19.5969 16.4959 19.6208 18.0587 18.09C18.8879 17.2687 19.2547 16.28 19.1909 15.0601C19.1032 13.6567 18.3776 12.5245 17.1178 11.8627L16.5756 11.5836V11.1052C16.5756 10.3717 16.48 10.3159 15.3159 10.3159C14.4946 10.3159 14.3511 10.3398 14.2394 10.4594ZM15.5391 14.5418H15.1404V11.3524H15.5391V14.5418ZM14.1039 14.0873C14.1039 14.9883 14.1358 15.4189 14.1996 15.4826C14.2634 15.5464 14.6222 15.5783 15.2919 15.5783C16.6394 15.5783 16.5756 15.6581 16.5756 14.0474C16.5756 13.3537 16.5996 12.7876 16.6235 12.7876C16.7909 12.7876 17.4288 13.3697 17.684 13.7604C18.266 14.6295 18.3298 15.7059 17.8514 16.6069C17.3172 17.6036 16.4162 18.1537 15.2999 18.1617C14.7896 18.1617 14.6222 18.1298 14.1677 17.9145C13.4979 17.6036 13.0355 17.1411 12.7245 16.4713C12.2939 15.5385 12.4135 14.4461 13.0355 13.6248C13.3066 13.274 13.8886 12.7876 14.0401 12.7876C14.072 12.7876 14.1039 13.3697 14.1039 14.0873Z"/>
<path d="M11.0581 21.5345C10.8747 21.7497 9.08064 25.5371 9.08064 25.7125C9.08064 25.9119 9.35971 26.183 9.56702 26.183C9.87799 26.183 10.0375 26.0155 10.3245 25.3856L10.6195 24.7478H12.2461L12.5331 25.3776C12.8122 26.0075 12.9796 26.183 13.2986 26.183C13.5059 26.183 13.785 25.9119 13.785 25.7125C13.785 25.5371 11.9909 21.7497 11.8076 21.5345C11.7438 21.4627 11.5763 21.3989 11.4328 21.3989C11.2893 21.3989 11.1298 21.4627 11.0581 21.5345ZM11.5444 23.6953C11.2016 23.7511 11.1617 23.6953 11.2973 23.3524L11.4248 23.0414L11.5604 23.3524C11.7039 23.6634 11.7039 23.6713 11.5444 23.6953Z"/>
<path d="M16.767 21.4627C16.6634 21.5265 14.4547 25.3139 14.383 25.5531C14.3351 25.7046 14.4627 26.0235 14.6142 26.1192C14.7737 26.2308 15.1165 26.183 15.2441 26.0394C15.4514 25.8162 17.6122 22.0129 17.6122 21.8773C17.6122 21.6222 17.373 21.3989 17.1099 21.3989C16.9663 21.3989 16.8149 21.4308 16.767 21.4627Z"/>
<path d="M19.167 21.4946C18.1783 21.8614 17.6042 22.7145 17.5962 23.8069C17.5962 25.3936 19.1112 26.5258 20.658 26.0713C21.256 25.8959 21.5192 25.6806 21.5192 25.3537C21.5192 25.0587 21.3198 24.8275 21.0647 24.8275C20.969 24.8275 20.7457 24.8992 20.5544 24.987C20.1079 25.1863 19.8208 25.1863 19.3903 24.979C18.4095 24.5085 18.3537 23.2487 19.2866 22.6109C19.6215 22.3876 20.1717 22.3796 20.674 22.6029C20.9929 22.7385 21.0727 22.7464 21.264 22.6587C21.6866 22.4514 21.5989 21.8853 21.0966 21.6222C20.7059 21.4228 19.5657 21.3431 19.167 21.4946Z"/>
</mask>
<path d="M14.2634 0.0381497C8.23546 0.381006 2.84544 4.50326 0.844112 10.284C-0.359873 13.7604 -0.272166 17.5717 1.08331 21.0002C3.93779 28.2162 11.7278 32.1072 19.3185 30.1298C24.5251 28.7664 28.767 24.5165 30.1305 19.2939C30.4255 18.1458 30.5291 17.5159 30.6089 16.2959C31.0155 10.0846 27.6268 4.25608 22.0454 1.54512C20.2833 0.691969 18.2899 0.149777 16.6155 0.0620699C16.1371 0.0461231 15.6348 0.0142294 15.4992 0.00625602C15.3717 -0.00969081 14.8135 0.00625601 14.2634 0.0381497ZM17.1737 1.15443C19.3663 1.4335 21.7265 2.36639 23.5923 3.682C24.565 4.36771 26.2713 6.07402 26.957 7.04678C27.26 7.4614 27.7464 8.29063 28.0494 8.88066C31.5976 15.8654 28.8627 24.3411 21.8859 27.985C20.4986 28.7105 19.1271 29.165 17.4527 29.46C16.5358 29.6275 13.9365 29.6036 12.9477 29.4202C4.57567 27.8972 -0.670836 19.6846 1.54577 11.5518C2.678 7.38166 5.75573 3.87336 9.76636 2.17502C12.1504 1.1624 14.5903 0.827517 17.1737 1.15443Z" fill="#144FAB"/>
<path d="M13.785 3.42685C12.1504 3.72187 11.2494 3.99296 10.1411 4.50326C9.77433 4.6707 9.16835 5.00558 8.78563 5.26073C5.4049 7.45342 3.33979 11.0096 3.12451 14.9883C3.05275 16.3039 2.87733 16.2162 5.65208 16.2162C7.78098 16.2162 7.89261 16.2082 8.0441 16.0567C8.1637 15.9371 8.20357 15.7936 8.20357 15.5066C8.20357 14.8926 8.42683 13.7843 8.68197 13.1225C9.51121 10.9777 11.377 9.29528 13.5856 8.70525C14.5185 8.45807 16.1212 8.45807 17.0381 8.70525C18.3617 9.06405 19.5178 9.74977 20.4188 10.7066C21.6388 11.9983 22.2846 13.4813 22.4361 15.3232C22.4839 15.8893 22.5158 16.0009 22.6753 16.1046C22.8188 16.2003 23.2255 16.2162 25.0673 16.2003L27.2839 16.1763L27.4354 15.969C27.5869 15.7697 27.5869 15.7059 27.5072 14.7491C27.3158 12.4846 26.662 10.5949 25.466 8.79296C23.7278 6.18565 21.1205 4.38366 18.0109 3.64213C17.2933 3.47469 16.9424 3.4428 15.579 3.41888C14.7019 3.40293 13.8966 3.4109 13.785 3.42685ZM14.8215 5.9305C14.8215 7.43748 14.8215 7.44545 14.6461 7.47734C14.5424 7.49329 14.1996 7.5491 13.8806 7.59694C12.7644 7.76438 11.5843 8.26671 10.5557 9.00026L9.9338 9.44677L8.87334 8.39428C8.29128 7.81223 7.82882 7.3099 7.85274 7.27003C7.87666 7.23814 8.25938 6.93515 8.70589 6.60027C10.3404 5.38034 12.7803 4.45542 14.4468 4.42353L14.8215 4.41555V5.9305ZM17.5883 4.62286C19.3026 4.97369 21.2959 5.94645 22.4281 6.98299L22.8029 7.32585L21.7424 8.38631L20.682 9.4388L20.2036 9.08C19.2308 8.35442 17.9471 7.78831 16.8069 7.60492C16.48 7.55708 16.1371 7.49329 16.0414 7.47734C15.858 7.44545 15.858 7.43748 15.858 5.91455V4.39163L16.4242 4.44745C16.7431 4.47137 17.2614 4.5511 17.5883 4.62286ZM8.15573 9.17568L9.16038 10.2202L8.74576 10.8102C7.97234 11.8787 7.43812 13.2182 7.24676 14.5258L7.15108 15.1797H4.12118L4.177 14.6375C4.38431 12.5803 5.19759 10.5072 6.43347 8.85674C6.76038 8.42618 7.0554 8.08332 7.08729 8.09927C7.12716 8.11522 7.60556 8.59362 8.15573 9.17568ZM24.6447 9.4707C25.1869 10.292 25.5457 11.0255 25.8886 12.0062C26.1756 12.8036 26.4627 14.2149 26.4627 14.789V15.1797H23.4567L23.4009 14.6295C23.2893 13.4016 22.6594 11.8229 21.862 10.7544L21.4394 10.1963L22.4999 9.13581L23.5524 8.07535L23.8633 8.41821C24.0308 8.60957 24.3816 9.08 24.6447 9.4707Z" fill="#144FAB"/>
<path d="M14.2394 10.4594C14.1438 10.5631 14.1039 10.7544 14.1039 11.0893V11.5677L13.5697 11.8308C12.1026 12.5564 11.2095 14.2627 11.4567 15.8733C11.5923 16.7185 11.9351 17.4042 12.5252 18.0182C14.0321 19.5969 16.4959 19.6208 18.0587 18.09C18.8879 17.2687 19.2547 16.28 19.1909 15.0601C19.1032 13.6567 18.3776 12.5245 17.1178 11.8627L16.5756 11.5836V11.1052C16.5756 10.3717 16.48 10.3159 15.3159 10.3159C14.4946 10.3159 14.3511 10.3398 14.2394 10.4594ZM15.5391 14.5418H15.1404V11.3524H15.5391V14.5418ZM14.1039 14.0873C14.1039 14.9883 14.1358 15.4189 14.1996 15.4826C14.2634 15.5464 14.6222 15.5783 15.2919 15.5783C16.6394 15.5783 16.5756 15.6581 16.5756 14.0474C16.5756 13.3537 16.5996 12.7876 16.6235 12.7876C16.7909 12.7876 17.4288 13.3697 17.684 13.7604C18.266 14.6295 18.3298 15.7059 17.8514 16.6069C17.3172 17.6036 16.4162 18.1537 15.2999 18.1617C14.7896 18.1617 14.6222 18.1298 14.1677 17.9145C13.4979 17.6036 13.0355 17.1411 12.7245 16.4713C12.2939 15.5385 12.4135 14.4461 13.0355 13.6248C13.3066 13.274 13.8886 12.7876 14.0401 12.7876C14.072 12.7876 14.1039 13.3697 14.1039 14.0873Z" fill="#144FAB"/>
<path d="M11.0581 21.5345C10.8747 21.7497 9.08064 25.5371 9.08064 25.7125C9.08064 25.9119 9.35971 26.183 9.56702 26.183C9.87799 26.183 10.0375 26.0155 10.3245 25.3856L10.6195 24.7478H12.2461L12.5331 25.3776C12.8122 26.0075 12.9796 26.183 13.2986 26.183C13.5059 26.183 13.785 25.9119 13.785 25.7125C13.785 25.5371 11.9909 21.7497 11.8076 21.5345C11.7438 21.4627 11.5763 21.3989 11.4328 21.3989C11.2893 21.3989 11.1298 21.4627 11.0581 21.5345ZM11.5444 23.6953C11.2016 23.7511 11.1617 23.6953 11.2973 23.3524L11.4248 23.0414L11.5604 23.3524C11.7039 23.6634 11.7039 23.6713 11.5444 23.6953Z" fill="#144FAB"/>
<path d="M16.767 21.4627C16.6634 21.5265 14.4547 25.3139 14.383 25.5531C14.3351 25.7046 14.4627 26.0235 14.6142 26.1192C14.7737 26.2308 15.1165 26.183 15.2441 26.0394C15.4514 25.8162 17.6122 22.0129 17.6122 21.8773C17.6122 21.6222 17.373 21.3989 17.1099 21.3989C16.9663 21.3989 16.8149 21.4308 16.767 21.4627Z" fill="#144FAB"/>
<path d="M19.167 21.4946C18.1783 21.8614 17.6042 22.7145 17.5962 23.8069C17.5962 25.3936 19.1112 26.5258 20.658 26.0713C21.256 25.8959 21.5192 25.6806 21.5192 25.3537C21.5192 25.0587 21.3198 24.8275 21.0647 24.8275C20.969 24.8275 20.7457 24.8992 20.5544 24.987C20.1079 25.1863 19.8208 25.1863 19.3903 24.979C18.4095 24.5085 18.3537 23.2487 19.2866 22.6109C19.6215 22.3876 20.1717 22.3796 20.674 22.6029C20.9929 22.7385 21.0727 22.7464 21.264 22.6587C21.6866 22.4514 21.5989 21.8853 21.0966 21.6222C20.7059 21.4228 19.5657 21.3431 19.167 21.4946Z" fill="#144FAB"/>
<path d="M14.2634 0.0381497C8.23546 0.381006 2.84544 4.50326 0.844112 10.284C-0.359873 13.7604 -0.272166 17.5717 1.08331 21.0002C3.93779 28.2162 11.7278 32.1072 19.3185 30.1298C24.5251 28.7664 28.767 24.5165 30.1305 19.2939C30.4255 18.1458 30.5291 17.5159 30.6089 16.2959C31.0155 10.0846 27.6268 4.25608 22.0454 1.54512C20.2833 0.691969 18.2899 0.149777 16.6155 0.0620699C16.1371 0.0461231 15.6348 0.0142294 15.4992 0.00625602C15.3717 -0.00969081 14.8135 0.00625601 14.2634 0.0381497ZM17.1737 1.15443C19.3663 1.4335 21.7265 2.36639 23.5923 3.682C24.565 4.36771 26.2713 6.07402 26.957 7.04678C27.26 7.4614 27.7464 8.29063 28.0494 8.88066C31.5976 15.8654 28.8627 24.3411 21.8859 27.985C20.4986 28.7105 19.1271 29.165 17.4527 29.46C16.5358 29.6275 13.9365 29.6036 12.9477 29.4202C4.57567 27.8972 -0.670836 19.6846 1.54577 11.5518C2.678 7.38166 5.75573 3.87336 9.76636 2.17502C12.1504 1.1624 14.5903 0.827517 17.1737 1.15443Z" stroke="#144FAB" stroke-width="2.70374" mask="url(#path-1-inside-1_403_143)"/>
<path d="M13.785 3.42685C12.1504 3.72187 11.2494 3.99296 10.1411 4.50326C9.77433 4.6707 9.16835 5.00558 8.78563 5.26073C5.4049 7.45342 3.33979 11.0096 3.12451 14.9883C3.05275 16.3039 2.87733 16.2162 5.65208 16.2162C7.78098 16.2162 7.89261 16.2082 8.0441 16.0567C8.1637 15.9371 8.20357 15.7936 8.20357 15.5066C8.20357 14.8926 8.42683 13.7843 8.68197 13.1225C9.51121 10.9777 11.377 9.29528 13.5856 8.70525C14.5185 8.45807 16.1212 8.45807 17.0381 8.70525C18.3617 9.06405 19.5178 9.74977 20.4188 10.7066C21.6388 11.9983 22.2846 13.4813 22.4361 15.3232C22.4839 15.8893 22.5158 16.0009 22.6753 16.1046C22.8188 16.2003 23.2255 16.2162 25.0673 16.2003L27.2839 16.1763L27.4354 15.969C27.5869 15.7697 27.5869 15.7059 27.5072 14.7491C27.3158 12.4846 26.662 10.5949 25.466 8.79296C23.7278 6.18565 21.1205 4.38366 18.0109 3.64213C17.2933 3.47469 16.9424 3.4428 15.579 3.41888C14.7019 3.40293 13.8966 3.4109 13.785 3.42685ZM14.8215 5.9305C14.8215 7.43748 14.8215 7.44545 14.6461 7.47734C14.5424 7.49329 14.1996 7.5491 13.8806 7.59694C12.7644 7.76438 11.5843 8.26671 10.5557 9.00026L9.9338 9.44677L8.87334 8.39428C8.29128 7.81223 7.82882 7.3099 7.85274 7.27003C7.87666 7.23814 8.25938 6.93515 8.70589 6.60027C10.3404 5.38034 12.7803 4.45542 14.4468 4.42353L14.8215 4.41555V5.9305ZM17.5883 4.62286C19.3026 4.97369 21.2959 5.94645 22.4281 6.98299L22.8029 7.32585L21.7424 8.38631L20.682 9.4388L20.2036 9.08C19.2308 8.35442 17.9471 7.78831 16.8069 7.60492C16.48 7.55708 16.1371 7.49329 16.0414 7.47734C15.858 7.44545 15.858 7.43748 15.858 5.91455V4.39163L16.4242 4.44745C16.7431 4.47137 17.2614 4.5511 17.5883 4.62286ZM8.15573 9.17568L9.16038 10.2202L8.74576 10.8102C7.97234 11.8787 7.43812 13.2182 7.24676 14.5258L7.15108 15.1797H4.12118L4.177 14.6375C4.38431 12.5803 5.19759 10.5072 6.43347 8.85674C6.76038 8.42618 7.0554 8.08332 7.08729 8.09927C7.12716 8.11522 7.60556 8.59362 8.15573 9.17568ZM24.6447 9.4707C25.1869 10.292 25.5457 11.0255 25.8886 12.0062C26.1756 12.8036 26.4627 14.2149 26.4627 14.789V15.1797H23.4567L23.4009 14.6295C23.2893 13.4016 22.6594 11.8229 21.862 10.7544L21.4394 10.1963L22.4999 9.13581L23.5524 8.07535L23.8633 8.41821C24.0308 8.60957 24.3816 9.08 24.6447 9.4707Z" stroke="#144FAB" stroke-width="2.70374" mask="url(#path-1-inside-1_403_143)"/>
<path d="M14.2394 10.4594C14.1438 10.5631 14.1039 10.7544 14.1039 11.0893V11.5677L13.5697 11.8308C12.1026 12.5564 11.2095 14.2627 11.4567 15.8733C11.5923 16.7185 11.9351 17.4042 12.5252 18.0182C14.0321 19.5969 16.4959 19.6208 18.0587 18.09C18.8879 17.2687 19.2547 16.28 19.1909 15.0601C19.1032 13.6567 18.3776 12.5245 17.1178 11.8627L16.5756 11.5836V11.1052C16.5756 10.3717 16.48 10.3159 15.3159 10.3159C14.4946 10.3159 14.3511 10.3398 14.2394 10.4594ZM15.5391 14.5418H15.1404V11.3524H15.5391V14.5418ZM14.1039 14.0873C14.1039 14.9883 14.1358 15.4189 14.1996 15.4826C14.2634 15.5464 14.6222 15.5783 15.2919 15.5783C16.6394 15.5783 16.5756 15.6581 16.5756 14.0474C16.5756 13.3537 16.5996 12.7876 16.6235 12.7876C16.7909 12.7876 17.4288 13.3697 17.684 13.7604C18.266 14.6295 18.3298 15.7059 17.8514 16.6069C17.3172 17.6036 16.4162 18.1537 15.2999 18.1617C14.7896 18.1617 14.6222 18.1298 14.1677 17.9145C13.4979 17.6036 13.0355 17.1411 12.7245 16.4713C12.2939 15.5385 12.4135 14.4461 13.0355 13.6248C13.3066 13.274 13.8886 12.7876 14.0401 12.7876C14.072 12.7876 14.1039 13.3697 14.1039 14.0873Z" stroke="#144FAB" stroke-width="2.70374" mask="url(#path-1-inside-1_403_143)"/>
<path d="M11.0581 21.5345C10.8747 21.7497 9.08064 25.5371 9.08064 25.7125C9.08064 25.9119 9.35971 26.183 9.56702 26.183C9.87799 26.183 10.0375 26.0155 10.3245 25.3856L10.6195 24.7478H12.2461L12.5331 25.3776C12.8122 26.0075 12.9796 26.183 13.2986 26.183C13.5059 26.183 13.785 25.9119 13.785 25.7125C13.785 25.5371 11.9909 21.7497 11.8076 21.5345C11.7438 21.4627 11.5763 21.3989 11.4328 21.3989C11.2893 21.3989 11.1298 21.4627 11.0581 21.5345ZM11.5444 23.6953C11.2016 23.7511 11.1617 23.6953 11.2973 23.3524L11.4248 23.0414L11.5604 23.3524C11.7039 23.6634 11.7039 23.6713 11.5444 23.6953Z" stroke="#144FAB" stroke-width="2.70374" mask="url(#path-1-inside-1_403_143)"/>
<path d="M16.767 21.4627C16.6634 21.5265 14.4547 25.3139 14.383 25.5531C14.3351 25.7046 14.4627 26.0235 14.6142 26.1192C14.7737 26.2308 15.1165 26.183 15.2441 26.0394C15.4514 25.8162 17.6122 22.0129 17.6122 21.8773C17.6122 21.6222 17.373 21.3989 17.1099 21.3989C16.9663 21.3989 16.8149 21.4308 16.767 21.4627Z" stroke="#144FAB" stroke-width="2.70374" mask="url(#path-1-inside-1_403_143)"/>
<path d="M19.167 21.4946C18.1783 21.8614 17.6042 22.7145 17.5962 23.8069C17.5962 25.3936 19.1112 26.5258 20.658 26.0713C21.256 25.8959 21.5192 25.6806 21.5192 25.3537C21.5192 25.0587 21.3198 24.8275 21.0647 24.8275C20.969 24.8275 20.7457 24.8992 20.5544 24.987C20.1079 25.1863 19.8208 25.1863 19.3903 24.979C18.4095 24.5085 18.3537 23.2487 19.2866 22.6109C19.6215 22.3876 20.1717 22.3796 20.674 22.6029C20.9929 22.7385 21.0727 22.7464 21.264 22.6587C21.6866 22.4514 21.5989 21.8853 21.0966 21.6222C20.7059 21.4228 19.5657 21.3431 19.167 21.4946Z" stroke="#144FAB" stroke-width="2.70374" mask="url(#path-1-inside-1_403_143)"/>
</svg>
