<svg width="31" height="31" viewBox="0 0 31 31" fill="none" xmlns="http://www.w3.org/2000/svg">
<path d="M9.84588 0.118738C9.53966 0.262474 9.22719 0.581191 9.10221 0.887411C8.96472 1.20613 8.97722 1.84356 9.12096 2.15603C9.23345 2.41226 9.58966 2.76847 9.85213 2.88721C9.98962 2.95595 10.0021 2.99345 10.0021 3.47465V3.9871L8.89598 4.0121C7.81484 4.03084 7.77109 4.03709 7.40863 4.21208C6.93368 4.44955 6.45247 4.9245 6.215 5.4057L6.03377 5.78067L5.99627 8.49914H5.54632C5.02137 8.49914 4.6964 8.63038 4.39643 8.94285C4.05272 9.30531 4.00272 9.51154 4.00272 10.5614V11.4988H2.00292V15.4984H4.00272V16.4483C4.00272 17.2358 4.02772 17.4482 4.12146 17.6545C4.2527 17.9419 4.67765 18.3544 4.90888 18.4106C5.07136 18.4544 5.10886 18.5231 4.99637 18.5981C4.95888 18.6169 4.87763 18.7544 4.81514 18.8981C4.60891 19.3855 4.25895 19.5293 3.72775 19.348C3.03407 19.1106 2.49037 19.2668 1.87794 19.873C1.27175 20.4854 1.11551 21.0291 1.35299 21.7228C1.53422 22.254 1.39048 22.604 0.903034 22.8102C0.584316 22.9477 0.265598 23.2664 0.121863 23.5914C-0.0406209 23.9476 -0.0406209 25.0475 0.121863 25.4037C0.265598 25.7287 0.584316 26.0474 0.903034 26.1849C1.39048 26.3911 1.53422 26.7411 1.35299 27.2723C1.228 27.6472 1.228 28.0222 1.35299 28.3971C1.47173 28.7471 2.09041 29.4033 2.47163 29.5908C2.84034 29.7657 3.34029 29.7845 3.75275 29.6408C4.27144 29.4533 4.60266 29.597 4.81514 30.097C4.95263 30.4157 5.27134 30.7344 5.59631 30.8781C5.95253 31.0406 7.05241 31.0406 7.40863 30.8781C7.72735 30.7344 8.05856 30.4094 8.17105 30.122C8.38353 29.6095 8.71475 29.472 9.28969 29.6533C9.70215 29.7845 10.1771 29.7595 10.5333 29.5908C10.852 29.4345 11.4395 28.8471 11.5957 28.5284C11.7894 28.1097 11.7894 27.591 11.5957 27.1035C11.552 27.0035 11.6582 26.9973 13.2268 26.9973C14.7329 26.9973 14.9329 26.9848 15.1578 26.8785C15.4641 26.7348 15.7765 26.4161 15.9015 26.1099C16.039 25.7912 16.0265 25.1537 15.8828 24.8412C15.7703 24.585 15.4141 24.2288 15.1516 24.1101C15.0141 24.0413 15.0016 24.0038 15.0016 23.5226V22.9977L20.1136 22.9852L25.2193 22.9664L25.5943 22.7852C26.0755 22.5477 26.5504 22.0728 26.7879 21.5916L26.9692 21.2166L27.0067 17.4982H27.4566C27.9816 17.4982 28.3065 17.367 28.6065 17.0545C28.894 16.7483 29.0002 16.4483 29.0002 15.9359V15.4984H31V11.4988H29.0002V11.0426C29.0002 10.5177 28.8752 10.1927 28.5565 9.89275C28.2565 9.60528 27.9503 9.49904 27.4441 9.49904H27.0067L26.9692 5.78067L26.7879 5.4057C26.5504 4.9245 26.0755 4.44955 25.5943 4.21208L25.2193 4.03084L20.1136 4.0121L15.0016 3.9996L15.0079 3.4809V2.96845L15.3016 2.78097C15.7578 2.48725 15.964 2.14353 15.989 1.62484C16.0203 1.09989 15.9328 0.812418 15.6328 0.481201C15.2016 0 15.2141 0 12.5019 0C10.2896 0 10.0771 0.0124987 9.84588 0.118738ZM14.6579 1.08739C15.0391 1.24987 15.0391 1.74982 14.6579 1.91231C14.3454 2.04354 10.6583 2.04354 10.3458 1.91231C9.97087 1.75607 9.96462 1.24987 10.3333 1.09364C10.6271 0.962403 14.3517 0.962403 14.6579 1.08739ZM14.0017 5.9994H11.002V2.9997H14.0017V5.9994ZM10.0021 5.51819C10.0021 6.00564 9.98962 6.04314 9.85213 6.11188C9.58966 6.23062 9.23345 6.58684 9.12096 6.84306C8.96472 7.17428 8.96472 7.82421 9.12096 8.15543C9.23345 8.41165 9.58966 8.76787 9.85213 8.8866L10.0021 8.95535V12.0425L9.85213 12.1113C9.58966 12.23 9.23345 12.5862 9.12096 12.8425C9.04596 13.0049 9.00222 13.2362 9.00222 13.4986C9.00222 13.7611 9.04596 13.9923 9.12096 14.1548C9.23345 14.411 9.58966 14.7673 9.85213 14.886L10.0021 14.9547L9.99587 16.4921V18.0294L9.70215 18.2169C9.33968 18.4544 9.06471 18.8356 9.02097 19.1793C8.98347 19.448 8.98347 19.448 8.76474 19.4105C8.49602 19.3668 8.33353 19.2293 8.17105 18.8793C7.99607 18.5106 7.66485 18.2044 7.30239 18.0732L6.99617 17.9669L7.01492 12.0925C7.03367 5.55569 7.00867 5.98065 7.45862 5.51194C7.85858 5.09324 8.12731 5.01824 9.27094 5.00575L10.0021 4.9995V5.51819ZM17.0014 21.9978H15.0016L15.0079 21.4791V20.9666L15.3016 20.7792C15.7578 20.4854 15.964 20.1417 15.989 19.6168C16.0078 19.3106 15.9828 19.0981 15.914 18.9043C15.8078 18.6294 15.4328 18.2357 15.1516 18.1107L15.0016 18.0419L15.0079 16.5046V14.9672L15.3016 14.7798C15.7578 14.486 15.964 14.1423 15.989 13.6174C16.0078 13.3112 15.9828 13.0987 15.914 12.9049C15.8078 12.63 15.4328 12.2363 15.1516 12.1113L15.0016 12.0425L15.0079 10.5052V8.96785L15.3016 8.78036C15.7578 8.48664 15.964 8.14293 15.989 7.61798C16.0078 7.31176 15.9828 7.09928 15.914 6.90555C15.8078 6.63058 15.4328 6.23687 15.1516 6.11188C15.0079 6.04314 15.0016 6.01189 15.0016 5.51819V4.9995H17.0014V21.9978ZM23.0008 5.9994H18.0013V4.9995H23.0008V5.9994ZM25.0943 5.18073C25.4006 5.31821 25.7693 5.71817 25.8818 6.03689C25.9568 6.23687 25.9693 7.54299 25.9693 13.4986C25.9693 21.4478 25.9943 20.9854 25.5693 21.4541C25.2881 21.7666 24.9569 21.9165 24.4194 21.9728L24.0007 22.0165V4.98075L24.4194 5.02449C24.6506 5.04949 24.9569 5.11823 25.0943 5.18073ZM14.6579 7.08679C15.0391 7.24927 15.0391 7.74922 14.6579 7.9117C14.3454 8.04294 10.6583 8.04294 10.3458 7.9117C9.97087 7.75547 9.96462 7.24927 10.3333 7.09303C10.6271 6.9618 14.3517 6.9618 14.6579 7.08679ZM23.0008 7.99919H18.0013V6.99929H23.0008V7.99919ZM14.0017 11.9988H11.002V8.99909H14.0017V11.9988ZM23.0008 9.99899H18.0013V8.99909H23.0008V9.99899ZM6.00252 17.4982H5.79004C5.42758 17.4982 5.18385 17.3732 5.09011 17.1483C4.97762 16.8733 4.95888 10.199 5.07136 9.874C5.15261 9.64278 5.40883 9.50529 5.77129 9.49904H6.00252V17.4982ZM27.6503 10.5864C27.7941 10.6427 27.8816 10.7364 27.9316 10.8739C28.044 11.1989 28.0253 15.8734 27.9128 16.1484C27.8191 16.3733 27.5753 16.4983 27.2129 16.4983H27.0004V10.4989H27.2191C27.3441 10.4989 27.5379 10.5364 27.6503 10.5864ZM23.0008 11.9988H18.0013V10.9989H23.0008V11.9988ZM4.00272 14.4985H3.00282V12.4987H4.00272V14.4985ZM30.0001 14.4985H29.0002V12.4987H30.0001V14.4985ZM14.6579 13.0862C15.0391 13.2487 15.0391 13.7486 14.6579 13.9111C14.3454 14.0423 10.6583 14.0423 10.3458 13.9111C9.97087 13.7549 9.96462 13.2487 10.3333 13.0924C10.6271 12.9612 14.3517 12.9612 14.6579 13.0862ZM23.0008 13.9986H18.0013V12.9987H23.0008V13.9986ZM14.0017 17.9982H11.002V14.9985H14.0017V17.9982ZM23.0008 15.9984H18.0013V14.9985H23.0008V15.9984ZM23.0008 17.9982H18.0013V16.9983H23.0008V17.9982ZM7.04616 19.1356C7.10241 19.1793 7.2024 19.3356 7.26489 19.4793C7.44612 19.8855 7.67735 20.123 8.09606 20.3167C8.53351 20.5292 9.14595 20.5604 9.52092 20.4042C9.87088 20.2605 9.98337 20.2855 10.3208 20.6042C10.6895 20.9479 10.7395 21.0979 10.5958 21.4791C10.2833 22.2978 10.6583 23.2914 11.4332 23.6789C11.9207 23.9288 11.9707 24.0038 11.9707 24.4975C11.9707 24.9787 11.9082 25.085 11.527 25.2475C10.702 25.6037 10.2708 26.6598 10.5958 27.516C10.7395 27.8972 10.6895 28.0472 10.3208 28.3909C9.98337 28.7096 9.87088 28.7346 9.52092 28.5909C9.40218 28.5409 9.11471 28.4971 8.88348 28.4971C8.1523 28.4971 7.52112 28.8971 7.25239 29.5283C7.08991 29.9032 6.98367 29.9657 6.50247 29.9657C6.02127 29.9657 5.91503 29.9032 5.74005 29.5158C5.55881 29.1096 5.32759 28.8721 4.90888 28.6784C4.47142 28.4659 3.85899 28.4346 3.48402 28.5909C3.13406 28.7346 3.02157 28.7096 2.6841 28.3909C2.31539 28.0472 2.2654 27.8972 2.40913 27.516C2.57162 27.0973 2.54662 26.5723 2.34664 26.1349C2.14041 25.6787 1.99042 25.5287 1.55922 25.3099C1.08427 25.0662 1.03427 24.9912 1.03427 24.4975C1.03427 24.0038 1.08427 23.9288 1.55922 23.6851C1.99042 23.4726 2.13416 23.3164 2.34039 22.8727C2.52787 22.4665 2.55912 21.8353 2.40913 21.4791C2.25915 21.1166 2.29039 21.0041 2.64661 20.6417C3.00907 20.2855 3.12156 20.2542 3.48402 20.4042C3.85899 20.5604 4.47142 20.5292 4.90888 20.3167C5.32759 20.123 5.55881 19.8855 5.74005 19.4793C5.86503 19.1981 5.96502 19.0918 6.15875 19.0418C6.35873 18.9856 6.93993 19.0481 7.04616 19.1356ZM14.6579 19.0856C14.8891 19.1856 14.9829 19.3855 14.9141 19.6605C14.8391 19.9605 14.6017 19.998 12.8768 19.998H11.3145L10.9333 19.6855C10.7208 19.5168 10.4646 19.3605 10.3708 19.3418C10.1084 19.2793 10.0896 19.1918 10.3271 19.0918C10.6271 18.9606 14.3454 18.9543 14.6579 19.0856ZM23.0008 19.998H18.0013V18.9981H23.0008V19.998ZM14.0017 23.9976H13.0331L12.9206 23.6851C12.7893 23.3164 12.5019 23.0102 12.1207 22.8289C11.6082 22.5852 11.4707 22.2603 11.6519 21.7228C11.7082 21.5666 11.7519 21.3353 11.7519 21.2166V20.9979H14.0017V23.9976ZM23.0008 21.9978H18.0013V20.9979H23.0008V21.9978ZM14.6579 25.085C14.8891 25.185 14.9829 25.3849 14.9141 25.6599C14.8454 25.9349 14.5642 25.9974 13.4455 25.9974H12.4456L12.6331 25.7912C12.7331 25.6849 12.8643 25.4599 12.9268 25.2912L13.0331 24.9975H13.7392C14.2079 24.9975 14.5142 25.0287 14.6579 25.085Z" fill="#144FAB"/>
<path d="M5.50257 21.1166C4.35894 21.4791 3.53402 22.2853 3.15906 23.3914C2.96533 23.9663 2.94033 24.8912 3.10281 25.4412C3.37154 26.3473 4.02772 27.1723 4.80264 27.5785C5.41508 27.8972 5.81504 27.9972 6.50247 27.9972C7.1899 27.9972 7.58986 27.8972 8.2023 27.5785C8.97722 27.1723 9.63341 26.3473 9.90213 25.4412C10.0334 24.9912 10.0334 24.0038 9.90213 23.5539C9.56466 22.404 8.72725 21.5353 7.60861 21.1541C7.01492 20.9604 6.05251 20.9416 5.50257 21.1166ZM7.52112 22.2665C7.98357 22.479 8.52102 23.0102 8.73975 23.4789C8.88973 23.8039 8.90848 23.9163 8.90848 24.4975C8.90848 25.0787 8.88973 25.1912 8.73975 25.5162C8.52102 25.9786 7.98357 26.5161 7.52112 26.7348C7.19615 26.8848 7.08366 26.9035 6.50247 26.9035C5.92128 26.9035 5.80879 26.8848 5.48382 26.7348C5.02137 26.5161 4.48392 25.9786 4.2652 25.5162C4.11521 25.1912 4.09646 25.0787 4.09646 24.4975C4.09646 23.9163 4.11521 23.8039 4.25895 23.4976C4.55892 22.8664 5.07136 22.3977 5.7088 22.1728C6.19625 21.9978 7.03992 22.0415 7.52112 22.2665Z" fill="#144FAB"/>
<path d="M5.84629 23.1164C5.30259 23.3664 5.00262 23.8663 5.00262 24.51C5.00887 25.3974 5.60881 25.9974 6.50247 25.9974C7.40238 25.9974 8.00232 25.3974 8.00232 24.4975C8.00232 23.8476 7.6711 23.3289 7.11491 23.0977C6.78994 22.9602 6.15875 22.9727 5.84629 23.1164ZM6.81494 24.1851C6.88368 24.2538 6.93993 24.3913 6.93993 24.4975C6.93993 24.6038 6.88368 24.7413 6.81494 24.81C6.7462 24.8787 6.60871 24.935 6.50247 24.935C6.39623 24.935 6.25874 24.8787 6.19 24.81C6.12126 24.7413 6.06501 24.6038 6.06501 24.4975C6.06501 24.3913 6.12126 24.2538 6.19 24.1851C6.25874 24.1163 6.39623 24.0601 6.50247 24.0601C6.60871 24.0601 6.7462 24.1163 6.81494 24.1851Z" fill="#144FAB"/>
</svg>
