<svg width="21" height="30" viewBox="0 0 21 30" fill="none" xmlns="http://www.w3.org/2000/svg">
<path d="M8.54023 0.0347333C7.81012 0.098473 6.54692 0.31287 5.77624 0.509884C2.90796 1.2342 0.937818 2.54956 0.201913 4.24156L0.0222832 4.65876L0.00489967 14.8224C-0.00668938 24.8759 -0.00668937 24.9859 0.109201 25.4843C0.520612 27.211 1.84756 28.48 3.71339 28.932C4.48407 29.1174 6.06018 29.3898 7.17852 29.5289C8.38957 29.6795 12.2198 29.6795 13.4366 29.5289C15.0301 29.3318 16.6699 29.0305 17.4348 28.7872C18.9472 28.3062 20.1351 27.0256 20.5059 25.4901C20.6218 25.0033 20.6218 24.8411 20.6218 14.9325V4.87316L20.4827 4.45595C20.2741 3.84173 20.0134 3.44771 19.4339 2.85667C18.0085 1.40804 15.5226 0.417172 12.4689 0.0810894C11.7214 -3.38703e-05 9.26455 -0.0290065 8.54023 0.0347333ZM11.5534 1.23999C14.4101 1.36747 17.232 2.36993 18.5648 3.72584C19.1152 4.28212 19.3586 4.75147 19.3934 5.30775C19.4281 5.82926 19.3412 6.15375 19.0573 6.59413C18.1012 8.07174 15.5864 9.21326 12.3646 9.62467C11.4838 9.73476 8.94585 9.71738 8.0477 9.5899C5.90952 9.29438 4.10163 8.69175 2.84422 7.85154C2.08513 7.34742 1.43035 6.57675 1.26811 5.9973C1.14642 5.55112 1.21595 4.94849 1.44774 4.5081C2.36906 2.75236 5.61979 1.39645 9.34567 1.21682C9.82662 1.19364 10.3655 1.18205 10.5393 1.18784C10.7132 1.19943 11.1709 1.22261 11.5534 1.23999ZM19.4629 15.002V21.8917L18.6691 22.1466C18.2287 22.2915 17.8636 22.4016 17.8636 22.3958C17.8578 22.3958 17.8694 19.4232 17.8868 15.8016L17.9158 9.21905L18.3272 8.9525C18.5532 8.80764 18.895 8.55848 19.0863 8.40202C19.2775 8.23978 19.4397 8.1065 19.4513 8.1065C19.4571 8.1065 19.4629 11.2066 19.4629 15.002ZM1.67952 8.52371C1.85915 8.66857 2.16626 8.88297 2.36327 9.00465L2.71674 9.22485V15.79C2.71674 21.0109 2.69935 22.361 2.6472 22.3552C2.60664 22.3552 2.27056 22.2567 1.9055 22.1408L1.23913 21.9206L1.22175 15.0368C1.21016 9.52037 1.22175 8.15865 1.27969 8.20501C1.32026 8.23978 1.49989 8.37885 1.67952 8.52371ZM4.51304 10.0245L5.03455 10.2099V16.5781C5.03455 22.616 5.02875 22.9463 4.93604 22.9231C4.87809 22.9057 4.62893 22.8478 4.38556 22.7956L3.93359 22.7029V16.271C3.93359 12.7363 3.94518 9.84486 3.96256 9.84486C3.98574 9.84486 4.22911 9.92598 4.51304 10.0245ZM16.6699 16.2536C16.6468 21.376 16.6236 22.6739 16.5656 22.7087C16.5251 22.7319 16.3339 22.784 16.1369 22.8246C15.9398 22.8594 15.7254 22.9057 15.6559 22.9231L15.5226 22.9521V10.2215L16.0325 10.0419C16.3107 9.94337 16.5714 9.85645 16.6178 9.85065C16.6873 9.84486 16.6931 10.7894 16.6699 16.2536ZM6.83664 10.6329L7.35235 10.7314V23.2997L7.16693 23.2708C7.06263 23.2476 6.81346 23.2186 6.61645 23.1954L6.2514 23.1549V16.8504C6.2514 13.3795 6.26878 10.5402 6.28616 10.5402C6.30355 10.5402 6.55271 10.5808 6.83664 10.6329ZM14.3058 16.8504V23.1549L13.7785 23.2244C13.4888 23.265 13.2396 23.2824 13.2338 23.2766C13.2222 23.265 13.2338 20.4372 13.2512 16.9895L13.2802 10.7256L13.7205 10.6387C13.9639 10.5924 14.1957 10.5518 14.2362 10.546C14.2884 10.5402 14.3058 11.8382 14.3058 16.8504ZM9.40361 10.9226L9.67016 10.9632V17.2155C9.67016 22.8999 9.66437 23.4736 9.57745 23.4388C9.5253 23.4214 9.28193 23.404 9.02697 23.404H8.5692V10.8879H8.85314C9.00379 10.8879 9.25296 10.9053 9.40361 10.9226ZM12.0343 17.117C12.0169 20.5473 11.9938 23.3577 11.9822 23.3693C11.9706 23.3809 11.7156 23.404 11.4259 23.4156L10.887 23.4446V10.9516L11.1072 10.9284C11.2231 10.9168 11.4896 10.9053 11.6925 10.8995L12.0633 10.8879L12.0343 17.117ZM2.45019 23.5779C4.14219 24.053 6.12392 24.4123 7.96078 24.5687C9.00379 24.6615 11.6113 24.6615 12.6543 24.5687C13.8075 24.4702 15.343 24.2442 16.4208 24.0125C17.2668 23.827 18.9008 23.3925 19.3122 23.2302L19.4803 23.1665L19.4455 24.0125C19.4223 24.4702 19.3644 25.0149 19.318 25.2119C19.121 25.9594 18.6633 26.6432 18.0548 27.0952C17.4406 27.5471 16.9829 27.7036 15.3256 28.0107C11.7852 28.6597 7.97237 28.6017 4.42033 27.8369C3.59171 27.6572 3.1803 27.5008 2.70515 27.1879C2.02719 26.7417 1.50568 26.0116 1.30287 25.2119C1.25072 25.0149 1.19278 24.476 1.1696 24.0125L1.13483 23.1723L1.3782 23.2592C1.51727 23.3055 1.99822 23.4504 2.45019 23.5779Z" fill="#144FAB"/>
<path d="M9.27034 2.14394C8.06508 2.25404 6.95253 2.56115 5.99064 3.05368C5.33586 3.38976 4.67529 4.01557 4.42033 4.54287C4.26967 4.84998 4.25229 4.95428 4.25229 5.44102C4.25229 5.91617 4.27546 6.03786 4.40874 6.32759C4.94763 7.4749 6.33831 8.27455 8.48229 8.66278C9.13127 8.78446 10.7306 8.83082 11.4607 8.7497C13.06 8.57586 14.3637 8.12968 15.2677 7.44593C15.7023 7.12144 15.9978 6.76797 16.2064 6.32759C16.3397 6.03786 16.3628 5.91617 16.3628 5.44102C16.3628 4.95428 16.3455 4.84998 16.1948 4.54287C15.9282 3.99239 15.2793 3.38976 14.5665 3.02471C13.0947 2.27721 11.2463 1.97011 9.27034 2.14394ZM11.1941 3.355C13.0831 3.53463 14.6419 4.21838 15.0649 5.05279C15.5458 5.9915 14.2594 7.00555 12.0169 7.45172C11.281 7.59659 9.33408 7.59659 8.59818 7.45172C7.48563 7.23153 6.69757 6.91863 6.10653 6.46665C5.27212 5.82926 5.22576 5.20345 5.97326 4.54867C7.00468 3.65052 9.13707 3.16378 11.1941 3.355Z" fill="#144FAB"/>
</svg>
