<svg width="22" height="30" viewBox="0 0 22 30" fill="none" xmlns="http://www.w3.org/2000/svg">
<path d="M1.0104 0.139366C0.632955 0.313574 0.313574 0.632955 0.139366 1.0104L0 1.30656V28.4249L0.139366 28.721C0.313574 29.0985 0.632955 29.4179 1.0104 29.5921L1.30656 29.7314H18.437L18.7331 29.5921C19.1106 29.4179 19.43 29.0985 19.6042 28.721L19.7435 28.4249V11.3119L20.481 10.4583C21.3927 9.40141 21.5088 9.17494 21.474 8.51295C21.4566 8.11227 21.4217 7.97871 21.2766 7.7174C21.1198 7.43867 20.9282 7.27607 19.5055 6.20179C18.6286 5.5398 17.7866 4.94169 17.624 4.87201C17.3917 4.76748 17.2582 4.75006 16.8691 4.77329C16.1491 4.80813 15.9574 4.94169 14.9993 6.05081L14.2037 6.96831H13.7392C13.1585 6.96831 12.8623 6.88701 12.7404 6.70119C12.6881 6.6257 12.3339 5.31914 11.9565 3.79773C11.2306 0.90588 11.1841 0.778128 10.7776 0.418098C10.3015 0 10.6789 0.0290346 5.74885 0.0116138L1.30656 0L1.0104 0.139366ZM9.70337 1.21945C9.81951 1.2543 9.95887 1.32979 10.0111 1.38785C10.075 1.46334 10.3654 2.50859 10.7951 4.22163C11.1725 5.71401 11.5209 7.03218 11.579 7.14252C11.7474 7.50254 12.0087 7.76966 12.3804 7.94968C12.723 8.12389 12.7636 8.12969 13.5011 8.12969H14.2676L16.422 9.73821L18.5763 11.3525L18.5647 19.7435C18.5531 28.8488 18.5705 28.2855 18.2395 28.4655C18.0305 28.5759 1.71304 28.5759 1.50399 28.4655C1.16719 28.2855 1.19042 29.2669 1.173 15.069C1.16138 7.87999 1.173 1.89306 1.19042 1.7595C1.22526 1.49819 1.43431 1.24268 1.64336 1.20203C1.9279 1.14977 9.50013 1.16138 9.70337 1.21945ZM18.646 7.09025C19.4242 7.67095 20.1094 8.20518 20.1616 8.27487C20.2197 8.33874 20.2604 8.48972 20.2662 8.60586C20.2662 8.79168 20.1965 8.89621 19.6797 9.48851C19.3603 9.86016 19.0815 10.1621 19.0641 10.1621C19.0177 10.1621 15.4464 7.48512 15.4464 7.45028C15.4464 7.40963 16.4046 6.30051 16.602 6.1205C16.7239 5.99855 16.7936 5.97532 16.9911 5.99855C17.1885 6.02178 17.4498 6.19018 18.646 7.09025Z" fill="#144FAB"/>
<path d="M2.47375 2.47375L2.32277 2.63054V7.82193L2.47375 7.97871L2.63054 8.12969H10.1273L10.2899 7.97291C10.4176 7.85096 10.4525 7.76386 10.4525 7.56642C10.4525 7.33415 9.42464 3.07186 9.27946 2.71183C9.24462 2.62473 9.15171 2.49698 9.07041 2.43891C8.93105 2.32858 8.82072 2.32277 5.77789 2.32277H2.63054L2.47375 2.47375ZM8.6407 5.17978C8.87298 6.11469 9.0588 6.89862 9.0588 6.92185C9.0588 6.95089 7.8045 6.96831 6.27148 6.96831H3.48415V3.48415H8.2168L8.6407 5.17978Z" fill="#144FAB"/>
<path d="M9.27946 11.1319C8.39681 12.0378 5.75466 15.069 5.48174 15.4813C4.84297 16.451 4.6107 17.3279 4.66296 18.5763C4.6978 19.5287 4.7849 19.8655 5.1972 20.7017C5.7837 21.8863 6.61409 22.6586 7.87999 23.1987C8.58263 23.5006 9.16333 23.5935 10.0982 23.5587C10.9867 23.5238 11.3583 23.4367 12.0552 23.1116C13.234 22.5657 14.0876 21.7121 14.6276 20.5449C14.9586 19.8365 15.0457 19.4706 15.0806 18.5763C15.1328 17.3279 14.9006 16.451 14.2618 15.4813C13.9947 15.0748 11.3003 11.9913 10.435 11.1028C10.1621 10.8241 10.1157 10.8009 9.87177 10.8009C9.62788 10.8009 9.58142 10.8241 9.27946 11.1319ZM11.3641 13.9773C13.2049 16.0387 13.1933 16.0213 13.443 16.4917C13.7334 17.0549 13.8785 17.6647 13.8785 18.3441C13.8785 19.0467 13.7682 19.5229 13.4604 20.15C13.263 20.5507 13.1178 20.7423 12.6881 21.1662C12.2642 21.5959 12.0726 21.7411 11.6719 21.9386C11.0448 22.2463 10.5686 22.3567 9.87177 22.3567C9.17494 22.3567 8.69877 22.2463 8.07162 21.9386C7.67095 21.7411 7.47932 21.5959 7.05541 21.1662C6.6257 20.7423 6.48053 20.5507 6.28309 20.15C5.97532 19.5229 5.86499 19.0467 5.86499 18.3441C5.86499 17.415 6.18437 16.4859 6.72442 15.8413C7.32253 15.1328 9.82531 12.3687 9.87177 12.3687C9.9008 12.3687 10.5686 13.0946 11.3641 13.9773Z" fill="#144FAB"/>
<path d="M11.7706 17.9202C11.6603 18.0305 11.6138 18.1524 11.5848 18.3963C11.5384 18.8086 11.2596 19.3951 11.0157 19.6042C10.7486 19.8306 10.3015 20.0165 9.91823 20.0629C9.47109 20.1152 9.29108 20.2894 9.29108 20.6726C9.29108 20.8933 9.32011 20.9804 9.44206 21.1024C9.58142 21.2359 9.6453 21.2533 9.98791 21.2533C11.4687 21.2533 12.7752 19.9468 12.7752 18.466C12.7752 18.1234 12.7578 18.0595 12.6243 17.9202C12.4036 17.7053 11.9855 17.7053 11.7706 17.9202Z" fill="#144FAB"/>
<path d="M5.9579 26.3983C5.83596 26.5202 5.80692 26.6073 5.80692 26.828C5.80692 27.0486 5.83596 27.1358 5.9579 27.2577L6.11469 27.4087H11.3061L11.4629 27.2577C11.6777 27.037 11.6777 26.6189 11.4629 26.3983L11.3061 26.2473H6.11469L5.9579 26.3983Z" fill="#144FAB"/>
<path d="M12.9262 26.3983C12.8043 26.5202 12.7752 26.6073 12.7752 26.828C12.7752 27.2112 12.9727 27.4087 13.3559 27.4087C13.7392 27.4087 13.9366 27.2112 13.9366 26.828C13.9366 26.4447 13.7392 26.2473 13.3559 26.2473C13.1353 26.2473 13.0482 26.2763 12.9262 26.3983Z" fill="#144FAB"/>
</svg>
