<svg width="20" height="20" viewBox="0 0 20 20" fill="none" xmlns="http://www.w3.org/2000/svg">
<path opacity="0.9" d="M8.74 0.446747C9.09632 0.157733 9.54118 0 10 0C10.4588 0 10.9037 0.157733 11.26 0.446747L18.888 6.62588C19.2349 6.90672 19.5147 7.26141 19.707 7.66409C19.8994 8.06677 19.9995 8.50729 20 8.95355V18.0003C20 18.5306 19.7893 19.0393 19.4142 19.4143C19.0391 19.7893 18.5304 20 18 20H14C13.4696 20 12.9609 19.7893 12.5858 19.4143C12.2107 19.0393 12 18.5306 12 18.0003V12.0011H8V18.0003C8 18.5306 7.78929 19.0393 7.41421 19.4143C7.03914 19.7893 6.53043 20 6 20H2C1.46957 20 0.960859 19.7893 0.585786 19.4143C0.210714 19.0393 5.87179e-08 18.5306 5.87179e-08 18.0003V8.95555C-8.83736e-05 8.50862 0.0997121 8.06731 0.292106 7.6639C0.484499 7.26048 0.764623 6.90515 1.112 6.62388L8.74 0.446747ZM17.63 8.17766L10 2.00253L2.37 8.17766C2.25424 8.27155 2.16094 8.39013 2.09692 8.52473C2.03291 8.65932 1.99979 8.80652 2 8.95555V18.0003H6V12.0011C6 11.4708 6.21071 10.9621 6.58579 10.5871C6.96086 10.2121 7.46957 10.0014 8 10.0014H12C12.5304 10.0014 13.0391 10.2121 13.4142 10.5871C13.7893 10.9621 14 11.4708 14 12.0011V18.0003H18V8.95555C18.0002 8.80652 17.9671 8.65932 17.9031 8.52473C17.8391 8.39013 17.7458 8.27155 17.63 8.17766Z" fill="#A8B7CD"/>
</svg>
