<svg width="32" height="24" viewBox="0 0 32 24" fill="none" xmlns="http://www.w3.org/2000/svg">
<path d="M16.583 0.0156738C16.4482 0.0279331 15.9946 0.0708406 15.5717 0.107618C14.738 0.181174 14.4561 0.266989 14.3457 0.463138C14.2538 0.647027 13.9044 2.19783 13.6776 3.44215C13.2669 5.69786 13.1014 7.51836 13.1014 9.72504C13.1014 13.0657 13.5305 15.8118 14.5235 18.7479C14.8974 19.8635 15.0077 20.0964 15.21 20.1883C15.5165 20.3355 17.4228 20.4151 18.6426 20.3355C22.1978 20.1025 25.1584 19.0605 27.6777 17.1542C28.2294 16.7312 29.4124 15.5176 29.8108 14.9536C30.5525 13.9116 31.0981 12.655 31.2942 11.5394C31.4107 10.8406 31.4107 9.52889 31.2942 8.83011C31.0981 7.71451 30.5525 6.45793 29.8108 5.41589C29.3327 4.74776 28.1803 3.58926 27.4632 3.06211C25.2626 1.45614 22.6943 0.475397 19.7705 0.132137C18.9797 0.0401923 17.055 -0.0333634 16.583 0.0156738ZM16.9815 10.1909V19.177L16.4788 19.134C16.1969 19.1095 15.9517 19.0727 15.9272 19.0482C15.8536 18.9747 15.2652 17.0806 15.0568 16.2102C14.5296 14.0771 14.3273 12.2688 14.3212 9.78633C14.3212 7.30995 14.5112 5.44654 15.0322 2.89048C15.1671 2.21622 15.2958 1.59099 15.3081 1.49905C15.3387 1.32742 15.3387 1.32742 16.4911 1.24773C16.6443 1.23547 16.816 1.22321 16.8773 1.21708C16.9753 1.20483 16.9815 1.67068 16.9815 10.1909ZM20.0156 1.39484C24.0673 1.95264 27.5858 3.99381 29.204 6.71538C31.3371 10.3196 29.9334 14.4694 25.7162 17.0193C23.7731 18.1901 21.2722 18.944 18.6855 19.134L18.1461 19.1708V1.20483L18.6549 1.2416C18.9307 1.25999 19.5437 1.32742 20.0156 1.39484Z" fill="#144FAB"/>
<path d="M5.49451 3.14179C1.59606 4.25739 0.253665 4.66808 0.143331 4.76615C0.0329973 4.87035 0.00234903 4.96843 0.00234903 5.1891C0.00234903 5.50784 0.149461 5.69786 0.443684 5.77141C0.670481 5.83271 11.1338 2.84144 11.3238 2.66368C11.7222 2.28977 11.428 1.62164 10.8702 1.64003C10.7783 1.64616 8.35706 2.32042 5.49451 3.14179Z" fill="#144FAB"/>
<path d="M5.51903 7.55514C-0.285745 9.21628 0.00234903 9.10594 0.00234903 9.63309C0.00234903 9.85376 0.0329973 9.92118 0.192368 10.056C0.296572 10.1419 0.455943 10.2154 0.541758 10.2154C0.633703 10.2154 3.06104 9.54115 5.93585 8.71977C11.7284 7.0709 11.4954 7.15671 11.4954 6.65408C11.4954 6.44567 11.4587 6.37212 11.2932 6.22501C11.1706 6.11467 11.0296 6.04725 10.9254 6.05338C10.8334 6.05338 8.39997 6.72764 5.51903 7.55514Z" fill="#144FAB"/>
<path d="M8.09348 11.2513C6.59172 11.6804 4.21955 12.3608 2.82199 12.7653C0.00847864 13.5683 0.00234903 13.5683 0.00234903 14.028C0.00847868 14.4081 0.223016 14.6288 0.578536 14.6288C0.774685 14.6288 10.9867 11.7172 11.2196 11.5946C11.4158 11.4904 11.5506 11.1655 11.4954 10.9326C11.4403 10.7242 11.2257 10.528 11.0051 10.4912C10.8825 10.4729 9.91399 10.7242 8.09348 11.2513Z" fill="#144FAB"/>
<path d="M5.42709 16.437C1.24054 17.6384 0.198498 17.9572 0.112683 18.0614C0.0452566 18.1472 0.00234903 18.3004 0.00234903 18.472C0.00234903 18.8276 0.198498 19.0421 0.535628 19.0421C0.750166 19.0421 10.9867 16.155 11.238 16.0263C11.3974 15.9405 11.5383 15.5727 11.4954 15.3582C11.4403 15.1069 11.1951 14.9352 10.8886 14.9414C10.7538 14.9414 8.29576 15.6156 5.42709 16.437Z" fill="#144FAB"/>
<path d="M5.76422 20.7584C3.08556 21.5307 0.744036 22.205 0.566277 22.2602C0.124942 22.395 0.00234903 22.5299 0.00234903 22.8731C0.00234903 23.3022 0.247535 23.5045 0.707259 23.4554C1.01374 23.4248 11.146 20.4948 11.2748 20.3968C11.5751 20.1822 11.5874 19.7777 11.3116 19.4957C11.2012 19.3854 11.1031 19.3486 10.9009 19.3547C10.7538 19.3608 8.44287 19.9922 5.76422 20.7584Z" fill="#144FAB"/>
</svg>
