<svg width="20" height="20" viewBox="0 0 20 20" fill="none" xmlns="http://www.w3.org/2000/svg">
<path fill-rule="evenodd" clip-rule="evenodd" d="M8.35487 0.783792C8.5856 0.783792 8.77262 0.97081 8.77262 1.20154V9.13866C8.77262 9.36936 8.5856 9.55641 8.35487 9.55641H0.417744C0.187019 9.55641 0 9.36936 0 9.13866V1.20154C0 0.97081 0.187019 0.783792 0.417744 0.783792H8.35487ZM6.99721 2.5592H1.77541V7.781H6.99721V2.5592ZM19.8776 4.84859C20.0408 5.01172 20.0408 5.27623 19.8776 5.43936L15.1514 10.1656C14.9883 10.3287 14.7238 10.3287 14.5606 10.1656L9.83439 5.43936C9.67126 5.27623 9.67126 5.01172 9.83439 4.84859L14.5606 0.122347C14.7238 -0.0407822 14.9883 -0.0407822 15.1514 0.122347L19.8776 4.84859ZM17.6622 5.14396L14.856 2.3378L12.0498 5.14399L14.856 7.95018L17.6622 5.14396ZM8.35487 11.2274C8.5856 11.2274 8.77262 11.4144 8.77262 11.6451V19.5823C8.77262 19.813 8.5856 20 8.35487 20H0.417744C0.187019 20 0 19.813 0 19.5823V11.6451C0 11.4144 0.187019 11.2274 0.417744 11.2274H8.35487ZM6.99721 13.0028H1.77541V18.2246H6.99721V13.0028ZM18.7985 11.2274C19.0292 11.2274 19.2162 11.4144 19.2162 11.6451V19.5823C19.2162 19.813 19.0292 20 18.7985 20H10.8613C10.6306 20 10.4436 19.813 10.4436 19.5823V11.6451C10.4436 11.4144 10.6306 11.2274 10.8613 11.2274H18.7985ZM17.4408 13.0028H12.219V18.2246H17.4408V13.0028Z" fill="#A8B7CD"/>
</svg>
