<svg width="23" height="23" viewBox="0 0 23 23" fill="none" xmlns="http://www.w3.org/2000/svg">
<path d="M21.8067 2.52197C22.0631 2.77831 22.0622 3.22276 21.8041 3.59196L17.8636 9.23418C17.5136 9.73724 16.8469 9.88247 16.497 9.53339L15.6755 8.71099L14.7323 9.65413L13.3631 8.28579L14.3062 7.34265L13.4847 6.52025C13.1347 6.17029 13.28 5.50449 13.7831 5.15366L19.4261 1.21312C19.7945 0.9559 20.2398 0.955024 20.4961 1.21137L21.8067 2.52197ZM7.60103 12.6795L10.3395 15.4179L4.04019 21.7172C3.85821 21.8983 3.6119 22 3.35515 22C3.0984 22 2.85209 21.8983 2.67011 21.7172L1.30177 20.3471C1.12092 20.1652 1.01941 19.9191 1.01941 19.6625C1.01941 19.406 1.12092 19.1599 1.30177 18.9779L7.60103 12.6795ZM21.6974 19.0925C21.878 19.2744 21.9793 19.5204 21.9793 19.7767C21.9793 20.033 21.878 20.2789 21.6974 20.4609L20.4611 21.698C20.2792 21.8791 20.0328 21.9808 19.7761 21.9808C19.5193 21.9808 19.273 21.8791 19.091 21.698L7.28344 9.89035C5.87748 10.4442 4.22917 10.2762 2.97369 9.38816C2.23566 8.87467 1.66421 8.15624 1.32992 7.32161C0.995629 6.48697 0.913149 5.5727 1.09267 4.69171C1.16441 4.34 1.61148 4.21664 1.8652 4.47124L3.64912 6.25603C4.00782 6.61473 4.594 6.61473 4.95184 6.25603L6.25543 4.95243C6.61414 4.5946 6.61414 4.00842 6.25543 3.64971L4.47414 1.86754C4.21692 1.61032 4.34728 1.1615 4.70337 1.09063C5.44601 0.940878 6.21417 0.97714 6.9394 1.19619C7.66464 1.41524 8.32443 1.81028 8.86 2.34611C9.49263 2.97973 9.92668 3.78413 10.109 4.66075C10.2913 5.53737 10.2139 6.44812 9.88626 7.28141L21.6974 19.0925Z" stroke="#A8B7CD" stroke-width="2"/>
</svg>
