<svg width="22" height="30" viewBox="0 0 22 30" fill="none" xmlns="http://www.w3.org/2000/svg">
<path d="M4.16134 0.0875829C3.35078 0.307591 2.45338 1.04288 2.08284 1.80712C1.46334 3.06927 1.68914 4.60354 2.63286 5.61673L2.88182 5.88306V8.08893L2.68497 8.12367C2.37811 8.18156 2.0481 8.45947 1.87441 8.80106C1.72388 9.10212 1.72388 9.12528 1.72388 10.3353V11.5627L1.26649 11.5801C0.867005 11.6033 0.77437 11.6264 0.560152 11.777C-0.186717 12.3038 -0.186717 13.4502 0.560152 13.977L0.809109 14.1507L3.46078 14.1855V14.8571C3.46078 15.5229 3.46078 15.5229 3.33341 15.4881C3.25815 15.465 2.97445 15.436 2.70234 15.4129C2.08863 15.3724 1.84546 15.4418 1.52703 15.7661C0.930692 16.3566 1.04649 17.393 1.75283 17.8272C1.89178 17.914 2.216 18.0009 2.69655 18.0819L3.43184 18.2093L3.46657 19.5815L3.33341 19.5409C3.25815 19.5178 2.97445 19.4888 2.70234 19.4657C2.08863 19.4251 1.84546 19.4946 1.52703 19.8188C1.11596 20.2299 1.02912 20.8204 1.30702 21.3647C1.55019 21.8452 1.78178 21.9784 2.68497 22.1347L3.43184 22.2621L3.44921 23.4258L3.46078 24.5895L3.12498 24.9253C1.66019 26.3959 2.23916 28.8565 4.20186 29.5166C4.67083 29.6787 5.45244 29.6787 5.94456 29.5281C7.3225 29.0997 8.13885 27.606 7.7741 26.1933C7.64673 25.7127 7.42093 25.319 7.03881 24.9195L6.70301 24.578V23.6921C6.70301 23.2058 6.71459 22.8063 6.72617 22.8063C6.73775 22.8063 6.88828 22.8353 7.05618 22.8642C7.57725 22.9684 8.00569 22.9453 8.29517 22.8063C9.20415 22.3663 9.27363 21.0231 8.41097 20.4904C8.27201 20.4036 7.94779 20.3167 7.46725 20.2357L6.73196 20.1083L6.71459 19.4309C6.7088 19.0604 6.7088 18.7535 6.72038 18.7535C6.73196 18.7535 6.88828 18.7825 7.05618 18.8114C7.57725 18.9156 8.00569 18.8925 8.29517 18.7535C9.20415 18.3135 9.27363 16.9703 8.41097 16.4377C8.27201 16.3508 7.94779 16.264 7.46725 16.1829L6.73196 16.0555L6.71459 15.1176L6.70301 14.1855L9.35468 14.1507L9.60364 13.977C10.3505 13.4502 10.3505 12.3038 9.60364 11.777C9.38942 11.6264 9.29679 11.6033 8.90309 11.5859L8.4457 11.5627L8.41097 8.99791L8.24885 8.72C8.06937 8.41894 7.76252 8.18156 7.46725 8.12367L7.28198 8.08314V5.88306L7.53093 5.61673C8.23727 4.86407 8.5615 3.76403 8.38202 2.73347C8.17938 1.50606 7.16039 0.394436 5.9793 0.0817932C5.55086 -0.0282108 4.58398 -0.0282108 4.16134 0.0875829ZM5.80561 1.01972C7.02144 1.39026 7.7741 2.75084 7.42093 3.93772C7.08513 5.06671 6.2051 5.73253 5.05874 5.72095C3.78501 5.71516 2.7776 4.76565 2.6676 3.46297C2.6097 2.77979 2.91076 2.0445 3.44342 1.55816C4.11502 0.944456 4.94294 0.759187 5.80561 1.01972ZM5.0819 6.62414C5.66086 6.62414 5.92719 6.60098 6.11246 6.5315L6.35563 6.43308V8.10051H3.80817V6.43308L4.05712 6.5315C4.2366 6.60098 4.50293 6.62414 5.0819 6.62414ZM7.21829 9.03265C7.31671 9.06739 7.42672 9.14265 7.45567 9.20055C7.49041 9.26423 7.51356 9.81425 7.51356 10.4395V11.5743H2.65023V10.4511C2.65023 9.83162 2.6676 9.2816 2.68497 9.2295C2.7776 8.99791 2.99761 8.97475 5.05874 8.96896C6.35563 8.96896 7.09671 8.99212 7.21829 9.03265ZM8.98414 12.5238C9.33731 12.6686 9.33732 13.0854 8.98993 13.2302C8.69466 13.3518 1.46913 13.3518 1.17965 13.2302C0.838057 13.0854 0.826478 12.6744 1.16228 12.5296C1.44018 12.408 8.70045 12.4022 8.98414 12.5238ZM5.77666 15.8992L4.38713 15.6676V14.1797H5.77666V15.8992ZM7.91305 17.2424C8.16201 17.3756 8.12148 17.833 7.85516 17.9314C7.7741 17.9603 6.73775 17.8156 5.00084 17.5261C2.08863 17.0398 2.05968 17.0282 2.05968 16.704C2.05968 16.5361 2.15811 16.3855 2.32022 16.3277C2.44759 16.2813 7.72778 17.144 7.91305 17.2424ZM5.77666 19.952L4.38713 19.7204V18.3656L5.77666 18.5972V19.952ZM7.91305 21.2952C8.16201 21.4284 8.12148 21.8857 7.85516 21.9842C7.7741 22.0131 6.73775 21.8684 5.00084 21.5789C2.08863 21.0926 2.05968 21.081 2.05968 20.7568C2.05968 20.5889 2.15811 20.4383 2.32022 20.3804C2.44759 20.3341 7.72778 21.1968 7.91305 21.2952ZM5.77666 24.1669H4.38713V22.4184L5.77666 22.65V24.1669ZM5.8114 25.209C6.22246 25.3885 6.55248 25.7069 6.74354 26.0949C6.88249 26.3728 6.90565 26.5001 6.90565 26.888C6.90565 27.4091 6.79564 27.7044 6.44826 28.1097C6.12983 28.486 5.71876 28.6713 5.16295 28.7002C4.74609 28.7234 4.64767 28.706 4.36976 28.5786C3.94133 28.3818 3.61132 28.0691 3.42026 27.6812C3.2813 27.4033 3.25815 27.2759 3.25815 26.888C3.25815 26.5001 3.2813 26.3728 3.42026 26.0949C3.86027 25.1917 4.90821 24.8038 5.8114 25.209Z" fill="#144FAB"/>
<path d="M4.34082 1.88238C4.01659 2.0445 3.81396 2.24713 3.61711 2.62346C3.51868 2.80873 3.48973 2.95927 3.48973 3.32402C3.48973 3.72929 3.51289 3.82772 3.65763 4.09404C3.96449 4.64985 4.42766 4.91618 5.07032 4.91618C5.73034 4.91618 6.19931 4.64406 6.50616 4.09404C6.6509 3.82772 6.67406 3.72929 6.67406 3.32402C6.67406 2.91295 6.65669 2.8261 6.49458 2.54241C6.29194 2.18345 5.93877 1.88238 5.61455 1.78975C5.20927 1.67974 4.67083 1.71448 4.34082 1.88238ZM5.42928 2.74505C6.0314 3.05769 5.77087 3.98983 5.0819 3.98983C4.71715 3.98983 4.38713 3.68298 4.38713 3.35296C4.38713 3.15032 4.56661 2.83189 4.72873 2.74505C4.92557 2.63504 5.22085 2.63504 5.42928 2.74505Z" fill="#144FAB"/>
<path d="M4.61872 25.6201C4.13818 25.8054 3.80817 26.2743 3.76764 26.8186C3.74448 27.1312 3.76185 27.2181 3.90659 27.4902C4.00502 27.6754 4.16713 27.8723 4.31766 27.9823C4.55504 28.1502 4.60135 28.1618 5.07611 28.1618C5.5277 28.1618 5.60876 28.1444 5.82298 28.0054C6.15299 27.7854 6.36142 27.4033 6.39616 26.9575C6.41931 26.6449 6.40195 26.558 6.2572 26.2801C6.15299 26.0833 5.99667 25.898 5.84035 25.788C5.62613 25.6375 5.53928 25.6143 5.15137 25.6027C4.90821 25.5969 4.66504 25.6027 4.61872 25.6201ZM5.37138 26.6275C5.60876 26.8649 5.42928 27.2644 5.0819 27.2644C4.86768 27.2644 4.67662 27.0849 4.67662 26.888C4.67662 26.6912 4.86768 26.5117 5.0819 26.5117C5.18032 26.5117 5.30769 26.5638 5.37138 26.6275Z" fill="#144FAB"/>
<path d="M15.1617 0.0875834C14.3512 0.307591 13.4538 1.04288 13.0832 1.80712C12.4637 3.06927 12.6895 4.60354 13.6333 5.61673L13.8822 5.88306V8.08893L13.6854 8.12367C13.3785 8.18156 13.0485 8.45947 12.8748 8.80106C12.7243 9.10212 12.7243 9.12528 12.7243 10.3353V11.5627L12.2669 11.5801C11.8674 11.6033 11.7748 11.6264 11.5606 11.777C10.8137 12.3038 10.8137 13.4502 11.5606 13.977L11.8095 14.1507L14.4612 14.1855L14.4496 15.1176L14.4322 16.0555L13.6969 16.1829C13.2164 16.264 12.8922 16.3508 12.7532 16.4377C12.0469 16.8719 11.9311 17.9082 12.5274 18.4988C12.8459 18.823 13.089 18.8925 13.7027 18.852C13.9749 18.8288 14.2585 18.7998 14.3338 18.7767L14.467 18.7362L14.4322 20.1083L13.6969 20.2357C13.2164 20.3167 12.8922 20.4036 12.7532 20.4904C12.0469 20.9247 11.9311 21.961 12.5274 22.5516C12.8459 22.8758 13.089 22.9453 13.7027 22.9047C13.9749 22.8816 14.2585 22.8526 14.3338 22.8295L14.4612 22.7947V24.5895L14.1254 24.9311C12.6606 26.3959 13.2627 28.9202 15.2196 29.5281C15.7118 29.6845 16.4876 29.6787 16.9681 29.5166C18.925 28.8623 19.4982 26.3901 18.0392 24.9253L17.7034 24.5895L17.715 23.4258L17.7324 22.2621L18.4792 22.1347C19.3824 21.9784 19.614 21.8452 19.863 21.3589C20.0077 21.081 20.0251 20.9941 20.0019 20.6525C19.973 20.1836 19.7993 19.8825 19.4287 19.6394C19.2145 19.4946 19.1393 19.4772 18.6934 19.4772C18.4213 19.4772 18.0855 19.4946 17.9466 19.5236L17.6976 19.5641L17.7324 18.2093L18.4792 18.0819C19.3824 17.9256 19.614 17.7924 19.863 17.3061C20.0077 17.0282 20.0251 16.9414 20.0019 16.5998C19.973 16.1308 19.7993 15.8297 19.4287 15.5866C19.2145 15.4418 19.1393 15.4245 18.6934 15.4245C18.4213 15.4245 18.0855 15.4418 17.9524 15.4708L17.7034 15.5113V14.1855L20.3551 14.1507L20.604 13.977C21.3509 13.4502 21.3509 12.3038 20.604 11.777C20.3898 11.6264 20.2972 11.6033 19.9035 11.5859L19.4461 11.5627L19.4114 8.99791L19.2493 8.72C19.0698 8.41894 18.7629 8.18156 18.4676 8.12367L18.2824 8.08314V5.88306L18.5313 5.61673C19.2377 4.86407 19.5619 3.76403 19.3824 2.73347C19.1798 1.50606 18.1608 0.394437 16.9797 0.0817938C16.5513 -0.0282103 15.5844 -0.0282103 15.1617 0.0875834ZM16.806 1.01972C18.0218 1.39026 18.7745 2.75084 18.4213 3.93772C18.0855 5.06671 17.2055 5.73253 16.0591 5.72095C14.7854 5.71516 13.778 4.76565 13.668 3.46297C13.6101 2.77979 13.9112 2.0445 14.4438 1.55816C15.1154 0.944457 15.9433 0.759187 16.806 1.01972ZM16.0823 6.62414C16.6613 6.62414 16.9276 6.60098 17.1129 6.5315L17.356 6.43308V8.10051H14.8086V6.43308L15.0575 6.5315C15.237 6.60098 15.5033 6.62414 16.0823 6.62414ZM18.2187 9.03265C18.3171 9.06738 18.4271 9.14265 18.4561 9.20055C18.4908 9.26423 18.514 9.81425 18.514 10.4395V11.5743H13.6506V10.4511C13.6506 9.83162 13.668 9.2816 13.6854 9.2295C13.778 8.99791 13.998 8.97475 16.0591 8.96896C17.356 8.96896 18.0971 8.99212 18.2187 9.03265ZM19.9845 12.5238C20.3377 12.6686 20.3377 13.0854 19.9903 13.2302C19.6951 13.3518 12.4695 13.3518 12.18 13.2302C11.8385 13.0854 11.8269 12.6744 12.1627 12.5296C12.4406 12.408 19.7009 12.4022 19.9845 12.5238ZM16.7771 15.6676L15.3875 15.8992V14.1797H16.7771V15.6676ZM18.9945 16.4261C19.1219 16.5419 19.1219 16.8545 18.9887 16.9761C18.9192 17.0398 18.1029 17.2019 16.256 17.5087C14.8086 17.7519 13.5522 17.9546 13.4596 17.9546C13.1238 17.9661 12.9327 17.5087 13.1759 17.2887C13.2454 17.2251 14.0791 17.0629 15.9955 16.7387C17.495 16.4898 18.7571 16.2987 18.8034 16.3103C18.8498 16.3277 18.9366 16.3798 18.9945 16.4261ZM16.7771 19.0314V19.7204L15.3875 19.952V18.5972L16.0707 18.4814C16.4413 18.4119 16.7539 18.3598 16.7655 18.354C16.7713 18.354 16.7771 18.6551 16.7771 19.0314ZM18.9945 20.4789C19.1219 20.5946 19.1219 20.9073 18.9887 21.0289C18.9192 21.0926 18.1029 21.2547 16.256 21.5615C14.8086 21.8047 13.5522 22.0073 13.4596 22.0073C13.1238 22.0189 12.9327 21.5615 13.1759 21.3415C13.2454 21.2778 14.0791 21.1157 15.9955 20.7915C17.495 20.5425 18.7571 20.3515 18.8034 20.3631C18.8498 20.3804 18.9366 20.4325 18.9945 20.4789ZM16.7771 23.2811V24.1669H15.3875V22.65L16.0707 22.5342C16.4413 22.4647 16.7539 22.4126 16.7655 22.4068C16.7713 22.4068 16.7771 22.8005 16.7771 23.2811ZM16.8118 25.209C17.2229 25.3885 17.5529 25.7069 17.7439 26.0949C17.8829 26.3728 17.906 26.5001 17.906 26.888C17.906 27.4091 17.796 27.7044 17.4487 28.1097C17.1302 28.486 16.7192 28.6713 16.1634 28.7002C15.7465 28.7234 15.6481 28.706 15.3702 28.5786C14.9417 28.3818 14.6117 28.0691 14.4207 27.6812C14.2817 27.4033 14.2585 27.2759 14.2585 26.888C14.2585 26.5001 14.2817 26.3728 14.4207 26.0949C14.8607 25.1917 15.9086 24.8038 16.8118 25.209Z" fill="#144FAB"/>
<path d="M15.3412 1.88238C15.017 2.0445 14.8144 2.24713 14.6175 2.62346C14.5191 2.80873 14.4901 2.95927 14.4901 3.32402C14.4901 3.72929 14.5133 3.82772 14.658 4.09404C14.9649 4.64985 15.4281 4.91618 16.0707 4.91618C16.7307 4.91618 17.1997 4.64406 17.5066 4.09404C17.6513 3.82772 17.6745 3.72929 17.6745 3.32402C17.6745 2.91295 17.6571 2.8261 17.495 2.54241C17.2923 2.18345 16.9392 1.88238 16.615 1.78975C16.2097 1.67974 15.6712 1.71448 15.3412 1.88238ZM16.4297 2.74505C17.0318 3.05769 16.7713 3.98983 16.0823 3.98983C15.7175 3.98983 15.3875 3.68298 15.3875 3.35296C15.3875 3.15032 15.567 2.83189 15.7291 2.74505C15.926 2.63504 16.2213 2.63504 16.4297 2.74505Z" fill="#144FAB"/>
<path d="M15.6191 25.6201C15.1386 25.8054 14.8086 26.2743 14.768 26.8186C14.7449 27.1312 14.7623 27.2181 14.907 27.4902C15.0054 27.6754 15.1675 27.8723 15.3181 27.9823C15.5554 28.1502 15.6018 28.1618 16.0765 28.1618C16.5281 28.1618 16.6092 28.1444 16.8234 28.0054C17.1534 27.7854 17.3618 27.4033 17.3966 26.9575C17.4197 26.6449 17.4023 26.558 17.2576 26.2801C17.1534 26.0833 16.9971 25.898 16.8407 25.788C16.6265 25.6375 16.5397 25.6143 16.1518 25.6027C15.9086 25.5969 15.6654 25.6027 15.6191 25.6201ZM16.3718 26.6275C16.6092 26.8649 16.4297 27.2644 16.0823 27.2644C15.8681 27.2644 15.677 27.0849 15.677 26.888C15.677 26.6912 15.8681 26.5117 16.0823 26.5117C16.1807 26.5117 16.3081 26.5638 16.3718 26.6275Z" fill="#144FAB"/>
</svg>
